%TF.GenerationSoftware,KiCad,Pcbnew,8.0.5*%
%TF.CreationDate,2024-10-14T19:38:52-05:00*%
%TF.ProjectId,USBCPowerPCB,55534243-506f-4776-9572-5043422e6b69,rev?*%
%TF.SameCoordinates,Original*%
%TF.FileFunction,Drillmap*%
%TF.FilePolarity,Positive*%
%FSLAX45Y45*%
G04 Gerber Fmt 4.5, Leading zero omitted, Abs format (unit mm)*
G04 Created by KiCad (PCBNEW 8.0.5) date 2024-10-14 19:38:52*
%MOMM*%
%LPD*%
G01*
G04 APERTURE LIST*
%ADD10C,0.100000*%
%ADD11C,0.200000*%
%ADD12C,0.127000*%
%ADD13C,0.320000*%
G04 APERTURE END LIST*
D10*
X11410000Y-14560031D02*
G75*
G02*
X11010000Y-14155000I0J400031D01*
G01*
X17785031Y-14160000D02*
G75*
G02*
X17380000Y-14560000I-400031J0D01*
G01*
X11410000Y-8310000D02*
X17385000Y-8309969D01*
X11010000Y-8710000D02*
G75*
G02*
X11410000Y-8310000I400000J0D01*
G01*
X17385000Y-8309969D02*
G75*
G02*
X17785000Y-8715000I0J-400031D01*
G01*
X17390000Y-14560000D02*
X11405000Y-14560000D01*
X17785000Y-8715000D02*
X17785000Y-14160000D01*
X11010000Y-8710000D02*
X11010000Y-14160000D01*
D11*
D12*
X11135500Y-9526500D02*
X11262500Y-9653500D01*
X11262500Y-9526500D02*
X11135500Y-9653500D01*
X11135500Y-10426500D02*
X11262500Y-10553500D01*
X11262500Y-10426500D02*
X11135500Y-10553500D01*
X17527500Y-9426500D02*
X17654500Y-9553500D01*
X17654500Y-9426500D02*
X17527500Y-9553500D01*
X17527500Y-10926500D02*
X17654500Y-11053500D01*
X17654500Y-10926500D02*
X17527500Y-11053500D01*
X17532500Y-12536400D02*
X17659500Y-12663400D01*
X17659500Y-12536400D02*
X17532500Y-12663400D01*
X17532500Y-13436400D02*
X17659500Y-13563400D01*
X17659500Y-13436400D02*
X17532500Y-13563400D01*
D13*
X11570000Y-8710000D02*
G75*
G02*
X11250000Y-8710000I-160000J0D01*
G01*
X11250000Y-8710000D02*
G75*
G02*
X11570000Y-8710000I160000J0D01*
G01*
X11570000Y-14160000D02*
G75*
G02*
X11250000Y-14160000I-160000J0D01*
G01*
X11250000Y-14160000D02*
G75*
G02*
X11570000Y-14160000I160000J0D01*
G01*
X17545000Y-8710000D02*
G75*
G02*
X17225000Y-8710000I-160000J0D01*
G01*
X17225000Y-8710000D02*
G75*
G02*
X17545000Y-8710000I160000J0D01*
G01*
X17545000Y-14160000D02*
G75*
G02*
X17225000Y-14160000I-160000J0D01*
G01*
X17225000Y-14160000D02*
G75*
G02*
X17545000Y-14160000I160000J0D01*
G01*
D11*
X11265746Y-14876515D02*
X11265746Y-14676515D01*
X11265746Y-14676515D02*
X11313365Y-14676515D01*
X11313365Y-14676515D02*
X11341936Y-14686039D01*
X11341936Y-14686039D02*
X11360984Y-14705086D01*
X11360984Y-14705086D02*
X11370508Y-14724134D01*
X11370508Y-14724134D02*
X11380031Y-14762229D01*
X11380031Y-14762229D02*
X11380031Y-14790801D01*
X11380031Y-14790801D02*
X11370508Y-14828896D01*
X11370508Y-14828896D02*
X11360984Y-14847944D01*
X11360984Y-14847944D02*
X11341936Y-14866991D01*
X11341936Y-14866991D02*
X11313365Y-14876515D01*
X11313365Y-14876515D02*
X11265746Y-14876515D01*
X11465746Y-14876515D02*
X11465746Y-14743182D01*
X11465746Y-14781277D02*
X11475269Y-14762229D01*
X11475269Y-14762229D02*
X11484793Y-14752705D01*
X11484793Y-14752705D02*
X11503841Y-14743182D01*
X11503841Y-14743182D02*
X11522889Y-14743182D01*
X11589555Y-14876515D02*
X11589555Y-14743182D01*
X11589555Y-14676515D02*
X11580031Y-14686039D01*
X11580031Y-14686039D02*
X11589555Y-14695563D01*
X11589555Y-14695563D02*
X11599079Y-14686039D01*
X11599079Y-14686039D02*
X11589555Y-14676515D01*
X11589555Y-14676515D02*
X11589555Y-14695563D01*
X11713365Y-14876515D02*
X11694317Y-14866991D01*
X11694317Y-14866991D02*
X11684793Y-14847944D01*
X11684793Y-14847944D02*
X11684793Y-14676515D01*
X11818127Y-14876515D02*
X11799079Y-14866991D01*
X11799079Y-14866991D02*
X11789555Y-14847944D01*
X11789555Y-14847944D02*
X11789555Y-14676515D01*
X12046698Y-14876515D02*
X12046698Y-14676515D01*
X12046698Y-14676515D02*
X12113365Y-14819372D01*
X12113365Y-14819372D02*
X12180031Y-14676515D01*
X12180031Y-14676515D02*
X12180031Y-14876515D01*
X12360984Y-14876515D02*
X12360984Y-14771753D01*
X12360984Y-14771753D02*
X12351460Y-14752705D01*
X12351460Y-14752705D02*
X12332412Y-14743182D01*
X12332412Y-14743182D02*
X12294317Y-14743182D01*
X12294317Y-14743182D02*
X12275269Y-14752705D01*
X12360984Y-14866991D02*
X12341936Y-14876515D01*
X12341936Y-14876515D02*
X12294317Y-14876515D01*
X12294317Y-14876515D02*
X12275269Y-14866991D01*
X12275269Y-14866991D02*
X12265746Y-14847944D01*
X12265746Y-14847944D02*
X12265746Y-14828896D01*
X12265746Y-14828896D02*
X12275269Y-14809848D01*
X12275269Y-14809848D02*
X12294317Y-14800325D01*
X12294317Y-14800325D02*
X12341936Y-14800325D01*
X12341936Y-14800325D02*
X12360984Y-14790801D01*
X12456222Y-14743182D02*
X12456222Y-14943182D01*
X12456222Y-14752705D02*
X12475269Y-14743182D01*
X12475269Y-14743182D02*
X12513365Y-14743182D01*
X12513365Y-14743182D02*
X12532412Y-14752705D01*
X12532412Y-14752705D02*
X12541936Y-14762229D01*
X12541936Y-14762229D02*
X12551460Y-14781277D01*
X12551460Y-14781277D02*
X12551460Y-14838420D01*
X12551460Y-14838420D02*
X12541936Y-14857467D01*
X12541936Y-14857467D02*
X12532412Y-14866991D01*
X12532412Y-14866991D02*
X12513365Y-14876515D01*
X12513365Y-14876515D02*
X12475269Y-14876515D01*
X12475269Y-14876515D02*
X12456222Y-14866991D01*
X12637174Y-14857467D02*
X12646698Y-14866991D01*
X12646698Y-14866991D02*
X12637174Y-14876515D01*
X12637174Y-14876515D02*
X12627650Y-14866991D01*
X12627650Y-14866991D02*
X12637174Y-14857467D01*
X12637174Y-14857467D02*
X12637174Y-14876515D01*
X12637174Y-14752705D02*
X12646698Y-14762229D01*
X12646698Y-14762229D02*
X12637174Y-14771753D01*
X12637174Y-14771753D02*
X12627650Y-14762229D01*
X12627650Y-14762229D02*
X12637174Y-14752705D01*
X12637174Y-14752705D02*
X12637174Y-14771753D01*
D12*
X10877969Y-15141531D02*
X11004969Y-15268531D01*
X11004969Y-15141531D02*
X10877969Y-15268531D01*
D11*
X11370508Y-15296515D02*
X11256222Y-15296515D01*
X11313365Y-15296515D02*
X11313365Y-15096515D01*
X11313365Y-15096515D02*
X11294317Y-15125086D01*
X11294317Y-15125086D02*
X11275269Y-15144134D01*
X11275269Y-15144134D02*
X11256222Y-15153658D01*
X11456222Y-15277467D02*
X11465746Y-15286991D01*
X11465746Y-15286991D02*
X11456222Y-15296515D01*
X11456222Y-15296515D02*
X11446698Y-15286991D01*
X11446698Y-15286991D02*
X11456222Y-15277467D01*
X11456222Y-15277467D02*
X11456222Y-15296515D01*
X11541936Y-15115563D02*
X11551460Y-15106039D01*
X11551460Y-15106039D02*
X11570508Y-15096515D01*
X11570508Y-15096515D02*
X11618127Y-15096515D01*
X11618127Y-15096515D02*
X11637174Y-15106039D01*
X11637174Y-15106039D02*
X11646698Y-15115563D01*
X11646698Y-15115563D02*
X11656222Y-15134610D01*
X11656222Y-15134610D02*
X11656222Y-15153658D01*
X11656222Y-15153658D02*
X11646698Y-15182229D01*
X11646698Y-15182229D02*
X11532412Y-15296515D01*
X11532412Y-15296515D02*
X11656222Y-15296515D01*
X11722889Y-15096515D02*
X11856222Y-15096515D01*
X11856222Y-15096515D02*
X11770508Y-15296515D01*
X11970508Y-15096515D02*
X11989555Y-15096515D01*
X11989555Y-15096515D02*
X12008603Y-15106039D01*
X12008603Y-15106039D02*
X12018127Y-15115563D01*
X12018127Y-15115563D02*
X12027650Y-15134610D01*
X12027650Y-15134610D02*
X12037174Y-15172705D01*
X12037174Y-15172705D02*
X12037174Y-15220325D01*
X12037174Y-15220325D02*
X12027650Y-15258420D01*
X12027650Y-15258420D02*
X12018127Y-15277467D01*
X12018127Y-15277467D02*
X12008603Y-15286991D01*
X12008603Y-15286991D02*
X11989555Y-15296515D01*
X11989555Y-15296515D02*
X11970508Y-15296515D01*
X11970508Y-15296515D02*
X11951460Y-15286991D01*
X11951460Y-15286991D02*
X11941936Y-15277467D01*
X11941936Y-15277467D02*
X11932412Y-15258420D01*
X11932412Y-15258420D02*
X11922889Y-15220325D01*
X11922889Y-15220325D02*
X11922889Y-15172705D01*
X11922889Y-15172705D02*
X11932412Y-15134610D01*
X11932412Y-15134610D02*
X11941936Y-15115563D01*
X11941936Y-15115563D02*
X11951460Y-15106039D01*
X11951460Y-15106039D02*
X11970508Y-15096515D01*
X12122889Y-15296515D02*
X12122889Y-15163182D01*
X12122889Y-15182229D02*
X12132412Y-15172705D01*
X12132412Y-15172705D02*
X12151460Y-15163182D01*
X12151460Y-15163182D02*
X12180031Y-15163182D01*
X12180031Y-15163182D02*
X12199079Y-15172705D01*
X12199079Y-15172705D02*
X12208603Y-15191753D01*
X12208603Y-15191753D02*
X12208603Y-15296515D01*
X12208603Y-15191753D02*
X12218127Y-15172705D01*
X12218127Y-15172705D02*
X12237174Y-15163182D01*
X12237174Y-15163182D02*
X12265746Y-15163182D01*
X12265746Y-15163182D02*
X12284793Y-15172705D01*
X12284793Y-15172705D02*
X12294317Y-15191753D01*
X12294317Y-15191753D02*
X12294317Y-15296515D01*
X12389555Y-15296515D02*
X12389555Y-15163182D01*
X12389555Y-15182229D02*
X12399079Y-15172705D01*
X12399079Y-15172705D02*
X12418127Y-15163182D01*
X12418127Y-15163182D02*
X12446698Y-15163182D01*
X12446698Y-15163182D02*
X12465746Y-15172705D01*
X12465746Y-15172705D02*
X12475270Y-15191753D01*
X12475270Y-15191753D02*
X12475270Y-15296515D01*
X12475270Y-15191753D02*
X12484793Y-15172705D01*
X12484793Y-15172705D02*
X12503841Y-15163182D01*
X12503841Y-15163182D02*
X12532412Y-15163182D01*
X12532412Y-15163182D02*
X12551460Y-15172705D01*
X12551460Y-15172705D02*
X12560984Y-15191753D01*
X12560984Y-15191753D02*
X12560984Y-15296515D01*
X12951460Y-15086991D02*
X12780032Y-15344134D01*
X13208603Y-15096515D02*
X13227651Y-15096515D01*
X13227651Y-15096515D02*
X13246698Y-15106039D01*
X13246698Y-15106039D02*
X13256222Y-15115563D01*
X13256222Y-15115563D02*
X13265746Y-15134610D01*
X13265746Y-15134610D02*
X13275270Y-15172705D01*
X13275270Y-15172705D02*
X13275270Y-15220325D01*
X13275270Y-15220325D02*
X13265746Y-15258420D01*
X13265746Y-15258420D02*
X13256222Y-15277467D01*
X13256222Y-15277467D02*
X13246698Y-15286991D01*
X13246698Y-15286991D02*
X13227651Y-15296515D01*
X13227651Y-15296515D02*
X13208603Y-15296515D01*
X13208603Y-15296515D02*
X13189555Y-15286991D01*
X13189555Y-15286991D02*
X13180032Y-15277467D01*
X13180032Y-15277467D02*
X13170508Y-15258420D01*
X13170508Y-15258420D02*
X13160984Y-15220325D01*
X13160984Y-15220325D02*
X13160984Y-15172705D01*
X13160984Y-15172705D02*
X13170508Y-15134610D01*
X13170508Y-15134610D02*
X13180032Y-15115563D01*
X13180032Y-15115563D02*
X13189555Y-15106039D01*
X13189555Y-15106039D02*
X13208603Y-15096515D01*
X13360984Y-15277467D02*
X13370508Y-15286991D01*
X13370508Y-15286991D02*
X13360984Y-15296515D01*
X13360984Y-15296515D02*
X13351460Y-15286991D01*
X13351460Y-15286991D02*
X13360984Y-15277467D01*
X13360984Y-15277467D02*
X13360984Y-15296515D01*
X13494317Y-15096515D02*
X13513365Y-15096515D01*
X13513365Y-15096515D02*
X13532413Y-15106039D01*
X13532413Y-15106039D02*
X13541936Y-15115563D01*
X13541936Y-15115563D02*
X13551460Y-15134610D01*
X13551460Y-15134610D02*
X13560984Y-15172705D01*
X13560984Y-15172705D02*
X13560984Y-15220325D01*
X13560984Y-15220325D02*
X13551460Y-15258420D01*
X13551460Y-15258420D02*
X13541936Y-15277467D01*
X13541936Y-15277467D02*
X13532413Y-15286991D01*
X13532413Y-15286991D02*
X13513365Y-15296515D01*
X13513365Y-15296515D02*
X13494317Y-15296515D01*
X13494317Y-15296515D02*
X13475270Y-15286991D01*
X13475270Y-15286991D02*
X13465746Y-15277467D01*
X13465746Y-15277467D02*
X13456222Y-15258420D01*
X13456222Y-15258420D02*
X13446698Y-15220325D01*
X13446698Y-15220325D02*
X13446698Y-15172705D01*
X13446698Y-15172705D02*
X13456222Y-15134610D01*
X13456222Y-15134610D02*
X13465746Y-15115563D01*
X13465746Y-15115563D02*
X13475270Y-15106039D01*
X13475270Y-15106039D02*
X13494317Y-15096515D01*
X13741936Y-15096515D02*
X13646698Y-15096515D01*
X13646698Y-15096515D02*
X13637174Y-15191753D01*
X13637174Y-15191753D02*
X13646698Y-15182229D01*
X13646698Y-15182229D02*
X13665746Y-15172705D01*
X13665746Y-15172705D02*
X13713365Y-15172705D01*
X13713365Y-15172705D02*
X13732413Y-15182229D01*
X13732413Y-15182229D02*
X13741936Y-15191753D01*
X13741936Y-15191753D02*
X13751460Y-15210801D01*
X13751460Y-15210801D02*
X13751460Y-15258420D01*
X13751460Y-15258420D02*
X13741936Y-15277467D01*
X13741936Y-15277467D02*
X13732413Y-15286991D01*
X13732413Y-15286991D02*
X13713365Y-15296515D01*
X13713365Y-15296515D02*
X13665746Y-15296515D01*
X13665746Y-15296515D02*
X13646698Y-15286991D01*
X13646698Y-15286991D02*
X13637174Y-15277467D01*
X13875270Y-15096515D02*
X13894317Y-15096515D01*
X13894317Y-15096515D02*
X13913365Y-15106039D01*
X13913365Y-15106039D02*
X13922889Y-15115563D01*
X13922889Y-15115563D02*
X13932413Y-15134610D01*
X13932413Y-15134610D02*
X13941936Y-15172705D01*
X13941936Y-15172705D02*
X13941936Y-15220325D01*
X13941936Y-15220325D02*
X13932413Y-15258420D01*
X13932413Y-15258420D02*
X13922889Y-15277467D01*
X13922889Y-15277467D02*
X13913365Y-15286991D01*
X13913365Y-15286991D02*
X13894317Y-15296515D01*
X13894317Y-15296515D02*
X13875270Y-15296515D01*
X13875270Y-15296515D02*
X13856222Y-15286991D01*
X13856222Y-15286991D02*
X13846698Y-15277467D01*
X13846698Y-15277467D02*
X13837174Y-15258420D01*
X13837174Y-15258420D02*
X13827651Y-15220325D01*
X13827651Y-15220325D02*
X13827651Y-15172705D01*
X13827651Y-15172705D02*
X13837174Y-15134610D01*
X13837174Y-15134610D02*
X13846698Y-15115563D01*
X13846698Y-15115563D02*
X13856222Y-15106039D01*
X13856222Y-15106039D02*
X13875270Y-15096515D01*
X14065746Y-15096515D02*
X14084794Y-15096515D01*
X14084794Y-15096515D02*
X14103841Y-15106039D01*
X14103841Y-15106039D02*
X14113365Y-15115563D01*
X14113365Y-15115563D02*
X14122889Y-15134610D01*
X14122889Y-15134610D02*
X14132413Y-15172705D01*
X14132413Y-15172705D02*
X14132413Y-15220325D01*
X14132413Y-15220325D02*
X14122889Y-15258420D01*
X14122889Y-15258420D02*
X14113365Y-15277467D01*
X14113365Y-15277467D02*
X14103841Y-15286991D01*
X14103841Y-15286991D02*
X14084794Y-15296515D01*
X14084794Y-15296515D02*
X14065746Y-15296515D01*
X14065746Y-15296515D02*
X14046698Y-15286991D01*
X14046698Y-15286991D02*
X14037174Y-15277467D01*
X14037174Y-15277467D02*
X14027651Y-15258420D01*
X14027651Y-15258420D02*
X14018127Y-15220325D01*
X14018127Y-15220325D02*
X14018127Y-15172705D01*
X14018127Y-15172705D02*
X14027651Y-15134610D01*
X14027651Y-15134610D02*
X14037174Y-15115563D01*
X14037174Y-15115563D02*
X14046698Y-15106039D01*
X14046698Y-15106039D02*
X14065746Y-15096515D01*
X14208603Y-15096515D02*
X14208603Y-15134610D01*
X14284794Y-15096515D02*
X14284794Y-15134610D01*
X14580032Y-15372705D02*
X14570508Y-15363182D01*
X14570508Y-15363182D02*
X14551460Y-15334610D01*
X14551460Y-15334610D02*
X14541936Y-15315563D01*
X14541936Y-15315563D02*
X14532413Y-15286991D01*
X14532413Y-15286991D02*
X14522889Y-15239372D01*
X14522889Y-15239372D02*
X14522889Y-15201277D01*
X14522889Y-15201277D02*
X14532413Y-15153658D01*
X14532413Y-15153658D02*
X14541936Y-15125086D01*
X14541936Y-15125086D02*
X14551460Y-15106039D01*
X14551460Y-15106039D02*
X14570508Y-15077467D01*
X14570508Y-15077467D02*
X14580032Y-15067944D01*
X14741936Y-15096515D02*
X14703841Y-15096515D01*
X14703841Y-15096515D02*
X14684794Y-15106039D01*
X14684794Y-15106039D02*
X14675270Y-15115563D01*
X14675270Y-15115563D02*
X14656222Y-15144134D01*
X14656222Y-15144134D02*
X14646698Y-15182229D01*
X14646698Y-15182229D02*
X14646698Y-15258420D01*
X14646698Y-15258420D02*
X14656222Y-15277467D01*
X14656222Y-15277467D02*
X14665746Y-15286991D01*
X14665746Y-15286991D02*
X14684794Y-15296515D01*
X14684794Y-15296515D02*
X14722889Y-15296515D01*
X14722889Y-15296515D02*
X14741936Y-15286991D01*
X14741936Y-15286991D02*
X14751460Y-15277467D01*
X14751460Y-15277467D02*
X14760984Y-15258420D01*
X14760984Y-15258420D02*
X14760984Y-15210801D01*
X14760984Y-15210801D02*
X14751460Y-15191753D01*
X14751460Y-15191753D02*
X14741936Y-15182229D01*
X14741936Y-15182229D02*
X14722889Y-15172705D01*
X14722889Y-15172705D02*
X14684794Y-15172705D01*
X14684794Y-15172705D02*
X14665746Y-15182229D01*
X14665746Y-15182229D02*
X14656222Y-15191753D01*
X14656222Y-15191753D02*
X14646698Y-15210801D01*
X14999079Y-15296515D02*
X14999079Y-15096515D01*
X15084794Y-15296515D02*
X15084794Y-15191753D01*
X15084794Y-15191753D02*
X15075270Y-15172705D01*
X15075270Y-15172705D02*
X15056222Y-15163182D01*
X15056222Y-15163182D02*
X15027651Y-15163182D01*
X15027651Y-15163182D02*
X15008603Y-15172705D01*
X15008603Y-15172705D02*
X14999079Y-15182229D01*
X15208603Y-15296515D02*
X15189556Y-15286991D01*
X15189556Y-15286991D02*
X15180032Y-15277467D01*
X15180032Y-15277467D02*
X15170508Y-15258420D01*
X15170508Y-15258420D02*
X15170508Y-15201277D01*
X15170508Y-15201277D02*
X15180032Y-15182229D01*
X15180032Y-15182229D02*
X15189556Y-15172705D01*
X15189556Y-15172705D02*
X15208603Y-15163182D01*
X15208603Y-15163182D02*
X15237175Y-15163182D01*
X15237175Y-15163182D02*
X15256222Y-15172705D01*
X15256222Y-15172705D02*
X15265746Y-15182229D01*
X15265746Y-15182229D02*
X15275270Y-15201277D01*
X15275270Y-15201277D02*
X15275270Y-15258420D01*
X15275270Y-15258420D02*
X15265746Y-15277467D01*
X15265746Y-15277467D02*
X15256222Y-15286991D01*
X15256222Y-15286991D02*
X15237175Y-15296515D01*
X15237175Y-15296515D02*
X15208603Y-15296515D01*
X15389556Y-15296515D02*
X15370508Y-15286991D01*
X15370508Y-15286991D02*
X15360984Y-15267944D01*
X15360984Y-15267944D02*
X15360984Y-15096515D01*
X15541937Y-15286991D02*
X15522889Y-15296515D01*
X15522889Y-15296515D02*
X15484794Y-15296515D01*
X15484794Y-15296515D02*
X15465746Y-15286991D01*
X15465746Y-15286991D02*
X15456222Y-15267944D01*
X15456222Y-15267944D02*
X15456222Y-15191753D01*
X15456222Y-15191753D02*
X15465746Y-15172705D01*
X15465746Y-15172705D02*
X15484794Y-15163182D01*
X15484794Y-15163182D02*
X15522889Y-15163182D01*
X15522889Y-15163182D02*
X15541937Y-15172705D01*
X15541937Y-15172705D02*
X15551460Y-15191753D01*
X15551460Y-15191753D02*
X15551460Y-15210801D01*
X15551460Y-15210801D02*
X15456222Y-15229848D01*
X15627651Y-15286991D02*
X15646698Y-15296515D01*
X15646698Y-15296515D02*
X15684794Y-15296515D01*
X15684794Y-15296515D02*
X15703841Y-15286991D01*
X15703841Y-15286991D02*
X15713365Y-15267944D01*
X15713365Y-15267944D02*
X15713365Y-15258420D01*
X15713365Y-15258420D02*
X15703841Y-15239372D01*
X15703841Y-15239372D02*
X15684794Y-15229848D01*
X15684794Y-15229848D02*
X15656222Y-15229848D01*
X15656222Y-15229848D02*
X15637175Y-15220325D01*
X15637175Y-15220325D02*
X15627651Y-15201277D01*
X15627651Y-15201277D02*
X15627651Y-15191753D01*
X15627651Y-15191753D02*
X15637175Y-15172705D01*
X15637175Y-15172705D02*
X15656222Y-15163182D01*
X15656222Y-15163182D02*
X15684794Y-15163182D01*
X15684794Y-15163182D02*
X15703841Y-15172705D01*
X15780032Y-15372705D02*
X15789556Y-15363182D01*
X15789556Y-15363182D02*
X15808603Y-15334610D01*
X15808603Y-15334610D02*
X15818127Y-15315563D01*
X15818127Y-15315563D02*
X15827651Y-15286991D01*
X15827651Y-15286991D02*
X15837175Y-15239372D01*
X15837175Y-15239372D02*
X15837175Y-15201277D01*
X15837175Y-15201277D02*
X15827651Y-15153658D01*
X15827651Y-15153658D02*
X15818127Y-15125086D01*
X15818127Y-15125086D02*
X15808603Y-15106039D01*
X15808603Y-15106039D02*
X15789556Y-15077467D01*
X15789556Y-15077467D02*
X15780032Y-15067944D01*
X16141937Y-15372705D02*
X16132413Y-15363182D01*
X16132413Y-15363182D02*
X16113365Y-15334610D01*
X16113365Y-15334610D02*
X16103841Y-15315563D01*
X16103841Y-15315563D02*
X16094318Y-15286991D01*
X16094318Y-15286991D02*
X16084794Y-15239372D01*
X16084794Y-15239372D02*
X16084794Y-15201277D01*
X16084794Y-15201277D02*
X16094318Y-15153658D01*
X16094318Y-15153658D02*
X16103841Y-15125086D01*
X16103841Y-15125086D02*
X16113365Y-15106039D01*
X16113365Y-15106039D02*
X16132413Y-15077467D01*
X16132413Y-15077467D02*
X16141937Y-15067944D01*
X16218127Y-15163182D02*
X16218127Y-15296515D01*
X16218127Y-15182229D02*
X16227651Y-15172705D01*
X16227651Y-15172705D02*
X16246698Y-15163182D01*
X16246698Y-15163182D02*
X16275270Y-15163182D01*
X16275270Y-15163182D02*
X16294318Y-15172705D01*
X16294318Y-15172705D02*
X16303841Y-15191753D01*
X16303841Y-15191753D02*
X16303841Y-15296515D01*
X16427651Y-15296515D02*
X16408603Y-15286991D01*
X16408603Y-15286991D02*
X16399079Y-15277467D01*
X16399079Y-15277467D02*
X16389556Y-15258420D01*
X16389556Y-15258420D02*
X16389556Y-15201277D01*
X16389556Y-15201277D02*
X16399079Y-15182229D01*
X16399079Y-15182229D02*
X16408603Y-15172705D01*
X16408603Y-15172705D02*
X16427651Y-15163182D01*
X16427651Y-15163182D02*
X16456222Y-15163182D01*
X16456222Y-15163182D02*
X16475270Y-15172705D01*
X16475270Y-15172705D02*
X16484794Y-15182229D01*
X16484794Y-15182229D02*
X16494318Y-15201277D01*
X16494318Y-15201277D02*
X16494318Y-15258420D01*
X16494318Y-15258420D02*
X16484794Y-15277467D01*
X16484794Y-15277467D02*
X16475270Y-15286991D01*
X16475270Y-15286991D02*
X16456222Y-15296515D01*
X16456222Y-15296515D02*
X16427651Y-15296515D01*
X16551460Y-15163182D02*
X16627651Y-15163182D01*
X16580032Y-15096515D02*
X16580032Y-15267944D01*
X16580032Y-15267944D02*
X16589556Y-15286991D01*
X16589556Y-15286991D02*
X16608603Y-15296515D01*
X16608603Y-15296515D02*
X16627651Y-15296515D01*
X16846699Y-15163182D02*
X16846699Y-15363182D01*
X16846699Y-15172705D02*
X16865746Y-15163182D01*
X16865746Y-15163182D02*
X16903842Y-15163182D01*
X16903842Y-15163182D02*
X16922889Y-15172705D01*
X16922889Y-15172705D02*
X16932413Y-15182229D01*
X16932413Y-15182229D02*
X16941937Y-15201277D01*
X16941937Y-15201277D02*
X16941937Y-15258420D01*
X16941937Y-15258420D02*
X16932413Y-15277467D01*
X16932413Y-15277467D02*
X16922889Y-15286991D01*
X16922889Y-15286991D02*
X16903842Y-15296515D01*
X16903842Y-15296515D02*
X16865746Y-15296515D01*
X16865746Y-15296515D02*
X16846699Y-15286991D01*
X17056222Y-15296515D02*
X17037175Y-15286991D01*
X17037175Y-15286991D02*
X17027651Y-15267944D01*
X17027651Y-15267944D02*
X17027651Y-15096515D01*
X17218127Y-15296515D02*
X17218127Y-15191753D01*
X17218127Y-15191753D02*
X17208603Y-15172705D01*
X17208603Y-15172705D02*
X17189556Y-15163182D01*
X17189556Y-15163182D02*
X17151461Y-15163182D01*
X17151461Y-15163182D02*
X17132413Y-15172705D01*
X17218127Y-15286991D02*
X17199080Y-15296515D01*
X17199080Y-15296515D02*
X17151461Y-15296515D01*
X17151461Y-15296515D02*
X17132413Y-15286991D01*
X17132413Y-15286991D02*
X17122889Y-15267944D01*
X17122889Y-15267944D02*
X17122889Y-15248896D01*
X17122889Y-15248896D02*
X17132413Y-15229848D01*
X17132413Y-15229848D02*
X17151461Y-15220325D01*
X17151461Y-15220325D02*
X17199080Y-15220325D01*
X17199080Y-15220325D02*
X17218127Y-15210801D01*
X17284794Y-15163182D02*
X17360984Y-15163182D01*
X17313365Y-15096515D02*
X17313365Y-15267944D01*
X17313365Y-15267944D02*
X17322889Y-15286991D01*
X17322889Y-15286991D02*
X17341937Y-15296515D01*
X17341937Y-15296515D02*
X17360984Y-15296515D01*
X17503842Y-15286991D02*
X17484794Y-15296515D01*
X17484794Y-15296515D02*
X17446699Y-15296515D01*
X17446699Y-15296515D02*
X17427651Y-15286991D01*
X17427651Y-15286991D02*
X17418127Y-15267944D01*
X17418127Y-15267944D02*
X17418127Y-15191753D01*
X17418127Y-15191753D02*
X17427651Y-15172705D01*
X17427651Y-15172705D02*
X17446699Y-15163182D01*
X17446699Y-15163182D02*
X17484794Y-15163182D01*
X17484794Y-15163182D02*
X17503842Y-15172705D01*
X17503842Y-15172705D02*
X17513365Y-15191753D01*
X17513365Y-15191753D02*
X17513365Y-15210801D01*
X17513365Y-15210801D02*
X17418127Y-15229848D01*
X17684794Y-15296515D02*
X17684794Y-15096515D01*
X17684794Y-15286991D02*
X17665746Y-15296515D01*
X17665746Y-15296515D02*
X17627651Y-15296515D01*
X17627651Y-15296515D02*
X17608603Y-15286991D01*
X17608603Y-15286991D02*
X17599080Y-15277467D01*
X17599080Y-15277467D02*
X17589556Y-15258420D01*
X17589556Y-15258420D02*
X17589556Y-15201277D01*
X17589556Y-15201277D02*
X17599080Y-15182229D01*
X17599080Y-15182229D02*
X17608603Y-15172705D01*
X17608603Y-15172705D02*
X17627651Y-15163182D01*
X17627651Y-15163182D02*
X17665746Y-15163182D01*
X17665746Y-15163182D02*
X17684794Y-15172705D01*
X17760984Y-15372705D02*
X17770508Y-15363182D01*
X17770508Y-15363182D02*
X17789556Y-15334610D01*
X17789556Y-15334610D02*
X17799080Y-15315563D01*
X17799080Y-15315563D02*
X17808603Y-15286991D01*
X17808603Y-15286991D02*
X17818127Y-15239372D01*
X17818127Y-15239372D02*
X17818127Y-15201277D01*
X17818127Y-15201277D02*
X17808603Y-15153658D01*
X17808603Y-15153658D02*
X17799080Y-15125086D01*
X17799080Y-15125086D02*
X17789556Y-15106039D01*
X17789556Y-15106039D02*
X17770508Y-15077467D01*
X17770508Y-15077467D02*
X17760984Y-15067944D01*
X11004969Y-15469031D02*
G75*
G02*
X10804969Y-15469031I-100000J0D01*
G01*
X10804969Y-15469031D02*
G75*
G02*
X11004969Y-15469031I100000J0D01*
G01*
X11246698Y-15360515D02*
X11370508Y-15360515D01*
X11370508Y-15360515D02*
X11303841Y-15436705D01*
X11303841Y-15436705D02*
X11332412Y-15436705D01*
X11332412Y-15436705D02*
X11351460Y-15446229D01*
X11351460Y-15446229D02*
X11360984Y-15455753D01*
X11360984Y-15455753D02*
X11370508Y-15474801D01*
X11370508Y-15474801D02*
X11370508Y-15522420D01*
X11370508Y-15522420D02*
X11360984Y-15541467D01*
X11360984Y-15541467D02*
X11351460Y-15550991D01*
X11351460Y-15550991D02*
X11332412Y-15560515D01*
X11332412Y-15560515D02*
X11275269Y-15560515D01*
X11275269Y-15560515D02*
X11256222Y-15550991D01*
X11256222Y-15550991D02*
X11246698Y-15541467D01*
X11456222Y-15541467D02*
X11465746Y-15550991D01*
X11465746Y-15550991D02*
X11456222Y-15560515D01*
X11456222Y-15560515D02*
X11446698Y-15550991D01*
X11446698Y-15550991D02*
X11456222Y-15541467D01*
X11456222Y-15541467D02*
X11456222Y-15560515D01*
X11541936Y-15379563D02*
X11551460Y-15370039D01*
X11551460Y-15370039D02*
X11570508Y-15360515D01*
X11570508Y-15360515D02*
X11618127Y-15360515D01*
X11618127Y-15360515D02*
X11637174Y-15370039D01*
X11637174Y-15370039D02*
X11646698Y-15379563D01*
X11646698Y-15379563D02*
X11656222Y-15398610D01*
X11656222Y-15398610D02*
X11656222Y-15417658D01*
X11656222Y-15417658D02*
X11646698Y-15446229D01*
X11646698Y-15446229D02*
X11532412Y-15560515D01*
X11532412Y-15560515D02*
X11656222Y-15560515D01*
X11780031Y-15360515D02*
X11799079Y-15360515D01*
X11799079Y-15360515D02*
X11818127Y-15370039D01*
X11818127Y-15370039D02*
X11827650Y-15379563D01*
X11827650Y-15379563D02*
X11837174Y-15398610D01*
X11837174Y-15398610D02*
X11846698Y-15436705D01*
X11846698Y-15436705D02*
X11846698Y-15484325D01*
X11846698Y-15484325D02*
X11837174Y-15522420D01*
X11837174Y-15522420D02*
X11827650Y-15541467D01*
X11827650Y-15541467D02*
X11818127Y-15550991D01*
X11818127Y-15550991D02*
X11799079Y-15560515D01*
X11799079Y-15560515D02*
X11780031Y-15560515D01*
X11780031Y-15560515D02*
X11760984Y-15550991D01*
X11760984Y-15550991D02*
X11751460Y-15541467D01*
X11751460Y-15541467D02*
X11741936Y-15522420D01*
X11741936Y-15522420D02*
X11732412Y-15484325D01*
X11732412Y-15484325D02*
X11732412Y-15436705D01*
X11732412Y-15436705D02*
X11741936Y-15398610D01*
X11741936Y-15398610D02*
X11751460Y-15379563D01*
X11751460Y-15379563D02*
X11760984Y-15370039D01*
X11760984Y-15370039D02*
X11780031Y-15360515D01*
X11970508Y-15360515D02*
X11989555Y-15360515D01*
X11989555Y-15360515D02*
X12008603Y-15370039D01*
X12008603Y-15370039D02*
X12018127Y-15379563D01*
X12018127Y-15379563D02*
X12027650Y-15398610D01*
X12027650Y-15398610D02*
X12037174Y-15436705D01*
X12037174Y-15436705D02*
X12037174Y-15484325D01*
X12037174Y-15484325D02*
X12027650Y-15522420D01*
X12027650Y-15522420D02*
X12018127Y-15541467D01*
X12018127Y-15541467D02*
X12008603Y-15550991D01*
X12008603Y-15550991D02*
X11989555Y-15560515D01*
X11989555Y-15560515D02*
X11970508Y-15560515D01*
X11970508Y-15560515D02*
X11951460Y-15550991D01*
X11951460Y-15550991D02*
X11941936Y-15541467D01*
X11941936Y-15541467D02*
X11932412Y-15522420D01*
X11932412Y-15522420D02*
X11922889Y-15484325D01*
X11922889Y-15484325D02*
X11922889Y-15436705D01*
X11922889Y-15436705D02*
X11932412Y-15398610D01*
X11932412Y-15398610D02*
X11941936Y-15379563D01*
X11941936Y-15379563D02*
X11951460Y-15370039D01*
X11951460Y-15370039D02*
X11970508Y-15360515D01*
X12122889Y-15560515D02*
X12122889Y-15427182D01*
X12122889Y-15446229D02*
X12132412Y-15436705D01*
X12132412Y-15436705D02*
X12151460Y-15427182D01*
X12151460Y-15427182D02*
X12180031Y-15427182D01*
X12180031Y-15427182D02*
X12199079Y-15436705D01*
X12199079Y-15436705D02*
X12208603Y-15455753D01*
X12208603Y-15455753D02*
X12208603Y-15560515D01*
X12208603Y-15455753D02*
X12218127Y-15436705D01*
X12218127Y-15436705D02*
X12237174Y-15427182D01*
X12237174Y-15427182D02*
X12265746Y-15427182D01*
X12265746Y-15427182D02*
X12284793Y-15436705D01*
X12284793Y-15436705D02*
X12294317Y-15455753D01*
X12294317Y-15455753D02*
X12294317Y-15560515D01*
X12389555Y-15560515D02*
X12389555Y-15427182D01*
X12389555Y-15446229D02*
X12399079Y-15436705D01*
X12399079Y-15436705D02*
X12418127Y-15427182D01*
X12418127Y-15427182D02*
X12446698Y-15427182D01*
X12446698Y-15427182D02*
X12465746Y-15436705D01*
X12465746Y-15436705D02*
X12475270Y-15455753D01*
X12475270Y-15455753D02*
X12475270Y-15560515D01*
X12475270Y-15455753D02*
X12484793Y-15436705D01*
X12484793Y-15436705D02*
X12503841Y-15427182D01*
X12503841Y-15427182D02*
X12532412Y-15427182D01*
X12532412Y-15427182D02*
X12551460Y-15436705D01*
X12551460Y-15436705D02*
X12560984Y-15455753D01*
X12560984Y-15455753D02*
X12560984Y-15560515D01*
X12951460Y-15350991D02*
X12780032Y-15608134D01*
X13208603Y-15360515D02*
X13227651Y-15360515D01*
X13227651Y-15360515D02*
X13246698Y-15370039D01*
X13246698Y-15370039D02*
X13256222Y-15379563D01*
X13256222Y-15379563D02*
X13265746Y-15398610D01*
X13265746Y-15398610D02*
X13275270Y-15436705D01*
X13275270Y-15436705D02*
X13275270Y-15484325D01*
X13275270Y-15484325D02*
X13265746Y-15522420D01*
X13265746Y-15522420D02*
X13256222Y-15541467D01*
X13256222Y-15541467D02*
X13246698Y-15550991D01*
X13246698Y-15550991D02*
X13227651Y-15560515D01*
X13227651Y-15560515D02*
X13208603Y-15560515D01*
X13208603Y-15560515D02*
X13189555Y-15550991D01*
X13189555Y-15550991D02*
X13180032Y-15541467D01*
X13180032Y-15541467D02*
X13170508Y-15522420D01*
X13170508Y-15522420D02*
X13160984Y-15484325D01*
X13160984Y-15484325D02*
X13160984Y-15436705D01*
X13160984Y-15436705D02*
X13170508Y-15398610D01*
X13170508Y-15398610D02*
X13180032Y-15379563D01*
X13180032Y-15379563D02*
X13189555Y-15370039D01*
X13189555Y-15370039D02*
X13208603Y-15360515D01*
X13360984Y-15541467D02*
X13370508Y-15550991D01*
X13370508Y-15550991D02*
X13360984Y-15560515D01*
X13360984Y-15560515D02*
X13351460Y-15550991D01*
X13351460Y-15550991D02*
X13360984Y-15541467D01*
X13360984Y-15541467D02*
X13360984Y-15560515D01*
X13560984Y-15560515D02*
X13446698Y-15560515D01*
X13503841Y-15560515D02*
X13503841Y-15360515D01*
X13503841Y-15360515D02*
X13484793Y-15389086D01*
X13484793Y-15389086D02*
X13465746Y-15408134D01*
X13465746Y-15408134D02*
X13446698Y-15417658D01*
X13637174Y-15379563D02*
X13646698Y-15370039D01*
X13646698Y-15370039D02*
X13665746Y-15360515D01*
X13665746Y-15360515D02*
X13713365Y-15360515D01*
X13713365Y-15360515D02*
X13732413Y-15370039D01*
X13732413Y-15370039D02*
X13741936Y-15379563D01*
X13741936Y-15379563D02*
X13751460Y-15398610D01*
X13751460Y-15398610D02*
X13751460Y-15417658D01*
X13751460Y-15417658D02*
X13741936Y-15446229D01*
X13741936Y-15446229D02*
X13627651Y-15560515D01*
X13627651Y-15560515D02*
X13751460Y-15560515D01*
X13922889Y-15360515D02*
X13884793Y-15360515D01*
X13884793Y-15360515D02*
X13865746Y-15370039D01*
X13865746Y-15370039D02*
X13856222Y-15379563D01*
X13856222Y-15379563D02*
X13837174Y-15408134D01*
X13837174Y-15408134D02*
X13827651Y-15446229D01*
X13827651Y-15446229D02*
X13827651Y-15522420D01*
X13827651Y-15522420D02*
X13837174Y-15541467D01*
X13837174Y-15541467D02*
X13846698Y-15550991D01*
X13846698Y-15550991D02*
X13865746Y-15560515D01*
X13865746Y-15560515D02*
X13903841Y-15560515D01*
X13903841Y-15560515D02*
X13922889Y-15550991D01*
X13922889Y-15550991D02*
X13932413Y-15541467D01*
X13932413Y-15541467D02*
X13941936Y-15522420D01*
X13941936Y-15522420D02*
X13941936Y-15474801D01*
X13941936Y-15474801D02*
X13932413Y-15455753D01*
X13932413Y-15455753D02*
X13922889Y-15446229D01*
X13922889Y-15446229D02*
X13903841Y-15436705D01*
X13903841Y-15436705D02*
X13865746Y-15436705D01*
X13865746Y-15436705D02*
X13846698Y-15446229D01*
X13846698Y-15446229D02*
X13837174Y-15455753D01*
X13837174Y-15455753D02*
X13827651Y-15474801D01*
X14065746Y-15360515D02*
X14084794Y-15360515D01*
X14084794Y-15360515D02*
X14103841Y-15370039D01*
X14103841Y-15370039D02*
X14113365Y-15379563D01*
X14113365Y-15379563D02*
X14122889Y-15398610D01*
X14122889Y-15398610D02*
X14132413Y-15436705D01*
X14132413Y-15436705D02*
X14132413Y-15484325D01*
X14132413Y-15484325D02*
X14122889Y-15522420D01*
X14122889Y-15522420D02*
X14113365Y-15541467D01*
X14113365Y-15541467D02*
X14103841Y-15550991D01*
X14103841Y-15550991D02*
X14084794Y-15560515D01*
X14084794Y-15560515D02*
X14065746Y-15560515D01*
X14065746Y-15560515D02*
X14046698Y-15550991D01*
X14046698Y-15550991D02*
X14037174Y-15541467D01*
X14037174Y-15541467D02*
X14027651Y-15522420D01*
X14027651Y-15522420D02*
X14018127Y-15484325D01*
X14018127Y-15484325D02*
X14018127Y-15436705D01*
X14018127Y-15436705D02*
X14027651Y-15398610D01*
X14027651Y-15398610D02*
X14037174Y-15379563D01*
X14037174Y-15379563D02*
X14046698Y-15370039D01*
X14046698Y-15370039D02*
X14065746Y-15360515D01*
X14208603Y-15360515D02*
X14208603Y-15398610D01*
X14284794Y-15360515D02*
X14284794Y-15398610D01*
X14580032Y-15636705D02*
X14570508Y-15627182D01*
X14570508Y-15627182D02*
X14551460Y-15598610D01*
X14551460Y-15598610D02*
X14541936Y-15579563D01*
X14541936Y-15579563D02*
X14532413Y-15550991D01*
X14532413Y-15550991D02*
X14522889Y-15503372D01*
X14522889Y-15503372D02*
X14522889Y-15465277D01*
X14522889Y-15465277D02*
X14532413Y-15417658D01*
X14532413Y-15417658D02*
X14541936Y-15389086D01*
X14541936Y-15389086D02*
X14551460Y-15370039D01*
X14551460Y-15370039D02*
X14570508Y-15341467D01*
X14570508Y-15341467D02*
X14580032Y-15331944D01*
X14741936Y-15427182D02*
X14741936Y-15560515D01*
X14694317Y-15350991D02*
X14646698Y-15493848D01*
X14646698Y-15493848D02*
X14770508Y-15493848D01*
X14999079Y-15560515D02*
X14999079Y-15360515D01*
X15084794Y-15560515D02*
X15084794Y-15455753D01*
X15084794Y-15455753D02*
X15075270Y-15436705D01*
X15075270Y-15436705D02*
X15056222Y-15427182D01*
X15056222Y-15427182D02*
X15027651Y-15427182D01*
X15027651Y-15427182D02*
X15008603Y-15436705D01*
X15008603Y-15436705D02*
X14999079Y-15446229D01*
X15208603Y-15560515D02*
X15189556Y-15550991D01*
X15189556Y-15550991D02*
X15180032Y-15541467D01*
X15180032Y-15541467D02*
X15170508Y-15522420D01*
X15170508Y-15522420D02*
X15170508Y-15465277D01*
X15170508Y-15465277D02*
X15180032Y-15446229D01*
X15180032Y-15446229D02*
X15189556Y-15436705D01*
X15189556Y-15436705D02*
X15208603Y-15427182D01*
X15208603Y-15427182D02*
X15237175Y-15427182D01*
X15237175Y-15427182D02*
X15256222Y-15436705D01*
X15256222Y-15436705D02*
X15265746Y-15446229D01*
X15265746Y-15446229D02*
X15275270Y-15465277D01*
X15275270Y-15465277D02*
X15275270Y-15522420D01*
X15275270Y-15522420D02*
X15265746Y-15541467D01*
X15265746Y-15541467D02*
X15256222Y-15550991D01*
X15256222Y-15550991D02*
X15237175Y-15560515D01*
X15237175Y-15560515D02*
X15208603Y-15560515D01*
X15389556Y-15560515D02*
X15370508Y-15550991D01*
X15370508Y-15550991D02*
X15360984Y-15531944D01*
X15360984Y-15531944D02*
X15360984Y-15360515D01*
X15541937Y-15550991D02*
X15522889Y-15560515D01*
X15522889Y-15560515D02*
X15484794Y-15560515D01*
X15484794Y-15560515D02*
X15465746Y-15550991D01*
X15465746Y-15550991D02*
X15456222Y-15531944D01*
X15456222Y-15531944D02*
X15456222Y-15455753D01*
X15456222Y-15455753D02*
X15465746Y-15436705D01*
X15465746Y-15436705D02*
X15484794Y-15427182D01*
X15484794Y-15427182D02*
X15522889Y-15427182D01*
X15522889Y-15427182D02*
X15541937Y-15436705D01*
X15541937Y-15436705D02*
X15551460Y-15455753D01*
X15551460Y-15455753D02*
X15551460Y-15474801D01*
X15551460Y-15474801D02*
X15456222Y-15493848D01*
X15627651Y-15550991D02*
X15646698Y-15560515D01*
X15646698Y-15560515D02*
X15684794Y-15560515D01*
X15684794Y-15560515D02*
X15703841Y-15550991D01*
X15703841Y-15550991D02*
X15713365Y-15531944D01*
X15713365Y-15531944D02*
X15713365Y-15522420D01*
X15713365Y-15522420D02*
X15703841Y-15503372D01*
X15703841Y-15503372D02*
X15684794Y-15493848D01*
X15684794Y-15493848D02*
X15656222Y-15493848D01*
X15656222Y-15493848D02*
X15637175Y-15484325D01*
X15637175Y-15484325D02*
X15627651Y-15465277D01*
X15627651Y-15465277D02*
X15627651Y-15455753D01*
X15627651Y-15455753D02*
X15637175Y-15436705D01*
X15637175Y-15436705D02*
X15656222Y-15427182D01*
X15656222Y-15427182D02*
X15684794Y-15427182D01*
X15684794Y-15427182D02*
X15703841Y-15436705D01*
X15780032Y-15636705D02*
X15789556Y-15627182D01*
X15789556Y-15627182D02*
X15808603Y-15598610D01*
X15808603Y-15598610D02*
X15818127Y-15579563D01*
X15818127Y-15579563D02*
X15827651Y-15550991D01*
X15827651Y-15550991D02*
X15837175Y-15503372D01*
X15837175Y-15503372D02*
X15837175Y-15465277D01*
X15837175Y-15465277D02*
X15827651Y-15417658D01*
X15827651Y-15417658D02*
X15818127Y-15389086D01*
X15818127Y-15389086D02*
X15808603Y-15370039D01*
X15808603Y-15370039D02*
X15789556Y-15341467D01*
X15789556Y-15341467D02*
X15780032Y-15331944D01*
X16141937Y-15636705D02*
X16132413Y-15627182D01*
X16132413Y-15627182D02*
X16113365Y-15598610D01*
X16113365Y-15598610D02*
X16103841Y-15579563D01*
X16103841Y-15579563D02*
X16094318Y-15550991D01*
X16094318Y-15550991D02*
X16084794Y-15503372D01*
X16084794Y-15503372D02*
X16084794Y-15465277D01*
X16084794Y-15465277D02*
X16094318Y-15417658D01*
X16094318Y-15417658D02*
X16103841Y-15389086D01*
X16103841Y-15389086D02*
X16113365Y-15370039D01*
X16113365Y-15370039D02*
X16132413Y-15341467D01*
X16132413Y-15341467D02*
X16141937Y-15331944D01*
X16218127Y-15427182D02*
X16218127Y-15560515D01*
X16218127Y-15446229D02*
X16227651Y-15436705D01*
X16227651Y-15436705D02*
X16246698Y-15427182D01*
X16246698Y-15427182D02*
X16275270Y-15427182D01*
X16275270Y-15427182D02*
X16294318Y-15436705D01*
X16294318Y-15436705D02*
X16303841Y-15455753D01*
X16303841Y-15455753D02*
X16303841Y-15560515D01*
X16427651Y-15560515D02*
X16408603Y-15550991D01*
X16408603Y-15550991D02*
X16399079Y-15541467D01*
X16399079Y-15541467D02*
X16389556Y-15522420D01*
X16389556Y-15522420D02*
X16389556Y-15465277D01*
X16389556Y-15465277D02*
X16399079Y-15446229D01*
X16399079Y-15446229D02*
X16408603Y-15436705D01*
X16408603Y-15436705D02*
X16427651Y-15427182D01*
X16427651Y-15427182D02*
X16456222Y-15427182D01*
X16456222Y-15427182D02*
X16475270Y-15436705D01*
X16475270Y-15436705D02*
X16484794Y-15446229D01*
X16484794Y-15446229D02*
X16494318Y-15465277D01*
X16494318Y-15465277D02*
X16494318Y-15522420D01*
X16494318Y-15522420D02*
X16484794Y-15541467D01*
X16484794Y-15541467D02*
X16475270Y-15550991D01*
X16475270Y-15550991D02*
X16456222Y-15560515D01*
X16456222Y-15560515D02*
X16427651Y-15560515D01*
X16551460Y-15427182D02*
X16627651Y-15427182D01*
X16580032Y-15360515D02*
X16580032Y-15531944D01*
X16580032Y-15531944D02*
X16589556Y-15550991D01*
X16589556Y-15550991D02*
X16608603Y-15560515D01*
X16608603Y-15560515D02*
X16627651Y-15560515D01*
X16846699Y-15427182D02*
X16846699Y-15627182D01*
X16846699Y-15436705D02*
X16865746Y-15427182D01*
X16865746Y-15427182D02*
X16903842Y-15427182D01*
X16903842Y-15427182D02*
X16922889Y-15436705D01*
X16922889Y-15436705D02*
X16932413Y-15446229D01*
X16932413Y-15446229D02*
X16941937Y-15465277D01*
X16941937Y-15465277D02*
X16941937Y-15522420D01*
X16941937Y-15522420D02*
X16932413Y-15541467D01*
X16932413Y-15541467D02*
X16922889Y-15550991D01*
X16922889Y-15550991D02*
X16903842Y-15560515D01*
X16903842Y-15560515D02*
X16865746Y-15560515D01*
X16865746Y-15560515D02*
X16846699Y-15550991D01*
X17056222Y-15560515D02*
X17037175Y-15550991D01*
X17037175Y-15550991D02*
X17027651Y-15531944D01*
X17027651Y-15531944D02*
X17027651Y-15360515D01*
X17218127Y-15560515D02*
X17218127Y-15455753D01*
X17218127Y-15455753D02*
X17208603Y-15436705D01*
X17208603Y-15436705D02*
X17189556Y-15427182D01*
X17189556Y-15427182D02*
X17151461Y-15427182D01*
X17151461Y-15427182D02*
X17132413Y-15436705D01*
X17218127Y-15550991D02*
X17199080Y-15560515D01*
X17199080Y-15560515D02*
X17151461Y-15560515D01*
X17151461Y-15560515D02*
X17132413Y-15550991D01*
X17132413Y-15550991D02*
X17122889Y-15531944D01*
X17122889Y-15531944D02*
X17122889Y-15512896D01*
X17122889Y-15512896D02*
X17132413Y-15493848D01*
X17132413Y-15493848D02*
X17151461Y-15484325D01*
X17151461Y-15484325D02*
X17199080Y-15484325D01*
X17199080Y-15484325D02*
X17218127Y-15474801D01*
X17284794Y-15427182D02*
X17360984Y-15427182D01*
X17313365Y-15360515D02*
X17313365Y-15531944D01*
X17313365Y-15531944D02*
X17322889Y-15550991D01*
X17322889Y-15550991D02*
X17341937Y-15560515D01*
X17341937Y-15560515D02*
X17360984Y-15560515D01*
X17503842Y-15550991D02*
X17484794Y-15560515D01*
X17484794Y-15560515D02*
X17446699Y-15560515D01*
X17446699Y-15560515D02*
X17427651Y-15550991D01*
X17427651Y-15550991D02*
X17418127Y-15531944D01*
X17418127Y-15531944D02*
X17418127Y-15455753D01*
X17418127Y-15455753D02*
X17427651Y-15436705D01*
X17427651Y-15436705D02*
X17446699Y-15427182D01*
X17446699Y-15427182D02*
X17484794Y-15427182D01*
X17484794Y-15427182D02*
X17503842Y-15436705D01*
X17503842Y-15436705D02*
X17513365Y-15455753D01*
X17513365Y-15455753D02*
X17513365Y-15474801D01*
X17513365Y-15474801D02*
X17418127Y-15493848D01*
X17684794Y-15560515D02*
X17684794Y-15360515D01*
X17684794Y-15550991D02*
X17665746Y-15560515D01*
X17665746Y-15560515D02*
X17627651Y-15560515D01*
X17627651Y-15560515D02*
X17608603Y-15550991D01*
X17608603Y-15550991D02*
X17599080Y-15541467D01*
X17599080Y-15541467D02*
X17589556Y-15522420D01*
X17589556Y-15522420D02*
X17589556Y-15465277D01*
X17589556Y-15465277D02*
X17599080Y-15446229D01*
X17599080Y-15446229D02*
X17608603Y-15436705D01*
X17608603Y-15436705D02*
X17627651Y-15427182D01*
X17627651Y-15427182D02*
X17665746Y-15427182D01*
X17665746Y-15427182D02*
X17684794Y-15436705D01*
X17760984Y-15636705D02*
X17770508Y-15627182D01*
X17770508Y-15627182D02*
X17789556Y-15598610D01*
X17789556Y-15598610D02*
X17799080Y-15579563D01*
X17799080Y-15579563D02*
X17808603Y-15550991D01*
X17808603Y-15550991D02*
X17818127Y-15503372D01*
X17818127Y-15503372D02*
X17818127Y-15465277D01*
X17818127Y-15465277D02*
X17808603Y-15417658D01*
X17808603Y-15417658D02*
X17799080Y-15389086D01*
X17799080Y-15389086D02*
X17789556Y-15370039D01*
X17789556Y-15370039D02*
X17770508Y-15341467D01*
X17770508Y-15341467D02*
X17760984Y-15331944D01*
M02*
