%TF.GenerationSoftware,KiCad,Pcbnew,8.0.5*%
%TF.CreationDate,2024-10-14T21:46:28-05:00*%
%TF.ProjectId,USBCPowerPCB,55534243-506f-4776-9572-5043422e6b69,rev?*%
%TF.SameCoordinates,Original*%
%TF.FileFunction,Drillmap*%
%TF.FilePolarity,Positive*%
%FSLAX45Y45*%
G04 Gerber Fmt 4.5, Leading zero omitted, Abs format (unit mm)*
G04 Created by KiCad (PCBNEW 8.0.5) date 2024-10-14 21:46:28*
%MOMM*%
%LPD*%
G01*
G04 APERTURE LIST*
%ADD10C,0.100000*%
%ADD11C,0.200000*%
%ADD12C,0.127000*%
%ADD13C,0.320000*%
G04 APERTURE END LIST*
D10*
X11405012Y-14560000D02*
G75*
G02*
X11010000Y-14164980I4988J400000D01*
G01*
X17785000Y-14160000D02*
G75*
G02*
X17385000Y-14560000I-400000J0D01*
G01*
X17384998Y-8309969D02*
G75*
G02*
X17785000Y-8714996I2J-400031D01*
G01*
X11409998Y-8310000D02*
X17384998Y-8309969D01*
X11010000Y-8710000D02*
G75*
G02*
X11409998Y-8310000I400000J0D01*
G01*
X17385000Y-14560000D02*
X11405012Y-14560000D01*
X17785000Y-8714996D02*
X17785000Y-14160000D01*
X11010000Y-8710000D02*
X11010000Y-14164980D01*
D11*
D10*
X13891000Y-14031000D02*
X13951000Y-14091000D01*
X13951000Y-14031000D02*
X13891000Y-14091000D01*
X14469000Y-14031000D02*
X14529000Y-14091000D01*
X14529000Y-14031000D02*
X14469000Y-14091000D01*
D12*
X11262500Y-9590000D02*
G75*
G02*
X11135500Y-9590000I-63500J0D01*
G01*
X11135500Y-9590000D02*
G75*
G02*
X11262500Y-9590000I63500J0D01*
G01*
X11262500Y-10490000D02*
G75*
G02*
X11135500Y-10490000I-63500J0D01*
G01*
X11135500Y-10490000D02*
G75*
G02*
X11262500Y-10490000I63500J0D01*
G01*
X17654500Y-9490000D02*
G75*
G02*
X17527500Y-9490000I-63500J0D01*
G01*
X17527500Y-9490000D02*
G75*
G02*
X17654500Y-9490000I63500J0D01*
G01*
X17654500Y-10990000D02*
G75*
G02*
X17527500Y-10990000I-63500J0D01*
G01*
X17527500Y-10990000D02*
G75*
G02*
X17654500Y-10990000I63500J0D01*
G01*
X17659500Y-12599900D02*
G75*
G02*
X17532500Y-12599900I-63500J0D01*
G01*
X17532500Y-12599900D02*
G75*
G02*
X17659500Y-12599900I63500J0D01*
G01*
X17659500Y-13499900D02*
G75*
G02*
X17532500Y-13499900I-63500J0D01*
G01*
X17532500Y-13499900D02*
G75*
G02*
X17659500Y-13499900I63500J0D01*
G01*
D13*
X11410000Y-8550000D02*
X11410000Y-8870000D01*
X11250000Y-8710000D02*
X11570000Y-8710000D01*
X11410000Y-14000000D02*
X11410000Y-14320000D01*
X11250000Y-14160000D02*
X11570000Y-14160000D01*
X17385000Y-8550000D02*
X17385000Y-8870000D01*
X17225000Y-8710000D02*
X17545000Y-8710000D01*
X17385000Y-14000000D02*
X17385000Y-14320000D01*
X17225000Y-14160000D02*
X17545000Y-14160000D01*
D11*
X11265777Y-14876484D02*
X11265777Y-14676484D01*
X11265777Y-14676484D02*
X11313396Y-14676484D01*
X11313396Y-14676484D02*
X11341967Y-14686008D01*
X11341967Y-14686008D02*
X11361015Y-14705055D01*
X11361015Y-14705055D02*
X11370539Y-14724103D01*
X11370539Y-14724103D02*
X11380062Y-14762198D01*
X11380062Y-14762198D02*
X11380062Y-14790769D01*
X11380062Y-14790769D02*
X11370539Y-14828865D01*
X11370539Y-14828865D02*
X11361015Y-14847912D01*
X11361015Y-14847912D02*
X11341967Y-14866960D01*
X11341967Y-14866960D02*
X11313396Y-14876484D01*
X11313396Y-14876484D02*
X11265777Y-14876484D01*
X11465777Y-14876484D02*
X11465777Y-14743150D01*
X11465777Y-14781246D02*
X11475301Y-14762198D01*
X11475301Y-14762198D02*
X11484824Y-14752674D01*
X11484824Y-14752674D02*
X11503872Y-14743150D01*
X11503872Y-14743150D02*
X11522920Y-14743150D01*
X11589586Y-14876484D02*
X11589586Y-14743150D01*
X11589586Y-14676484D02*
X11580062Y-14686008D01*
X11580062Y-14686008D02*
X11589586Y-14695531D01*
X11589586Y-14695531D02*
X11599110Y-14686008D01*
X11599110Y-14686008D02*
X11589586Y-14676484D01*
X11589586Y-14676484D02*
X11589586Y-14695531D01*
X11713396Y-14876484D02*
X11694348Y-14866960D01*
X11694348Y-14866960D02*
X11684824Y-14847912D01*
X11684824Y-14847912D02*
X11684824Y-14676484D01*
X11818158Y-14876484D02*
X11799110Y-14866960D01*
X11799110Y-14866960D02*
X11789586Y-14847912D01*
X11789586Y-14847912D02*
X11789586Y-14676484D01*
X12046729Y-14876484D02*
X12046729Y-14676484D01*
X12046729Y-14676484D02*
X12113396Y-14819341D01*
X12113396Y-14819341D02*
X12180062Y-14676484D01*
X12180062Y-14676484D02*
X12180062Y-14876484D01*
X12361015Y-14876484D02*
X12361015Y-14771722D01*
X12361015Y-14771722D02*
X12351491Y-14752674D01*
X12351491Y-14752674D02*
X12332443Y-14743150D01*
X12332443Y-14743150D02*
X12294348Y-14743150D01*
X12294348Y-14743150D02*
X12275301Y-14752674D01*
X12361015Y-14866960D02*
X12341967Y-14876484D01*
X12341967Y-14876484D02*
X12294348Y-14876484D01*
X12294348Y-14876484D02*
X12275301Y-14866960D01*
X12275301Y-14866960D02*
X12265777Y-14847912D01*
X12265777Y-14847912D02*
X12265777Y-14828865D01*
X12265777Y-14828865D02*
X12275301Y-14809817D01*
X12275301Y-14809817D02*
X12294348Y-14800293D01*
X12294348Y-14800293D02*
X12341967Y-14800293D01*
X12341967Y-14800293D02*
X12361015Y-14790769D01*
X12456253Y-14743150D02*
X12456253Y-14943150D01*
X12456253Y-14752674D02*
X12475301Y-14743150D01*
X12475301Y-14743150D02*
X12513396Y-14743150D01*
X12513396Y-14743150D02*
X12532443Y-14752674D01*
X12532443Y-14752674D02*
X12541967Y-14762198D01*
X12541967Y-14762198D02*
X12551491Y-14781246D01*
X12551491Y-14781246D02*
X12551491Y-14838388D01*
X12551491Y-14838388D02*
X12541967Y-14857436D01*
X12541967Y-14857436D02*
X12532443Y-14866960D01*
X12532443Y-14866960D02*
X12513396Y-14876484D01*
X12513396Y-14876484D02*
X12475301Y-14876484D01*
X12475301Y-14876484D02*
X12456253Y-14866960D01*
X12637205Y-14857436D02*
X12646729Y-14866960D01*
X12646729Y-14866960D02*
X12637205Y-14876484D01*
X12637205Y-14876484D02*
X12627682Y-14866960D01*
X12627682Y-14866960D02*
X12637205Y-14857436D01*
X12637205Y-14857436D02*
X12637205Y-14876484D01*
X12637205Y-14752674D02*
X12646729Y-14762198D01*
X12646729Y-14762198D02*
X12637205Y-14771722D01*
X12637205Y-14771722D02*
X12627682Y-14762198D01*
X12627682Y-14762198D02*
X12637205Y-14752674D01*
X12637205Y-14752674D02*
X12637205Y-14771722D01*
D10*
X10945000Y-15175000D02*
X11005000Y-15235000D01*
X11005000Y-15175000D02*
X10945000Y-15235000D01*
D11*
X11303872Y-15096484D02*
X11322920Y-15096484D01*
X11322920Y-15096484D02*
X11341967Y-15106008D01*
X11341967Y-15106008D02*
X11351491Y-15115531D01*
X11351491Y-15115531D02*
X11361015Y-15134579D01*
X11361015Y-15134579D02*
X11370539Y-15172674D01*
X11370539Y-15172674D02*
X11370539Y-15220293D01*
X11370539Y-15220293D02*
X11361015Y-15258388D01*
X11361015Y-15258388D02*
X11351491Y-15277436D01*
X11351491Y-15277436D02*
X11341967Y-15286960D01*
X11341967Y-15286960D02*
X11322920Y-15296484D01*
X11322920Y-15296484D02*
X11303872Y-15296484D01*
X11303872Y-15296484D02*
X11284824Y-15286960D01*
X11284824Y-15286960D02*
X11275301Y-15277436D01*
X11275301Y-15277436D02*
X11265777Y-15258388D01*
X11265777Y-15258388D02*
X11256253Y-15220293D01*
X11256253Y-15220293D02*
X11256253Y-15172674D01*
X11256253Y-15172674D02*
X11265777Y-15134579D01*
X11265777Y-15134579D02*
X11275301Y-15115531D01*
X11275301Y-15115531D02*
X11284824Y-15106008D01*
X11284824Y-15106008D02*
X11303872Y-15096484D01*
X11456253Y-15277436D02*
X11465777Y-15286960D01*
X11465777Y-15286960D02*
X11456253Y-15296484D01*
X11456253Y-15296484D02*
X11446729Y-15286960D01*
X11446729Y-15286960D02*
X11456253Y-15277436D01*
X11456253Y-15277436D02*
X11456253Y-15296484D01*
X11637205Y-15096484D02*
X11599110Y-15096484D01*
X11599110Y-15096484D02*
X11580062Y-15106008D01*
X11580062Y-15106008D02*
X11570539Y-15115531D01*
X11570539Y-15115531D02*
X11551491Y-15144103D01*
X11551491Y-15144103D02*
X11541967Y-15182198D01*
X11541967Y-15182198D02*
X11541967Y-15258388D01*
X11541967Y-15258388D02*
X11551491Y-15277436D01*
X11551491Y-15277436D02*
X11561015Y-15286960D01*
X11561015Y-15286960D02*
X11580062Y-15296484D01*
X11580062Y-15296484D02*
X11618158Y-15296484D01*
X11618158Y-15296484D02*
X11637205Y-15286960D01*
X11637205Y-15286960D02*
X11646729Y-15277436D01*
X11646729Y-15277436D02*
X11656253Y-15258388D01*
X11656253Y-15258388D02*
X11656253Y-15210769D01*
X11656253Y-15210769D02*
X11646729Y-15191722D01*
X11646729Y-15191722D02*
X11637205Y-15182198D01*
X11637205Y-15182198D02*
X11618158Y-15172674D01*
X11618158Y-15172674D02*
X11580062Y-15172674D01*
X11580062Y-15172674D02*
X11561015Y-15182198D01*
X11561015Y-15182198D02*
X11551491Y-15191722D01*
X11551491Y-15191722D02*
X11541967Y-15210769D01*
X11780062Y-15096484D02*
X11799110Y-15096484D01*
X11799110Y-15096484D02*
X11818158Y-15106008D01*
X11818158Y-15106008D02*
X11827682Y-15115531D01*
X11827682Y-15115531D02*
X11837205Y-15134579D01*
X11837205Y-15134579D02*
X11846729Y-15172674D01*
X11846729Y-15172674D02*
X11846729Y-15220293D01*
X11846729Y-15220293D02*
X11837205Y-15258388D01*
X11837205Y-15258388D02*
X11827682Y-15277436D01*
X11827682Y-15277436D02*
X11818158Y-15286960D01*
X11818158Y-15286960D02*
X11799110Y-15296484D01*
X11799110Y-15296484D02*
X11780062Y-15296484D01*
X11780062Y-15296484D02*
X11761015Y-15286960D01*
X11761015Y-15286960D02*
X11751491Y-15277436D01*
X11751491Y-15277436D02*
X11741967Y-15258388D01*
X11741967Y-15258388D02*
X11732443Y-15220293D01*
X11732443Y-15220293D02*
X11732443Y-15172674D01*
X11732443Y-15172674D02*
X11741967Y-15134579D01*
X11741967Y-15134579D02*
X11751491Y-15115531D01*
X11751491Y-15115531D02*
X11761015Y-15106008D01*
X11761015Y-15106008D02*
X11780062Y-15096484D01*
X11970539Y-15096484D02*
X11989586Y-15096484D01*
X11989586Y-15096484D02*
X12008634Y-15106008D01*
X12008634Y-15106008D02*
X12018158Y-15115531D01*
X12018158Y-15115531D02*
X12027682Y-15134579D01*
X12027682Y-15134579D02*
X12037205Y-15172674D01*
X12037205Y-15172674D02*
X12037205Y-15220293D01*
X12037205Y-15220293D02*
X12027682Y-15258388D01*
X12027682Y-15258388D02*
X12018158Y-15277436D01*
X12018158Y-15277436D02*
X12008634Y-15286960D01*
X12008634Y-15286960D02*
X11989586Y-15296484D01*
X11989586Y-15296484D02*
X11970539Y-15296484D01*
X11970539Y-15296484D02*
X11951491Y-15286960D01*
X11951491Y-15286960D02*
X11941967Y-15277436D01*
X11941967Y-15277436D02*
X11932443Y-15258388D01*
X11932443Y-15258388D02*
X11922920Y-15220293D01*
X11922920Y-15220293D02*
X11922920Y-15172674D01*
X11922920Y-15172674D02*
X11932443Y-15134579D01*
X11932443Y-15134579D02*
X11941967Y-15115531D01*
X11941967Y-15115531D02*
X11951491Y-15106008D01*
X11951491Y-15106008D02*
X11970539Y-15096484D01*
X12122920Y-15296484D02*
X12122920Y-15163150D01*
X12122920Y-15182198D02*
X12132443Y-15172674D01*
X12132443Y-15172674D02*
X12151491Y-15163150D01*
X12151491Y-15163150D02*
X12180063Y-15163150D01*
X12180063Y-15163150D02*
X12199110Y-15172674D01*
X12199110Y-15172674D02*
X12208634Y-15191722D01*
X12208634Y-15191722D02*
X12208634Y-15296484D01*
X12208634Y-15191722D02*
X12218158Y-15172674D01*
X12218158Y-15172674D02*
X12237205Y-15163150D01*
X12237205Y-15163150D02*
X12265777Y-15163150D01*
X12265777Y-15163150D02*
X12284824Y-15172674D01*
X12284824Y-15172674D02*
X12294348Y-15191722D01*
X12294348Y-15191722D02*
X12294348Y-15296484D01*
X12389586Y-15296484D02*
X12389586Y-15163150D01*
X12389586Y-15182198D02*
X12399110Y-15172674D01*
X12399110Y-15172674D02*
X12418158Y-15163150D01*
X12418158Y-15163150D02*
X12446729Y-15163150D01*
X12446729Y-15163150D02*
X12465777Y-15172674D01*
X12465777Y-15172674D02*
X12475301Y-15191722D01*
X12475301Y-15191722D02*
X12475301Y-15296484D01*
X12475301Y-15191722D02*
X12484824Y-15172674D01*
X12484824Y-15172674D02*
X12503872Y-15163150D01*
X12503872Y-15163150D02*
X12532443Y-15163150D01*
X12532443Y-15163150D02*
X12551491Y-15172674D01*
X12551491Y-15172674D02*
X12561015Y-15191722D01*
X12561015Y-15191722D02*
X12561015Y-15296484D01*
X12951491Y-15086960D02*
X12780063Y-15344103D01*
X13208634Y-15096484D02*
X13227682Y-15096484D01*
X13227682Y-15096484D02*
X13246729Y-15106008D01*
X13246729Y-15106008D02*
X13256253Y-15115531D01*
X13256253Y-15115531D02*
X13265777Y-15134579D01*
X13265777Y-15134579D02*
X13275301Y-15172674D01*
X13275301Y-15172674D02*
X13275301Y-15220293D01*
X13275301Y-15220293D02*
X13265777Y-15258388D01*
X13265777Y-15258388D02*
X13256253Y-15277436D01*
X13256253Y-15277436D02*
X13246729Y-15286960D01*
X13246729Y-15286960D02*
X13227682Y-15296484D01*
X13227682Y-15296484D02*
X13208634Y-15296484D01*
X13208634Y-15296484D02*
X13189586Y-15286960D01*
X13189586Y-15286960D02*
X13180063Y-15277436D01*
X13180063Y-15277436D02*
X13170539Y-15258388D01*
X13170539Y-15258388D02*
X13161015Y-15220293D01*
X13161015Y-15220293D02*
X13161015Y-15172674D01*
X13161015Y-15172674D02*
X13170539Y-15134579D01*
X13170539Y-15134579D02*
X13180063Y-15115531D01*
X13180063Y-15115531D02*
X13189586Y-15106008D01*
X13189586Y-15106008D02*
X13208634Y-15096484D01*
X13361015Y-15277436D02*
X13370539Y-15286960D01*
X13370539Y-15286960D02*
X13361015Y-15296484D01*
X13361015Y-15296484D02*
X13351491Y-15286960D01*
X13351491Y-15286960D02*
X13361015Y-15277436D01*
X13361015Y-15277436D02*
X13361015Y-15296484D01*
X13494348Y-15096484D02*
X13513396Y-15096484D01*
X13513396Y-15096484D02*
X13532444Y-15106008D01*
X13532444Y-15106008D02*
X13541967Y-15115531D01*
X13541967Y-15115531D02*
X13551491Y-15134579D01*
X13551491Y-15134579D02*
X13561015Y-15172674D01*
X13561015Y-15172674D02*
X13561015Y-15220293D01*
X13561015Y-15220293D02*
X13551491Y-15258388D01*
X13551491Y-15258388D02*
X13541967Y-15277436D01*
X13541967Y-15277436D02*
X13532444Y-15286960D01*
X13532444Y-15286960D02*
X13513396Y-15296484D01*
X13513396Y-15296484D02*
X13494348Y-15296484D01*
X13494348Y-15296484D02*
X13475301Y-15286960D01*
X13475301Y-15286960D02*
X13465777Y-15277436D01*
X13465777Y-15277436D02*
X13456253Y-15258388D01*
X13456253Y-15258388D02*
X13446729Y-15220293D01*
X13446729Y-15220293D02*
X13446729Y-15172674D01*
X13446729Y-15172674D02*
X13456253Y-15134579D01*
X13456253Y-15134579D02*
X13465777Y-15115531D01*
X13465777Y-15115531D02*
X13475301Y-15106008D01*
X13475301Y-15106008D02*
X13494348Y-15096484D01*
X13637206Y-15115531D02*
X13646729Y-15106008D01*
X13646729Y-15106008D02*
X13665777Y-15096484D01*
X13665777Y-15096484D02*
X13713396Y-15096484D01*
X13713396Y-15096484D02*
X13732444Y-15106008D01*
X13732444Y-15106008D02*
X13741967Y-15115531D01*
X13741967Y-15115531D02*
X13751491Y-15134579D01*
X13751491Y-15134579D02*
X13751491Y-15153627D01*
X13751491Y-15153627D02*
X13741967Y-15182198D01*
X13741967Y-15182198D02*
X13627682Y-15296484D01*
X13627682Y-15296484D02*
X13751491Y-15296484D01*
X13818158Y-15096484D02*
X13941967Y-15096484D01*
X13941967Y-15096484D02*
X13875301Y-15172674D01*
X13875301Y-15172674D02*
X13903872Y-15172674D01*
X13903872Y-15172674D02*
X13922920Y-15182198D01*
X13922920Y-15182198D02*
X13932444Y-15191722D01*
X13932444Y-15191722D02*
X13941967Y-15210769D01*
X13941967Y-15210769D02*
X13941967Y-15258388D01*
X13941967Y-15258388D02*
X13932444Y-15277436D01*
X13932444Y-15277436D02*
X13922920Y-15286960D01*
X13922920Y-15286960D02*
X13903872Y-15296484D01*
X13903872Y-15296484D02*
X13846729Y-15296484D01*
X13846729Y-15296484D02*
X13827682Y-15286960D01*
X13827682Y-15286960D02*
X13818158Y-15277436D01*
X14113396Y-15096484D02*
X14075301Y-15096484D01*
X14075301Y-15096484D02*
X14056253Y-15106008D01*
X14056253Y-15106008D02*
X14046729Y-15115531D01*
X14046729Y-15115531D02*
X14027682Y-15144103D01*
X14027682Y-15144103D02*
X14018158Y-15182198D01*
X14018158Y-15182198D02*
X14018158Y-15258388D01*
X14018158Y-15258388D02*
X14027682Y-15277436D01*
X14027682Y-15277436D02*
X14037206Y-15286960D01*
X14037206Y-15286960D02*
X14056253Y-15296484D01*
X14056253Y-15296484D02*
X14094348Y-15296484D01*
X14094348Y-15296484D02*
X14113396Y-15286960D01*
X14113396Y-15286960D02*
X14122920Y-15277436D01*
X14122920Y-15277436D02*
X14132444Y-15258388D01*
X14132444Y-15258388D02*
X14132444Y-15210769D01*
X14132444Y-15210769D02*
X14122920Y-15191722D01*
X14122920Y-15191722D02*
X14113396Y-15182198D01*
X14113396Y-15182198D02*
X14094348Y-15172674D01*
X14094348Y-15172674D02*
X14056253Y-15172674D01*
X14056253Y-15172674D02*
X14037206Y-15182198D01*
X14037206Y-15182198D02*
X14027682Y-15191722D01*
X14027682Y-15191722D02*
X14018158Y-15210769D01*
X14208634Y-15096484D02*
X14208634Y-15134579D01*
X14284825Y-15096484D02*
X14284825Y-15134579D01*
X14580063Y-15372674D02*
X14570539Y-15363150D01*
X14570539Y-15363150D02*
X14551491Y-15334579D01*
X14551491Y-15334579D02*
X14541968Y-15315531D01*
X14541968Y-15315531D02*
X14532444Y-15286960D01*
X14532444Y-15286960D02*
X14522920Y-15239341D01*
X14522920Y-15239341D02*
X14522920Y-15201246D01*
X14522920Y-15201246D02*
X14532444Y-15153627D01*
X14532444Y-15153627D02*
X14541968Y-15125055D01*
X14541968Y-15125055D02*
X14551491Y-15106008D01*
X14551491Y-15106008D02*
X14570539Y-15077436D01*
X14570539Y-15077436D02*
X14580063Y-15067912D01*
X14646729Y-15115531D02*
X14656253Y-15106008D01*
X14656253Y-15106008D02*
X14675301Y-15096484D01*
X14675301Y-15096484D02*
X14722920Y-15096484D01*
X14722920Y-15096484D02*
X14741968Y-15106008D01*
X14741968Y-15106008D02*
X14751491Y-15115531D01*
X14751491Y-15115531D02*
X14761015Y-15134579D01*
X14761015Y-15134579D02*
X14761015Y-15153627D01*
X14761015Y-15153627D02*
X14751491Y-15182198D01*
X14751491Y-15182198D02*
X14637206Y-15296484D01*
X14637206Y-15296484D02*
X14761015Y-15296484D01*
X14999110Y-15296484D02*
X14999110Y-15096484D01*
X15084825Y-15296484D02*
X15084825Y-15191722D01*
X15084825Y-15191722D02*
X15075301Y-15172674D01*
X15075301Y-15172674D02*
X15056253Y-15163150D01*
X15056253Y-15163150D02*
X15027682Y-15163150D01*
X15027682Y-15163150D02*
X15008634Y-15172674D01*
X15008634Y-15172674D02*
X14999110Y-15182198D01*
X15208634Y-15296484D02*
X15189587Y-15286960D01*
X15189587Y-15286960D02*
X15180063Y-15277436D01*
X15180063Y-15277436D02*
X15170539Y-15258388D01*
X15170539Y-15258388D02*
X15170539Y-15201246D01*
X15170539Y-15201246D02*
X15180063Y-15182198D01*
X15180063Y-15182198D02*
X15189587Y-15172674D01*
X15189587Y-15172674D02*
X15208634Y-15163150D01*
X15208634Y-15163150D02*
X15237206Y-15163150D01*
X15237206Y-15163150D02*
X15256253Y-15172674D01*
X15256253Y-15172674D02*
X15265777Y-15182198D01*
X15265777Y-15182198D02*
X15275301Y-15201246D01*
X15275301Y-15201246D02*
X15275301Y-15258388D01*
X15275301Y-15258388D02*
X15265777Y-15277436D01*
X15265777Y-15277436D02*
X15256253Y-15286960D01*
X15256253Y-15286960D02*
X15237206Y-15296484D01*
X15237206Y-15296484D02*
X15208634Y-15296484D01*
X15389587Y-15296484D02*
X15370539Y-15286960D01*
X15370539Y-15286960D02*
X15361015Y-15267912D01*
X15361015Y-15267912D02*
X15361015Y-15096484D01*
X15541968Y-15286960D02*
X15522920Y-15296484D01*
X15522920Y-15296484D02*
X15484825Y-15296484D01*
X15484825Y-15296484D02*
X15465777Y-15286960D01*
X15465777Y-15286960D02*
X15456253Y-15267912D01*
X15456253Y-15267912D02*
X15456253Y-15191722D01*
X15456253Y-15191722D02*
X15465777Y-15172674D01*
X15465777Y-15172674D02*
X15484825Y-15163150D01*
X15484825Y-15163150D02*
X15522920Y-15163150D01*
X15522920Y-15163150D02*
X15541968Y-15172674D01*
X15541968Y-15172674D02*
X15551491Y-15191722D01*
X15551491Y-15191722D02*
X15551491Y-15210769D01*
X15551491Y-15210769D02*
X15456253Y-15229817D01*
X15627682Y-15286960D02*
X15646730Y-15296484D01*
X15646730Y-15296484D02*
X15684825Y-15296484D01*
X15684825Y-15296484D02*
X15703872Y-15286960D01*
X15703872Y-15286960D02*
X15713396Y-15267912D01*
X15713396Y-15267912D02*
X15713396Y-15258388D01*
X15713396Y-15258388D02*
X15703872Y-15239341D01*
X15703872Y-15239341D02*
X15684825Y-15229817D01*
X15684825Y-15229817D02*
X15656253Y-15229817D01*
X15656253Y-15229817D02*
X15637206Y-15220293D01*
X15637206Y-15220293D02*
X15627682Y-15201246D01*
X15627682Y-15201246D02*
X15627682Y-15191722D01*
X15627682Y-15191722D02*
X15637206Y-15172674D01*
X15637206Y-15172674D02*
X15656253Y-15163150D01*
X15656253Y-15163150D02*
X15684825Y-15163150D01*
X15684825Y-15163150D02*
X15703872Y-15172674D01*
X15780063Y-15372674D02*
X15789587Y-15363150D01*
X15789587Y-15363150D02*
X15808634Y-15334579D01*
X15808634Y-15334579D02*
X15818158Y-15315531D01*
X15818158Y-15315531D02*
X15827682Y-15286960D01*
X15827682Y-15286960D02*
X15837206Y-15239341D01*
X15837206Y-15239341D02*
X15837206Y-15201246D01*
X15837206Y-15201246D02*
X15827682Y-15153627D01*
X15827682Y-15153627D02*
X15818158Y-15125055D01*
X15818158Y-15125055D02*
X15808634Y-15106008D01*
X15808634Y-15106008D02*
X15789587Y-15077436D01*
X15789587Y-15077436D02*
X15780063Y-15067912D01*
X16141968Y-15372674D02*
X16132444Y-15363150D01*
X16132444Y-15363150D02*
X16113396Y-15334579D01*
X16113396Y-15334579D02*
X16103872Y-15315531D01*
X16103872Y-15315531D02*
X16094349Y-15286960D01*
X16094349Y-15286960D02*
X16084825Y-15239341D01*
X16084825Y-15239341D02*
X16084825Y-15201246D01*
X16084825Y-15201246D02*
X16094349Y-15153627D01*
X16094349Y-15153627D02*
X16103872Y-15125055D01*
X16103872Y-15125055D02*
X16113396Y-15106008D01*
X16113396Y-15106008D02*
X16132444Y-15077436D01*
X16132444Y-15077436D02*
X16141968Y-15067912D01*
X16218158Y-15163150D02*
X16218158Y-15296484D01*
X16218158Y-15182198D02*
X16227682Y-15172674D01*
X16227682Y-15172674D02*
X16246730Y-15163150D01*
X16246730Y-15163150D02*
X16275301Y-15163150D01*
X16275301Y-15163150D02*
X16294349Y-15172674D01*
X16294349Y-15172674D02*
X16303872Y-15191722D01*
X16303872Y-15191722D02*
X16303872Y-15296484D01*
X16427682Y-15296484D02*
X16408634Y-15286960D01*
X16408634Y-15286960D02*
X16399111Y-15277436D01*
X16399111Y-15277436D02*
X16389587Y-15258388D01*
X16389587Y-15258388D02*
X16389587Y-15201246D01*
X16389587Y-15201246D02*
X16399111Y-15182198D01*
X16399111Y-15182198D02*
X16408634Y-15172674D01*
X16408634Y-15172674D02*
X16427682Y-15163150D01*
X16427682Y-15163150D02*
X16456253Y-15163150D01*
X16456253Y-15163150D02*
X16475301Y-15172674D01*
X16475301Y-15172674D02*
X16484825Y-15182198D01*
X16484825Y-15182198D02*
X16494349Y-15201246D01*
X16494349Y-15201246D02*
X16494349Y-15258388D01*
X16494349Y-15258388D02*
X16484825Y-15277436D01*
X16484825Y-15277436D02*
X16475301Y-15286960D01*
X16475301Y-15286960D02*
X16456253Y-15296484D01*
X16456253Y-15296484D02*
X16427682Y-15296484D01*
X16551492Y-15163150D02*
X16627682Y-15163150D01*
X16580063Y-15096484D02*
X16580063Y-15267912D01*
X16580063Y-15267912D02*
X16589587Y-15286960D01*
X16589587Y-15286960D02*
X16608634Y-15296484D01*
X16608634Y-15296484D02*
X16627682Y-15296484D01*
X16846730Y-15163150D02*
X16846730Y-15363150D01*
X16846730Y-15172674D02*
X16865777Y-15163150D01*
X16865777Y-15163150D02*
X16903873Y-15163150D01*
X16903873Y-15163150D02*
X16922920Y-15172674D01*
X16922920Y-15172674D02*
X16932444Y-15182198D01*
X16932444Y-15182198D02*
X16941968Y-15201246D01*
X16941968Y-15201246D02*
X16941968Y-15258388D01*
X16941968Y-15258388D02*
X16932444Y-15277436D01*
X16932444Y-15277436D02*
X16922920Y-15286960D01*
X16922920Y-15286960D02*
X16903873Y-15296484D01*
X16903873Y-15296484D02*
X16865777Y-15296484D01*
X16865777Y-15296484D02*
X16846730Y-15286960D01*
X17056254Y-15296484D02*
X17037206Y-15286960D01*
X17037206Y-15286960D02*
X17027682Y-15267912D01*
X17027682Y-15267912D02*
X17027682Y-15096484D01*
X17218158Y-15296484D02*
X17218158Y-15191722D01*
X17218158Y-15191722D02*
X17208635Y-15172674D01*
X17208635Y-15172674D02*
X17189587Y-15163150D01*
X17189587Y-15163150D02*
X17151492Y-15163150D01*
X17151492Y-15163150D02*
X17132444Y-15172674D01*
X17218158Y-15286960D02*
X17199111Y-15296484D01*
X17199111Y-15296484D02*
X17151492Y-15296484D01*
X17151492Y-15296484D02*
X17132444Y-15286960D01*
X17132444Y-15286960D02*
X17122920Y-15267912D01*
X17122920Y-15267912D02*
X17122920Y-15248865D01*
X17122920Y-15248865D02*
X17132444Y-15229817D01*
X17132444Y-15229817D02*
X17151492Y-15220293D01*
X17151492Y-15220293D02*
X17199111Y-15220293D01*
X17199111Y-15220293D02*
X17218158Y-15210769D01*
X17284825Y-15163150D02*
X17361015Y-15163150D01*
X17313396Y-15096484D02*
X17313396Y-15267912D01*
X17313396Y-15267912D02*
X17322920Y-15286960D01*
X17322920Y-15286960D02*
X17341968Y-15296484D01*
X17341968Y-15296484D02*
X17361015Y-15296484D01*
X17503873Y-15286960D02*
X17484825Y-15296484D01*
X17484825Y-15296484D02*
X17446730Y-15296484D01*
X17446730Y-15296484D02*
X17427682Y-15286960D01*
X17427682Y-15286960D02*
X17418158Y-15267912D01*
X17418158Y-15267912D02*
X17418158Y-15191722D01*
X17418158Y-15191722D02*
X17427682Y-15172674D01*
X17427682Y-15172674D02*
X17446730Y-15163150D01*
X17446730Y-15163150D02*
X17484825Y-15163150D01*
X17484825Y-15163150D02*
X17503873Y-15172674D01*
X17503873Y-15172674D02*
X17513396Y-15191722D01*
X17513396Y-15191722D02*
X17513396Y-15210769D01*
X17513396Y-15210769D02*
X17418158Y-15229817D01*
X17684825Y-15296484D02*
X17684825Y-15096484D01*
X17684825Y-15286960D02*
X17665777Y-15296484D01*
X17665777Y-15296484D02*
X17627682Y-15296484D01*
X17627682Y-15296484D02*
X17608635Y-15286960D01*
X17608635Y-15286960D02*
X17599111Y-15277436D01*
X17599111Y-15277436D02*
X17589587Y-15258388D01*
X17589587Y-15258388D02*
X17589587Y-15201246D01*
X17589587Y-15201246D02*
X17599111Y-15182198D01*
X17599111Y-15182198D02*
X17608635Y-15172674D01*
X17608635Y-15172674D02*
X17627682Y-15163150D01*
X17627682Y-15163150D02*
X17665777Y-15163150D01*
X17665777Y-15163150D02*
X17684825Y-15172674D01*
X17761016Y-15372674D02*
X17770539Y-15363150D01*
X17770539Y-15363150D02*
X17789587Y-15334579D01*
X17789587Y-15334579D02*
X17799111Y-15315531D01*
X17799111Y-15315531D02*
X17808635Y-15286960D01*
X17808635Y-15286960D02*
X17818158Y-15239341D01*
X17818158Y-15239341D02*
X17818158Y-15201246D01*
X17818158Y-15201246D02*
X17808635Y-15153627D01*
X17808635Y-15153627D02*
X17799111Y-15125055D01*
X17799111Y-15125055D02*
X17789587Y-15106008D01*
X17789587Y-15106008D02*
X17770539Y-15077436D01*
X17770539Y-15077436D02*
X17761016Y-15067912D01*
D12*
X11005000Y-15469000D02*
G75*
G02*
X10878000Y-15469000I-63500J0D01*
G01*
X10878000Y-15469000D02*
G75*
G02*
X11005000Y-15469000I63500J0D01*
G01*
D11*
X11370539Y-15560484D02*
X11256253Y-15560484D01*
X11313396Y-15560484D02*
X11313396Y-15360484D01*
X11313396Y-15360484D02*
X11294348Y-15389055D01*
X11294348Y-15389055D02*
X11275301Y-15408103D01*
X11275301Y-15408103D02*
X11256253Y-15417627D01*
X11456253Y-15541436D02*
X11465777Y-15550960D01*
X11465777Y-15550960D02*
X11456253Y-15560484D01*
X11456253Y-15560484D02*
X11446729Y-15550960D01*
X11446729Y-15550960D02*
X11456253Y-15541436D01*
X11456253Y-15541436D02*
X11456253Y-15560484D01*
X11541967Y-15379531D02*
X11551491Y-15370008D01*
X11551491Y-15370008D02*
X11570539Y-15360484D01*
X11570539Y-15360484D02*
X11618158Y-15360484D01*
X11618158Y-15360484D02*
X11637205Y-15370008D01*
X11637205Y-15370008D02*
X11646729Y-15379531D01*
X11646729Y-15379531D02*
X11656253Y-15398579D01*
X11656253Y-15398579D02*
X11656253Y-15417627D01*
X11656253Y-15417627D02*
X11646729Y-15446198D01*
X11646729Y-15446198D02*
X11532443Y-15560484D01*
X11532443Y-15560484D02*
X11656253Y-15560484D01*
X11722920Y-15360484D02*
X11856253Y-15360484D01*
X11856253Y-15360484D02*
X11770539Y-15560484D01*
X11970539Y-15360484D02*
X11989586Y-15360484D01*
X11989586Y-15360484D02*
X12008634Y-15370008D01*
X12008634Y-15370008D02*
X12018158Y-15379531D01*
X12018158Y-15379531D02*
X12027682Y-15398579D01*
X12027682Y-15398579D02*
X12037205Y-15436674D01*
X12037205Y-15436674D02*
X12037205Y-15484293D01*
X12037205Y-15484293D02*
X12027682Y-15522388D01*
X12027682Y-15522388D02*
X12018158Y-15541436D01*
X12018158Y-15541436D02*
X12008634Y-15550960D01*
X12008634Y-15550960D02*
X11989586Y-15560484D01*
X11989586Y-15560484D02*
X11970539Y-15560484D01*
X11970539Y-15560484D02*
X11951491Y-15550960D01*
X11951491Y-15550960D02*
X11941967Y-15541436D01*
X11941967Y-15541436D02*
X11932443Y-15522388D01*
X11932443Y-15522388D02*
X11922920Y-15484293D01*
X11922920Y-15484293D02*
X11922920Y-15436674D01*
X11922920Y-15436674D02*
X11932443Y-15398579D01*
X11932443Y-15398579D02*
X11941967Y-15379531D01*
X11941967Y-15379531D02*
X11951491Y-15370008D01*
X11951491Y-15370008D02*
X11970539Y-15360484D01*
X12122920Y-15560484D02*
X12122920Y-15427150D01*
X12122920Y-15446198D02*
X12132443Y-15436674D01*
X12132443Y-15436674D02*
X12151491Y-15427150D01*
X12151491Y-15427150D02*
X12180063Y-15427150D01*
X12180063Y-15427150D02*
X12199110Y-15436674D01*
X12199110Y-15436674D02*
X12208634Y-15455722D01*
X12208634Y-15455722D02*
X12208634Y-15560484D01*
X12208634Y-15455722D02*
X12218158Y-15436674D01*
X12218158Y-15436674D02*
X12237205Y-15427150D01*
X12237205Y-15427150D02*
X12265777Y-15427150D01*
X12265777Y-15427150D02*
X12284824Y-15436674D01*
X12284824Y-15436674D02*
X12294348Y-15455722D01*
X12294348Y-15455722D02*
X12294348Y-15560484D01*
X12389586Y-15560484D02*
X12389586Y-15427150D01*
X12389586Y-15446198D02*
X12399110Y-15436674D01*
X12399110Y-15436674D02*
X12418158Y-15427150D01*
X12418158Y-15427150D02*
X12446729Y-15427150D01*
X12446729Y-15427150D02*
X12465777Y-15436674D01*
X12465777Y-15436674D02*
X12475301Y-15455722D01*
X12475301Y-15455722D02*
X12475301Y-15560484D01*
X12475301Y-15455722D02*
X12484824Y-15436674D01*
X12484824Y-15436674D02*
X12503872Y-15427150D01*
X12503872Y-15427150D02*
X12532443Y-15427150D01*
X12532443Y-15427150D02*
X12551491Y-15436674D01*
X12551491Y-15436674D02*
X12561015Y-15455722D01*
X12561015Y-15455722D02*
X12561015Y-15560484D01*
X12951491Y-15350960D02*
X12780063Y-15608103D01*
X13208634Y-15360484D02*
X13227682Y-15360484D01*
X13227682Y-15360484D02*
X13246729Y-15370008D01*
X13246729Y-15370008D02*
X13256253Y-15379531D01*
X13256253Y-15379531D02*
X13265777Y-15398579D01*
X13265777Y-15398579D02*
X13275301Y-15436674D01*
X13275301Y-15436674D02*
X13275301Y-15484293D01*
X13275301Y-15484293D02*
X13265777Y-15522388D01*
X13265777Y-15522388D02*
X13256253Y-15541436D01*
X13256253Y-15541436D02*
X13246729Y-15550960D01*
X13246729Y-15550960D02*
X13227682Y-15560484D01*
X13227682Y-15560484D02*
X13208634Y-15560484D01*
X13208634Y-15560484D02*
X13189586Y-15550960D01*
X13189586Y-15550960D02*
X13180063Y-15541436D01*
X13180063Y-15541436D02*
X13170539Y-15522388D01*
X13170539Y-15522388D02*
X13161015Y-15484293D01*
X13161015Y-15484293D02*
X13161015Y-15436674D01*
X13161015Y-15436674D02*
X13170539Y-15398579D01*
X13170539Y-15398579D02*
X13180063Y-15379531D01*
X13180063Y-15379531D02*
X13189586Y-15370008D01*
X13189586Y-15370008D02*
X13208634Y-15360484D01*
X13361015Y-15541436D02*
X13370539Y-15550960D01*
X13370539Y-15550960D02*
X13361015Y-15560484D01*
X13361015Y-15560484D02*
X13351491Y-15550960D01*
X13351491Y-15550960D02*
X13361015Y-15541436D01*
X13361015Y-15541436D02*
X13361015Y-15560484D01*
X13494348Y-15360484D02*
X13513396Y-15360484D01*
X13513396Y-15360484D02*
X13532444Y-15370008D01*
X13532444Y-15370008D02*
X13541967Y-15379531D01*
X13541967Y-15379531D02*
X13551491Y-15398579D01*
X13551491Y-15398579D02*
X13561015Y-15436674D01*
X13561015Y-15436674D02*
X13561015Y-15484293D01*
X13561015Y-15484293D02*
X13551491Y-15522388D01*
X13551491Y-15522388D02*
X13541967Y-15541436D01*
X13541967Y-15541436D02*
X13532444Y-15550960D01*
X13532444Y-15550960D02*
X13513396Y-15560484D01*
X13513396Y-15560484D02*
X13494348Y-15560484D01*
X13494348Y-15560484D02*
X13475301Y-15550960D01*
X13475301Y-15550960D02*
X13465777Y-15541436D01*
X13465777Y-15541436D02*
X13456253Y-15522388D01*
X13456253Y-15522388D02*
X13446729Y-15484293D01*
X13446729Y-15484293D02*
X13446729Y-15436674D01*
X13446729Y-15436674D02*
X13456253Y-15398579D01*
X13456253Y-15398579D02*
X13465777Y-15379531D01*
X13465777Y-15379531D02*
X13475301Y-15370008D01*
X13475301Y-15370008D02*
X13494348Y-15360484D01*
X13741967Y-15360484D02*
X13646729Y-15360484D01*
X13646729Y-15360484D02*
X13637206Y-15455722D01*
X13637206Y-15455722D02*
X13646729Y-15446198D01*
X13646729Y-15446198D02*
X13665777Y-15436674D01*
X13665777Y-15436674D02*
X13713396Y-15436674D01*
X13713396Y-15436674D02*
X13732444Y-15446198D01*
X13732444Y-15446198D02*
X13741967Y-15455722D01*
X13741967Y-15455722D02*
X13751491Y-15474769D01*
X13751491Y-15474769D02*
X13751491Y-15522388D01*
X13751491Y-15522388D02*
X13741967Y-15541436D01*
X13741967Y-15541436D02*
X13732444Y-15550960D01*
X13732444Y-15550960D02*
X13713396Y-15560484D01*
X13713396Y-15560484D02*
X13665777Y-15560484D01*
X13665777Y-15560484D02*
X13646729Y-15550960D01*
X13646729Y-15550960D02*
X13637206Y-15541436D01*
X13875301Y-15360484D02*
X13894348Y-15360484D01*
X13894348Y-15360484D02*
X13913396Y-15370008D01*
X13913396Y-15370008D02*
X13922920Y-15379531D01*
X13922920Y-15379531D02*
X13932444Y-15398579D01*
X13932444Y-15398579D02*
X13941967Y-15436674D01*
X13941967Y-15436674D02*
X13941967Y-15484293D01*
X13941967Y-15484293D02*
X13932444Y-15522388D01*
X13932444Y-15522388D02*
X13922920Y-15541436D01*
X13922920Y-15541436D02*
X13913396Y-15550960D01*
X13913396Y-15550960D02*
X13894348Y-15560484D01*
X13894348Y-15560484D02*
X13875301Y-15560484D01*
X13875301Y-15560484D02*
X13856253Y-15550960D01*
X13856253Y-15550960D02*
X13846729Y-15541436D01*
X13846729Y-15541436D02*
X13837206Y-15522388D01*
X13837206Y-15522388D02*
X13827682Y-15484293D01*
X13827682Y-15484293D02*
X13827682Y-15436674D01*
X13827682Y-15436674D02*
X13837206Y-15398579D01*
X13837206Y-15398579D02*
X13846729Y-15379531D01*
X13846729Y-15379531D02*
X13856253Y-15370008D01*
X13856253Y-15370008D02*
X13875301Y-15360484D01*
X14065777Y-15360484D02*
X14084825Y-15360484D01*
X14084825Y-15360484D02*
X14103872Y-15370008D01*
X14103872Y-15370008D02*
X14113396Y-15379531D01*
X14113396Y-15379531D02*
X14122920Y-15398579D01*
X14122920Y-15398579D02*
X14132444Y-15436674D01*
X14132444Y-15436674D02*
X14132444Y-15484293D01*
X14132444Y-15484293D02*
X14122920Y-15522388D01*
X14122920Y-15522388D02*
X14113396Y-15541436D01*
X14113396Y-15541436D02*
X14103872Y-15550960D01*
X14103872Y-15550960D02*
X14084825Y-15560484D01*
X14084825Y-15560484D02*
X14065777Y-15560484D01*
X14065777Y-15560484D02*
X14046729Y-15550960D01*
X14046729Y-15550960D02*
X14037206Y-15541436D01*
X14037206Y-15541436D02*
X14027682Y-15522388D01*
X14027682Y-15522388D02*
X14018158Y-15484293D01*
X14018158Y-15484293D02*
X14018158Y-15436674D01*
X14018158Y-15436674D02*
X14027682Y-15398579D01*
X14027682Y-15398579D02*
X14037206Y-15379531D01*
X14037206Y-15379531D02*
X14046729Y-15370008D01*
X14046729Y-15370008D02*
X14065777Y-15360484D01*
X14208634Y-15360484D02*
X14208634Y-15398579D01*
X14284825Y-15360484D02*
X14284825Y-15398579D01*
X14580063Y-15636674D02*
X14570539Y-15627150D01*
X14570539Y-15627150D02*
X14551491Y-15598579D01*
X14551491Y-15598579D02*
X14541968Y-15579531D01*
X14541968Y-15579531D02*
X14532444Y-15550960D01*
X14532444Y-15550960D02*
X14522920Y-15503341D01*
X14522920Y-15503341D02*
X14522920Y-15465246D01*
X14522920Y-15465246D02*
X14532444Y-15417627D01*
X14532444Y-15417627D02*
X14541968Y-15389055D01*
X14541968Y-15389055D02*
X14551491Y-15370008D01*
X14551491Y-15370008D02*
X14570539Y-15341436D01*
X14570539Y-15341436D02*
X14580063Y-15331912D01*
X14741968Y-15360484D02*
X14703872Y-15360484D01*
X14703872Y-15360484D02*
X14684825Y-15370008D01*
X14684825Y-15370008D02*
X14675301Y-15379531D01*
X14675301Y-15379531D02*
X14656253Y-15408103D01*
X14656253Y-15408103D02*
X14646729Y-15446198D01*
X14646729Y-15446198D02*
X14646729Y-15522388D01*
X14646729Y-15522388D02*
X14656253Y-15541436D01*
X14656253Y-15541436D02*
X14665777Y-15550960D01*
X14665777Y-15550960D02*
X14684825Y-15560484D01*
X14684825Y-15560484D02*
X14722920Y-15560484D01*
X14722920Y-15560484D02*
X14741968Y-15550960D01*
X14741968Y-15550960D02*
X14751491Y-15541436D01*
X14751491Y-15541436D02*
X14761015Y-15522388D01*
X14761015Y-15522388D02*
X14761015Y-15474769D01*
X14761015Y-15474769D02*
X14751491Y-15455722D01*
X14751491Y-15455722D02*
X14741968Y-15446198D01*
X14741968Y-15446198D02*
X14722920Y-15436674D01*
X14722920Y-15436674D02*
X14684825Y-15436674D01*
X14684825Y-15436674D02*
X14665777Y-15446198D01*
X14665777Y-15446198D02*
X14656253Y-15455722D01*
X14656253Y-15455722D02*
X14646729Y-15474769D01*
X14999110Y-15560484D02*
X14999110Y-15360484D01*
X15084825Y-15560484D02*
X15084825Y-15455722D01*
X15084825Y-15455722D02*
X15075301Y-15436674D01*
X15075301Y-15436674D02*
X15056253Y-15427150D01*
X15056253Y-15427150D02*
X15027682Y-15427150D01*
X15027682Y-15427150D02*
X15008634Y-15436674D01*
X15008634Y-15436674D02*
X14999110Y-15446198D01*
X15208634Y-15560484D02*
X15189587Y-15550960D01*
X15189587Y-15550960D02*
X15180063Y-15541436D01*
X15180063Y-15541436D02*
X15170539Y-15522388D01*
X15170539Y-15522388D02*
X15170539Y-15465246D01*
X15170539Y-15465246D02*
X15180063Y-15446198D01*
X15180063Y-15446198D02*
X15189587Y-15436674D01*
X15189587Y-15436674D02*
X15208634Y-15427150D01*
X15208634Y-15427150D02*
X15237206Y-15427150D01*
X15237206Y-15427150D02*
X15256253Y-15436674D01*
X15256253Y-15436674D02*
X15265777Y-15446198D01*
X15265777Y-15446198D02*
X15275301Y-15465246D01*
X15275301Y-15465246D02*
X15275301Y-15522388D01*
X15275301Y-15522388D02*
X15265777Y-15541436D01*
X15265777Y-15541436D02*
X15256253Y-15550960D01*
X15256253Y-15550960D02*
X15237206Y-15560484D01*
X15237206Y-15560484D02*
X15208634Y-15560484D01*
X15389587Y-15560484D02*
X15370539Y-15550960D01*
X15370539Y-15550960D02*
X15361015Y-15531912D01*
X15361015Y-15531912D02*
X15361015Y-15360484D01*
X15541968Y-15550960D02*
X15522920Y-15560484D01*
X15522920Y-15560484D02*
X15484825Y-15560484D01*
X15484825Y-15560484D02*
X15465777Y-15550960D01*
X15465777Y-15550960D02*
X15456253Y-15531912D01*
X15456253Y-15531912D02*
X15456253Y-15455722D01*
X15456253Y-15455722D02*
X15465777Y-15436674D01*
X15465777Y-15436674D02*
X15484825Y-15427150D01*
X15484825Y-15427150D02*
X15522920Y-15427150D01*
X15522920Y-15427150D02*
X15541968Y-15436674D01*
X15541968Y-15436674D02*
X15551491Y-15455722D01*
X15551491Y-15455722D02*
X15551491Y-15474769D01*
X15551491Y-15474769D02*
X15456253Y-15493817D01*
X15627682Y-15550960D02*
X15646730Y-15560484D01*
X15646730Y-15560484D02*
X15684825Y-15560484D01*
X15684825Y-15560484D02*
X15703872Y-15550960D01*
X15703872Y-15550960D02*
X15713396Y-15531912D01*
X15713396Y-15531912D02*
X15713396Y-15522388D01*
X15713396Y-15522388D02*
X15703872Y-15503341D01*
X15703872Y-15503341D02*
X15684825Y-15493817D01*
X15684825Y-15493817D02*
X15656253Y-15493817D01*
X15656253Y-15493817D02*
X15637206Y-15484293D01*
X15637206Y-15484293D02*
X15627682Y-15465246D01*
X15627682Y-15465246D02*
X15627682Y-15455722D01*
X15627682Y-15455722D02*
X15637206Y-15436674D01*
X15637206Y-15436674D02*
X15656253Y-15427150D01*
X15656253Y-15427150D02*
X15684825Y-15427150D01*
X15684825Y-15427150D02*
X15703872Y-15436674D01*
X15780063Y-15636674D02*
X15789587Y-15627150D01*
X15789587Y-15627150D02*
X15808634Y-15598579D01*
X15808634Y-15598579D02*
X15818158Y-15579531D01*
X15818158Y-15579531D02*
X15827682Y-15550960D01*
X15827682Y-15550960D02*
X15837206Y-15503341D01*
X15837206Y-15503341D02*
X15837206Y-15465246D01*
X15837206Y-15465246D02*
X15827682Y-15417627D01*
X15827682Y-15417627D02*
X15818158Y-15389055D01*
X15818158Y-15389055D02*
X15808634Y-15370008D01*
X15808634Y-15370008D02*
X15789587Y-15341436D01*
X15789587Y-15341436D02*
X15780063Y-15331912D01*
X16141968Y-15636674D02*
X16132444Y-15627150D01*
X16132444Y-15627150D02*
X16113396Y-15598579D01*
X16113396Y-15598579D02*
X16103872Y-15579531D01*
X16103872Y-15579531D02*
X16094349Y-15550960D01*
X16094349Y-15550960D02*
X16084825Y-15503341D01*
X16084825Y-15503341D02*
X16084825Y-15465246D01*
X16084825Y-15465246D02*
X16094349Y-15417627D01*
X16094349Y-15417627D02*
X16103872Y-15389055D01*
X16103872Y-15389055D02*
X16113396Y-15370008D01*
X16113396Y-15370008D02*
X16132444Y-15341436D01*
X16132444Y-15341436D02*
X16141968Y-15331912D01*
X16218158Y-15427150D02*
X16218158Y-15560484D01*
X16218158Y-15446198D02*
X16227682Y-15436674D01*
X16227682Y-15436674D02*
X16246730Y-15427150D01*
X16246730Y-15427150D02*
X16275301Y-15427150D01*
X16275301Y-15427150D02*
X16294349Y-15436674D01*
X16294349Y-15436674D02*
X16303872Y-15455722D01*
X16303872Y-15455722D02*
X16303872Y-15560484D01*
X16427682Y-15560484D02*
X16408634Y-15550960D01*
X16408634Y-15550960D02*
X16399111Y-15541436D01*
X16399111Y-15541436D02*
X16389587Y-15522388D01*
X16389587Y-15522388D02*
X16389587Y-15465246D01*
X16389587Y-15465246D02*
X16399111Y-15446198D01*
X16399111Y-15446198D02*
X16408634Y-15436674D01*
X16408634Y-15436674D02*
X16427682Y-15427150D01*
X16427682Y-15427150D02*
X16456253Y-15427150D01*
X16456253Y-15427150D02*
X16475301Y-15436674D01*
X16475301Y-15436674D02*
X16484825Y-15446198D01*
X16484825Y-15446198D02*
X16494349Y-15465246D01*
X16494349Y-15465246D02*
X16494349Y-15522388D01*
X16494349Y-15522388D02*
X16484825Y-15541436D01*
X16484825Y-15541436D02*
X16475301Y-15550960D01*
X16475301Y-15550960D02*
X16456253Y-15560484D01*
X16456253Y-15560484D02*
X16427682Y-15560484D01*
X16551492Y-15427150D02*
X16627682Y-15427150D01*
X16580063Y-15360484D02*
X16580063Y-15531912D01*
X16580063Y-15531912D02*
X16589587Y-15550960D01*
X16589587Y-15550960D02*
X16608634Y-15560484D01*
X16608634Y-15560484D02*
X16627682Y-15560484D01*
X16846730Y-15427150D02*
X16846730Y-15627150D01*
X16846730Y-15436674D02*
X16865777Y-15427150D01*
X16865777Y-15427150D02*
X16903873Y-15427150D01*
X16903873Y-15427150D02*
X16922920Y-15436674D01*
X16922920Y-15436674D02*
X16932444Y-15446198D01*
X16932444Y-15446198D02*
X16941968Y-15465246D01*
X16941968Y-15465246D02*
X16941968Y-15522388D01*
X16941968Y-15522388D02*
X16932444Y-15541436D01*
X16932444Y-15541436D02*
X16922920Y-15550960D01*
X16922920Y-15550960D02*
X16903873Y-15560484D01*
X16903873Y-15560484D02*
X16865777Y-15560484D01*
X16865777Y-15560484D02*
X16846730Y-15550960D01*
X17056254Y-15560484D02*
X17037206Y-15550960D01*
X17037206Y-15550960D02*
X17027682Y-15531912D01*
X17027682Y-15531912D02*
X17027682Y-15360484D01*
X17218158Y-15560484D02*
X17218158Y-15455722D01*
X17218158Y-15455722D02*
X17208635Y-15436674D01*
X17208635Y-15436674D02*
X17189587Y-15427150D01*
X17189587Y-15427150D02*
X17151492Y-15427150D01*
X17151492Y-15427150D02*
X17132444Y-15436674D01*
X17218158Y-15550960D02*
X17199111Y-15560484D01*
X17199111Y-15560484D02*
X17151492Y-15560484D01*
X17151492Y-15560484D02*
X17132444Y-15550960D01*
X17132444Y-15550960D02*
X17122920Y-15531912D01*
X17122920Y-15531912D02*
X17122920Y-15512865D01*
X17122920Y-15512865D02*
X17132444Y-15493817D01*
X17132444Y-15493817D02*
X17151492Y-15484293D01*
X17151492Y-15484293D02*
X17199111Y-15484293D01*
X17199111Y-15484293D02*
X17218158Y-15474769D01*
X17284825Y-15427150D02*
X17361015Y-15427150D01*
X17313396Y-15360484D02*
X17313396Y-15531912D01*
X17313396Y-15531912D02*
X17322920Y-15550960D01*
X17322920Y-15550960D02*
X17341968Y-15560484D01*
X17341968Y-15560484D02*
X17361015Y-15560484D01*
X17503873Y-15550960D02*
X17484825Y-15560484D01*
X17484825Y-15560484D02*
X17446730Y-15560484D01*
X17446730Y-15560484D02*
X17427682Y-15550960D01*
X17427682Y-15550960D02*
X17418158Y-15531912D01*
X17418158Y-15531912D02*
X17418158Y-15455722D01*
X17418158Y-15455722D02*
X17427682Y-15436674D01*
X17427682Y-15436674D02*
X17446730Y-15427150D01*
X17446730Y-15427150D02*
X17484825Y-15427150D01*
X17484825Y-15427150D02*
X17503873Y-15436674D01*
X17503873Y-15436674D02*
X17513396Y-15455722D01*
X17513396Y-15455722D02*
X17513396Y-15474769D01*
X17513396Y-15474769D02*
X17418158Y-15493817D01*
X17684825Y-15560484D02*
X17684825Y-15360484D01*
X17684825Y-15550960D02*
X17665777Y-15560484D01*
X17665777Y-15560484D02*
X17627682Y-15560484D01*
X17627682Y-15560484D02*
X17608635Y-15550960D01*
X17608635Y-15550960D02*
X17599111Y-15541436D01*
X17599111Y-15541436D02*
X17589587Y-15522388D01*
X17589587Y-15522388D02*
X17589587Y-15465246D01*
X17589587Y-15465246D02*
X17599111Y-15446198D01*
X17599111Y-15446198D02*
X17608635Y-15436674D01*
X17608635Y-15436674D02*
X17627682Y-15427150D01*
X17627682Y-15427150D02*
X17665777Y-15427150D01*
X17665777Y-15427150D02*
X17684825Y-15436674D01*
X17761016Y-15636674D02*
X17770539Y-15627150D01*
X17770539Y-15627150D02*
X17789587Y-15598579D01*
X17789587Y-15598579D02*
X17799111Y-15579531D01*
X17799111Y-15579531D02*
X17808635Y-15550960D01*
X17808635Y-15550960D02*
X17818158Y-15503341D01*
X17818158Y-15503341D02*
X17818158Y-15465246D01*
X17818158Y-15465246D02*
X17808635Y-15417627D01*
X17808635Y-15417627D02*
X17799111Y-15389055D01*
X17799111Y-15389055D02*
X17789587Y-15370008D01*
X17789587Y-15370008D02*
X17770539Y-15341436D01*
X17770539Y-15341436D02*
X17761016Y-15331912D01*
X10905000Y-15633000D02*
X10905000Y-15833000D01*
X10805000Y-15733000D02*
X11005000Y-15733000D01*
X11246729Y-15624484D02*
X11370539Y-15624484D01*
X11370539Y-15624484D02*
X11303872Y-15700674D01*
X11303872Y-15700674D02*
X11332443Y-15700674D01*
X11332443Y-15700674D02*
X11351491Y-15710198D01*
X11351491Y-15710198D02*
X11361015Y-15719722D01*
X11361015Y-15719722D02*
X11370539Y-15738769D01*
X11370539Y-15738769D02*
X11370539Y-15786388D01*
X11370539Y-15786388D02*
X11361015Y-15805436D01*
X11361015Y-15805436D02*
X11351491Y-15814960D01*
X11351491Y-15814960D02*
X11332443Y-15824484D01*
X11332443Y-15824484D02*
X11275301Y-15824484D01*
X11275301Y-15824484D02*
X11256253Y-15814960D01*
X11256253Y-15814960D02*
X11246729Y-15805436D01*
X11456253Y-15805436D02*
X11465777Y-15814960D01*
X11465777Y-15814960D02*
X11456253Y-15824484D01*
X11456253Y-15824484D02*
X11446729Y-15814960D01*
X11446729Y-15814960D02*
X11456253Y-15805436D01*
X11456253Y-15805436D02*
X11456253Y-15824484D01*
X11541967Y-15643531D02*
X11551491Y-15634008D01*
X11551491Y-15634008D02*
X11570539Y-15624484D01*
X11570539Y-15624484D02*
X11618158Y-15624484D01*
X11618158Y-15624484D02*
X11637205Y-15634008D01*
X11637205Y-15634008D02*
X11646729Y-15643531D01*
X11646729Y-15643531D02*
X11656253Y-15662579D01*
X11656253Y-15662579D02*
X11656253Y-15681627D01*
X11656253Y-15681627D02*
X11646729Y-15710198D01*
X11646729Y-15710198D02*
X11532443Y-15824484D01*
X11532443Y-15824484D02*
X11656253Y-15824484D01*
X11780062Y-15624484D02*
X11799110Y-15624484D01*
X11799110Y-15624484D02*
X11818158Y-15634008D01*
X11818158Y-15634008D02*
X11827682Y-15643531D01*
X11827682Y-15643531D02*
X11837205Y-15662579D01*
X11837205Y-15662579D02*
X11846729Y-15700674D01*
X11846729Y-15700674D02*
X11846729Y-15748293D01*
X11846729Y-15748293D02*
X11837205Y-15786388D01*
X11837205Y-15786388D02*
X11827682Y-15805436D01*
X11827682Y-15805436D02*
X11818158Y-15814960D01*
X11818158Y-15814960D02*
X11799110Y-15824484D01*
X11799110Y-15824484D02*
X11780062Y-15824484D01*
X11780062Y-15824484D02*
X11761015Y-15814960D01*
X11761015Y-15814960D02*
X11751491Y-15805436D01*
X11751491Y-15805436D02*
X11741967Y-15786388D01*
X11741967Y-15786388D02*
X11732443Y-15748293D01*
X11732443Y-15748293D02*
X11732443Y-15700674D01*
X11732443Y-15700674D02*
X11741967Y-15662579D01*
X11741967Y-15662579D02*
X11751491Y-15643531D01*
X11751491Y-15643531D02*
X11761015Y-15634008D01*
X11761015Y-15634008D02*
X11780062Y-15624484D01*
X11970539Y-15624484D02*
X11989586Y-15624484D01*
X11989586Y-15624484D02*
X12008634Y-15634008D01*
X12008634Y-15634008D02*
X12018158Y-15643531D01*
X12018158Y-15643531D02*
X12027682Y-15662579D01*
X12027682Y-15662579D02*
X12037205Y-15700674D01*
X12037205Y-15700674D02*
X12037205Y-15748293D01*
X12037205Y-15748293D02*
X12027682Y-15786388D01*
X12027682Y-15786388D02*
X12018158Y-15805436D01*
X12018158Y-15805436D02*
X12008634Y-15814960D01*
X12008634Y-15814960D02*
X11989586Y-15824484D01*
X11989586Y-15824484D02*
X11970539Y-15824484D01*
X11970539Y-15824484D02*
X11951491Y-15814960D01*
X11951491Y-15814960D02*
X11941967Y-15805436D01*
X11941967Y-15805436D02*
X11932443Y-15786388D01*
X11932443Y-15786388D02*
X11922920Y-15748293D01*
X11922920Y-15748293D02*
X11922920Y-15700674D01*
X11922920Y-15700674D02*
X11932443Y-15662579D01*
X11932443Y-15662579D02*
X11941967Y-15643531D01*
X11941967Y-15643531D02*
X11951491Y-15634008D01*
X11951491Y-15634008D02*
X11970539Y-15624484D01*
X12122920Y-15824484D02*
X12122920Y-15691150D01*
X12122920Y-15710198D02*
X12132443Y-15700674D01*
X12132443Y-15700674D02*
X12151491Y-15691150D01*
X12151491Y-15691150D02*
X12180063Y-15691150D01*
X12180063Y-15691150D02*
X12199110Y-15700674D01*
X12199110Y-15700674D02*
X12208634Y-15719722D01*
X12208634Y-15719722D02*
X12208634Y-15824484D01*
X12208634Y-15719722D02*
X12218158Y-15700674D01*
X12218158Y-15700674D02*
X12237205Y-15691150D01*
X12237205Y-15691150D02*
X12265777Y-15691150D01*
X12265777Y-15691150D02*
X12284824Y-15700674D01*
X12284824Y-15700674D02*
X12294348Y-15719722D01*
X12294348Y-15719722D02*
X12294348Y-15824484D01*
X12389586Y-15824484D02*
X12389586Y-15691150D01*
X12389586Y-15710198D02*
X12399110Y-15700674D01*
X12399110Y-15700674D02*
X12418158Y-15691150D01*
X12418158Y-15691150D02*
X12446729Y-15691150D01*
X12446729Y-15691150D02*
X12465777Y-15700674D01*
X12465777Y-15700674D02*
X12475301Y-15719722D01*
X12475301Y-15719722D02*
X12475301Y-15824484D01*
X12475301Y-15719722D02*
X12484824Y-15700674D01*
X12484824Y-15700674D02*
X12503872Y-15691150D01*
X12503872Y-15691150D02*
X12532443Y-15691150D01*
X12532443Y-15691150D02*
X12551491Y-15700674D01*
X12551491Y-15700674D02*
X12561015Y-15719722D01*
X12561015Y-15719722D02*
X12561015Y-15824484D01*
X12951491Y-15614960D02*
X12780063Y-15872103D01*
X13208634Y-15624484D02*
X13227682Y-15624484D01*
X13227682Y-15624484D02*
X13246729Y-15634008D01*
X13246729Y-15634008D02*
X13256253Y-15643531D01*
X13256253Y-15643531D02*
X13265777Y-15662579D01*
X13265777Y-15662579D02*
X13275301Y-15700674D01*
X13275301Y-15700674D02*
X13275301Y-15748293D01*
X13275301Y-15748293D02*
X13265777Y-15786388D01*
X13265777Y-15786388D02*
X13256253Y-15805436D01*
X13256253Y-15805436D02*
X13246729Y-15814960D01*
X13246729Y-15814960D02*
X13227682Y-15824484D01*
X13227682Y-15824484D02*
X13208634Y-15824484D01*
X13208634Y-15824484D02*
X13189586Y-15814960D01*
X13189586Y-15814960D02*
X13180063Y-15805436D01*
X13180063Y-15805436D02*
X13170539Y-15786388D01*
X13170539Y-15786388D02*
X13161015Y-15748293D01*
X13161015Y-15748293D02*
X13161015Y-15700674D01*
X13161015Y-15700674D02*
X13170539Y-15662579D01*
X13170539Y-15662579D02*
X13180063Y-15643531D01*
X13180063Y-15643531D02*
X13189586Y-15634008D01*
X13189586Y-15634008D02*
X13208634Y-15624484D01*
X13361015Y-15805436D02*
X13370539Y-15814960D01*
X13370539Y-15814960D02*
X13361015Y-15824484D01*
X13361015Y-15824484D02*
X13351491Y-15814960D01*
X13351491Y-15814960D02*
X13361015Y-15805436D01*
X13361015Y-15805436D02*
X13361015Y-15824484D01*
X13561015Y-15824484D02*
X13446729Y-15824484D01*
X13503872Y-15824484D02*
X13503872Y-15624484D01*
X13503872Y-15624484D02*
X13484825Y-15653055D01*
X13484825Y-15653055D02*
X13465777Y-15672103D01*
X13465777Y-15672103D02*
X13446729Y-15681627D01*
X13637206Y-15643531D02*
X13646729Y-15634008D01*
X13646729Y-15634008D02*
X13665777Y-15624484D01*
X13665777Y-15624484D02*
X13713396Y-15624484D01*
X13713396Y-15624484D02*
X13732444Y-15634008D01*
X13732444Y-15634008D02*
X13741967Y-15643531D01*
X13741967Y-15643531D02*
X13751491Y-15662579D01*
X13751491Y-15662579D02*
X13751491Y-15681627D01*
X13751491Y-15681627D02*
X13741967Y-15710198D01*
X13741967Y-15710198D02*
X13627682Y-15824484D01*
X13627682Y-15824484D02*
X13751491Y-15824484D01*
X13922920Y-15624484D02*
X13884825Y-15624484D01*
X13884825Y-15624484D02*
X13865777Y-15634008D01*
X13865777Y-15634008D02*
X13856253Y-15643531D01*
X13856253Y-15643531D02*
X13837206Y-15672103D01*
X13837206Y-15672103D02*
X13827682Y-15710198D01*
X13827682Y-15710198D02*
X13827682Y-15786388D01*
X13827682Y-15786388D02*
X13837206Y-15805436D01*
X13837206Y-15805436D02*
X13846729Y-15814960D01*
X13846729Y-15814960D02*
X13865777Y-15824484D01*
X13865777Y-15824484D02*
X13903872Y-15824484D01*
X13903872Y-15824484D02*
X13922920Y-15814960D01*
X13922920Y-15814960D02*
X13932444Y-15805436D01*
X13932444Y-15805436D02*
X13941967Y-15786388D01*
X13941967Y-15786388D02*
X13941967Y-15738769D01*
X13941967Y-15738769D02*
X13932444Y-15719722D01*
X13932444Y-15719722D02*
X13922920Y-15710198D01*
X13922920Y-15710198D02*
X13903872Y-15700674D01*
X13903872Y-15700674D02*
X13865777Y-15700674D01*
X13865777Y-15700674D02*
X13846729Y-15710198D01*
X13846729Y-15710198D02*
X13837206Y-15719722D01*
X13837206Y-15719722D02*
X13827682Y-15738769D01*
X14065777Y-15624484D02*
X14084825Y-15624484D01*
X14084825Y-15624484D02*
X14103872Y-15634008D01*
X14103872Y-15634008D02*
X14113396Y-15643531D01*
X14113396Y-15643531D02*
X14122920Y-15662579D01*
X14122920Y-15662579D02*
X14132444Y-15700674D01*
X14132444Y-15700674D02*
X14132444Y-15748293D01*
X14132444Y-15748293D02*
X14122920Y-15786388D01*
X14122920Y-15786388D02*
X14113396Y-15805436D01*
X14113396Y-15805436D02*
X14103872Y-15814960D01*
X14103872Y-15814960D02*
X14084825Y-15824484D01*
X14084825Y-15824484D02*
X14065777Y-15824484D01*
X14065777Y-15824484D02*
X14046729Y-15814960D01*
X14046729Y-15814960D02*
X14037206Y-15805436D01*
X14037206Y-15805436D02*
X14027682Y-15786388D01*
X14027682Y-15786388D02*
X14018158Y-15748293D01*
X14018158Y-15748293D02*
X14018158Y-15700674D01*
X14018158Y-15700674D02*
X14027682Y-15662579D01*
X14027682Y-15662579D02*
X14037206Y-15643531D01*
X14037206Y-15643531D02*
X14046729Y-15634008D01*
X14046729Y-15634008D02*
X14065777Y-15624484D01*
X14208634Y-15624484D02*
X14208634Y-15662579D01*
X14284825Y-15624484D02*
X14284825Y-15662579D01*
X14580063Y-15900674D02*
X14570539Y-15891150D01*
X14570539Y-15891150D02*
X14551491Y-15862579D01*
X14551491Y-15862579D02*
X14541968Y-15843531D01*
X14541968Y-15843531D02*
X14532444Y-15814960D01*
X14532444Y-15814960D02*
X14522920Y-15767341D01*
X14522920Y-15767341D02*
X14522920Y-15729246D01*
X14522920Y-15729246D02*
X14532444Y-15681627D01*
X14532444Y-15681627D02*
X14541968Y-15653055D01*
X14541968Y-15653055D02*
X14551491Y-15634008D01*
X14551491Y-15634008D02*
X14570539Y-15605436D01*
X14570539Y-15605436D02*
X14580063Y-15595912D01*
X14741968Y-15691150D02*
X14741968Y-15824484D01*
X14694348Y-15614960D02*
X14646729Y-15757817D01*
X14646729Y-15757817D02*
X14770539Y-15757817D01*
X14999110Y-15824484D02*
X14999110Y-15624484D01*
X15084825Y-15824484D02*
X15084825Y-15719722D01*
X15084825Y-15719722D02*
X15075301Y-15700674D01*
X15075301Y-15700674D02*
X15056253Y-15691150D01*
X15056253Y-15691150D02*
X15027682Y-15691150D01*
X15027682Y-15691150D02*
X15008634Y-15700674D01*
X15008634Y-15700674D02*
X14999110Y-15710198D01*
X15208634Y-15824484D02*
X15189587Y-15814960D01*
X15189587Y-15814960D02*
X15180063Y-15805436D01*
X15180063Y-15805436D02*
X15170539Y-15786388D01*
X15170539Y-15786388D02*
X15170539Y-15729246D01*
X15170539Y-15729246D02*
X15180063Y-15710198D01*
X15180063Y-15710198D02*
X15189587Y-15700674D01*
X15189587Y-15700674D02*
X15208634Y-15691150D01*
X15208634Y-15691150D02*
X15237206Y-15691150D01*
X15237206Y-15691150D02*
X15256253Y-15700674D01*
X15256253Y-15700674D02*
X15265777Y-15710198D01*
X15265777Y-15710198D02*
X15275301Y-15729246D01*
X15275301Y-15729246D02*
X15275301Y-15786388D01*
X15275301Y-15786388D02*
X15265777Y-15805436D01*
X15265777Y-15805436D02*
X15256253Y-15814960D01*
X15256253Y-15814960D02*
X15237206Y-15824484D01*
X15237206Y-15824484D02*
X15208634Y-15824484D01*
X15389587Y-15824484D02*
X15370539Y-15814960D01*
X15370539Y-15814960D02*
X15361015Y-15795912D01*
X15361015Y-15795912D02*
X15361015Y-15624484D01*
X15541968Y-15814960D02*
X15522920Y-15824484D01*
X15522920Y-15824484D02*
X15484825Y-15824484D01*
X15484825Y-15824484D02*
X15465777Y-15814960D01*
X15465777Y-15814960D02*
X15456253Y-15795912D01*
X15456253Y-15795912D02*
X15456253Y-15719722D01*
X15456253Y-15719722D02*
X15465777Y-15700674D01*
X15465777Y-15700674D02*
X15484825Y-15691150D01*
X15484825Y-15691150D02*
X15522920Y-15691150D01*
X15522920Y-15691150D02*
X15541968Y-15700674D01*
X15541968Y-15700674D02*
X15551491Y-15719722D01*
X15551491Y-15719722D02*
X15551491Y-15738769D01*
X15551491Y-15738769D02*
X15456253Y-15757817D01*
X15627682Y-15814960D02*
X15646730Y-15824484D01*
X15646730Y-15824484D02*
X15684825Y-15824484D01*
X15684825Y-15824484D02*
X15703872Y-15814960D01*
X15703872Y-15814960D02*
X15713396Y-15795912D01*
X15713396Y-15795912D02*
X15713396Y-15786388D01*
X15713396Y-15786388D02*
X15703872Y-15767341D01*
X15703872Y-15767341D02*
X15684825Y-15757817D01*
X15684825Y-15757817D02*
X15656253Y-15757817D01*
X15656253Y-15757817D02*
X15637206Y-15748293D01*
X15637206Y-15748293D02*
X15627682Y-15729246D01*
X15627682Y-15729246D02*
X15627682Y-15719722D01*
X15627682Y-15719722D02*
X15637206Y-15700674D01*
X15637206Y-15700674D02*
X15656253Y-15691150D01*
X15656253Y-15691150D02*
X15684825Y-15691150D01*
X15684825Y-15691150D02*
X15703872Y-15700674D01*
X15780063Y-15900674D02*
X15789587Y-15891150D01*
X15789587Y-15891150D02*
X15808634Y-15862579D01*
X15808634Y-15862579D02*
X15818158Y-15843531D01*
X15818158Y-15843531D02*
X15827682Y-15814960D01*
X15827682Y-15814960D02*
X15837206Y-15767341D01*
X15837206Y-15767341D02*
X15837206Y-15729246D01*
X15837206Y-15729246D02*
X15827682Y-15681627D01*
X15827682Y-15681627D02*
X15818158Y-15653055D01*
X15818158Y-15653055D02*
X15808634Y-15634008D01*
X15808634Y-15634008D02*
X15789587Y-15605436D01*
X15789587Y-15605436D02*
X15780063Y-15595912D01*
X16141968Y-15900674D02*
X16132444Y-15891150D01*
X16132444Y-15891150D02*
X16113396Y-15862579D01*
X16113396Y-15862579D02*
X16103872Y-15843531D01*
X16103872Y-15843531D02*
X16094349Y-15814960D01*
X16094349Y-15814960D02*
X16084825Y-15767341D01*
X16084825Y-15767341D02*
X16084825Y-15729246D01*
X16084825Y-15729246D02*
X16094349Y-15681627D01*
X16094349Y-15681627D02*
X16103872Y-15653055D01*
X16103872Y-15653055D02*
X16113396Y-15634008D01*
X16113396Y-15634008D02*
X16132444Y-15605436D01*
X16132444Y-15605436D02*
X16141968Y-15595912D01*
X16218158Y-15691150D02*
X16218158Y-15824484D01*
X16218158Y-15710198D02*
X16227682Y-15700674D01*
X16227682Y-15700674D02*
X16246730Y-15691150D01*
X16246730Y-15691150D02*
X16275301Y-15691150D01*
X16275301Y-15691150D02*
X16294349Y-15700674D01*
X16294349Y-15700674D02*
X16303872Y-15719722D01*
X16303872Y-15719722D02*
X16303872Y-15824484D01*
X16427682Y-15824484D02*
X16408634Y-15814960D01*
X16408634Y-15814960D02*
X16399111Y-15805436D01*
X16399111Y-15805436D02*
X16389587Y-15786388D01*
X16389587Y-15786388D02*
X16389587Y-15729246D01*
X16389587Y-15729246D02*
X16399111Y-15710198D01*
X16399111Y-15710198D02*
X16408634Y-15700674D01*
X16408634Y-15700674D02*
X16427682Y-15691150D01*
X16427682Y-15691150D02*
X16456253Y-15691150D01*
X16456253Y-15691150D02*
X16475301Y-15700674D01*
X16475301Y-15700674D02*
X16484825Y-15710198D01*
X16484825Y-15710198D02*
X16494349Y-15729246D01*
X16494349Y-15729246D02*
X16494349Y-15786388D01*
X16494349Y-15786388D02*
X16484825Y-15805436D01*
X16484825Y-15805436D02*
X16475301Y-15814960D01*
X16475301Y-15814960D02*
X16456253Y-15824484D01*
X16456253Y-15824484D02*
X16427682Y-15824484D01*
X16551492Y-15691150D02*
X16627682Y-15691150D01*
X16580063Y-15624484D02*
X16580063Y-15795912D01*
X16580063Y-15795912D02*
X16589587Y-15814960D01*
X16589587Y-15814960D02*
X16608634Y-15824484D01*
X16608634Y-15824484D02*
X16627682Y-15824484D01*
X16846730Y-15691150D02*
X16846730Y-15891150D01*
X16846730Y-15700674D02*
X16865777Y-15691150D01*
X16865777Y-15691150D02*
X16903873Y-15691150D01*
X16903873Y-15691150D02*
X16922920Y-15700674D01*
X16922920Y-15700674D02*
X16932444Y-15710198D01*
X16932444Y-15710198D02*
X16941968Y-15729246D01*
X16941968Y-15729246D02*
X16941968Y-15786388D01*
X16941968Y-15786388D02*
X16932444Y-15805436D01*
X16932444Y-15805436D02*
X16922920Y-15814960D01*
X16922920Y-15814960D02*
X16903873Y-15824484D01*
X16903873Y-15824484D02*
X16865777Y-15824484D01*
X16865777Y-15824484D02*
X16846730Y-15814960D01*
X17056254Y-15824484D02*
X17037206Y-15814960D01*
X17037206Y-15814960D02*
X17027682Y-15795912D01*
X17027682Y-15795912D02*
X17027682Y-15624484D01*
X17218158Y-15824484D02*
X17218158Y-15719722D01*
X17218158Y-15719722D02*
X17208635Y-15700674D01*
X17208635Y-15700674D02*
X17189587Y-15691150D01*
X17189587Y-15691150D02*
X17151492Y-15691150D01*
X17151492Y-15691150D02*
X17132444Y-15700674D01*
X17218158Y-15814960D02*
X17199111Y-15824484D01*
X17199111Y-15824484D02*
X17151492Y-15824484D01*
X17151492Y-15824484D02*
X17132444Y-15814960D01*
X17132444Y-15814960D02*
X17122920Y-15795912D01*
X17122920Y-15795912D02*
X17122920Y-15776865D01*
X17122920Y-15776865D02*
X17132444Y-15757817D01*
X17132444Y-15757817D02*
X17151492Y-15748293D01*
X17151492Y-15748293D02*
X17199111Y-15748293D01*
X17199111Y-15748293D02*
X17218158Y-15738769D01*
X17284825Y-15691150D02*
X17361015Y-15691150D01*
X17313396Y-15624484D02*
X17313396Y-15795912D01*
X17313396Y-15795912D02*
X17322920Y-15814960D01*
X17322920Y-15814960D02*
X17341968Y-15824484D01*
X17341968Y-15824484D02*
X17361015Y-15824484D01*
X17503873Y-15814960D02*
X17484825Y-15824484D01*
X17484825Y-15824484D02*
X17446730Y-15824484D01*
X17446730Y-15824484D02*
X17427682Y-15814960D01*
X17427682Y-15814960D02*
X17418158Y-15795912D01*
X17418158Y-15795912D02*
X17418158Y-15719722D01*
X17418158Y-15719722D02*
X17427682Y-15700674D01*
X17427682Y-15700674D02*
X17446730Y-15691150D01*
X17446730Y-15691150D02*
X17484825Y-15691150D01*
X17484825Y-15691150D02*
X17503873Y-15700674D01*
X17503873Y-15700674D02*
X17513396Y-15719722D01*
X17513396Y-15719722D02*
X17513396Y-15738769D01*
X17513396Y-15738769D02*
X17418158Y-15757817D01*
X17684825Y-15824484D02*
X17684825Y-15624484D01*
X17684825Y-15814960D02*
X17665777Y-15824484D01*
X17665777Y-15824484D02*
X17627682Y-15824484D01*
X17627682Y-15824484D02*
X17608635Y-15814960D01*
X17608635Y-15814960D02*
X17599111Y-15805436D01*
X17599111Y-15805436D02*
X17589587Y-15786388D01*
X17589587Y-15786388D02*
X17589587Y-15729246D01*
X17589587Y-15729246D02*
X17599111Y-15710198D01*
X17599111Y-15710198D02*
X17608635Y-15700674D01*
X17608635Y-15700674D02*
X17627682Y-15691150D01*
X17627682Y-15691150D02*
X17665777Y-15691150D01*
X17665777Y-15691150D02*
X17684825Y-15700674D01*
X17761016Y-15900674D02*
X17770539Y-15891150D01*
X17770539Y-15891150D02*
X17789587Y-15862579D01*
X17789587Y-15862579D02*
X17799111Y-15843531D01*
X17799111Y-15843531D02*
X17808635Y-15814960D01*
X17808635Y-15814960D02*
X17818158Y-15767341D01*
X17818158Y-15767341D02*
X17818158Y-15729246D01*
X17818158Y-15729246D02*
X17808635Y-15681627D01*
X17808635Y-15681627D02*
X17799111Y-15653055D01*
X17799111Y-15653055D02*
X17789587Y-15634008D01*
X17789587Y-15634008D02*
X17770539Y-15605436D01*
X17770539Y-15605436D02*
X17761016Y-15595912D01*
M02*
