M48
; DRILL file {KiCad 8.0.5} date 2024-10-14T21:46:28-0500
; FORMAT={-:-/ absolute / metric / decimal}
; #@! TF.CreationDate,2024-10-14T21:46:28-05:00
; #@! TF.GenerationSoftware,Kicad,Pcbnew,8.0.5
; #@! TF.FileFunction,Plated,1,2,PTH
FMAT,2
METRIC
; #@! TA.AperFunction,Plated,PTH,ViaDrill
T1C0.300
; #@! TA.AperFunction,Plated,PTH,ComponentDrill
T2C0.500
; #@! TA.AperFunction,Plated,PTH,ComponentDrill
T3C0.600
; #@! TA.AperFunction,Plated,PTH,ComponentDrill
T4C1.000
; #@! TA.AperFunction,Plated,PTH,ComponentDrill
T5C1.020
; #@! TA.AperFunction,Plated,PTH,ComponentDrill
T6C1.300
; #@! TA.AperFunction,Plated,PTH,ComponentDrill
T7C2.000
; #@! TA.AperFunction,Plated,PTH,ComponentDrill
T8C2.200
%
G90
G05
T1
X125.9Y-116.9
X125.9Y-117.9
X125.9Y-119.2
X125.9Y-120.3
X125.95Y-114.49
X125.95Y-115.59
X128.475Y-136.9
X131.675Y-141.7
X131.675Y-143.0
X132.2Y-116.85
X132.58Y-115.0
X132.612Y-125.1
X132.687Y-127.5
X133.8Y-118.012
X133.8Y-119.4
X135.856Y-114.994
X136.982Y-129.8
X137.025Y-124.4
X137.713Y-117.2
X137.713Y-119.3
X137.75Y-112.8
X137.775Y-135.75
X137.775Y-136.85
X138.7Y-131.15
X138.8Y-112.8
X138.8Y-117.2
X138.8Y-119.3
X138.9Y-139.54
X140.85Y-138.35
X140.85Y-141.1
X141.5Y-99.31
X141.5Y-100.41
X141.5Y-102.31
X141.5Y-103.41
X142.125Y-125.9
X142.262Y-127.037
X142.649Y-134.9
X142.8Y-135.95
X142.825Y-131.308
X143.6Y-109.8
X143.6Y-110.9
X143.85Y-138.25
X144.2Y-126.775
X144.7Y-106.5
X144.7Y-107.6
X145.3Y-139.54
X145.4Y-133.4
X145.45Y-141.55
X145.6Y-131.9
X146.625Y-129.6
X146.625Y-134.2
X146.875Y-135.75
X146.875Y-136.85
X148.72Y-138.85
X149.55Y-127.15
X149.55Y-129.95
X149.55Y-133.8
X149.575Y-126.228
X149.575Y-129.1
X149.575Y-131.3
X149.575Y-132.4
X149.575Y-134.7
X150.3Y-110.5
X150.3Y-111.3
X151.3Y-130.9
X151.35Y-108.55
X152.4Y-126.6
X153.375Y-122.1
X154.9Y-123.6
X156.1Y-107.4
X156.1Y-108.5
X156.1Y-109.6
X156.1Y-110.7
X156.25Y-126.55
X159.412Y-127.9
T2
X122.7Y-143.7
X126.7Y-122.2
X132.0Y-121.6
X145.2Y-116.7
X148.1Y-87.45
X148.6Y-102.6
T4
X122.6Y-101.66
X122.6Y-104.2
X149.52Y-142.9
X152.06Y-142.9
X154.6Y-142.9
X159.7Y-116.6
X162.24Y-116.6
X165.61Y-126.259
X165.61Y-128.799
X165.65Y-104.1
X165.65Y-106.64
X167.32Y-116.6
X172.4Y-116.6
T5
X113.95Y-98.9
X113.95Y-101.9
X173.95Y-97.9
X173.95Y-100.9
X173.95Y-103.9
X173.95Y-106.9
X174.0Y-128.999
X174.0Y-131.999
T6
X112.24Y-109.36
X112.24Y-119.52
X112.24Y-124.92
X112.24Y-135.08
X122.4Y-109.36
X122.4Y-119.52
X122.4Y-124.92
X122.4Y-135.08
T7
X121.1Y-95.4
X127.7Y-127.4
X127.9Y-143.2
X157.6Y-133.9
X159.05Y-111.35
X162.65Y-140.0
X165.61Y-135.199
X167.338Y-112.692
X167.35Y-98.2
T8
X118.6Y-114.44
X118.6Y-130.0
T3
X137.775Y-139.58G85X137.775Y-140.68
G05
X137.775Y-143.91G85X137.775Y-144.71
G05
X146.425Y-139.58G85X146.425Y-140.68
G05
X146.425Y-143.91G85X146.425Y-144.71
G05
M30
