G04 #@! TF.GenerationSoftware,KiCad,Pcbnew,8.0.5*
G04 #@! TF.CreationDate,2024-10-14T21:46:26-05:00*
G04 #@! TF.ProjectId,USBCPowerPCB,55534243-506f-4776-9572-5043422e6b69,rev?*
G04 #@! TF.SameCoordinates,Original*
G04 #@! TF.FileFunction,Soldermask,Bot*
G04 #@! TF.FilePolarity,Negative*
%FSLAX46Y46*%
G04 Gerber Fmt 4.6, Leading zero omitted, Abs format (unit mm)*
G04 Created by KiCad (PCBNEW 8.0.5) date 2024-10-14 21:46:26*
%MOMM*%
%LPD*%
G01*
G04 APERTURE LIST*
G04 Aperture macros list*
%AMRoundRect*
0 Rectangle with rounded corners*
0 $1 Rounding radius*
0 $2 $3 $4 $5 $6 $7 $8 $9 X,Y pos of 4 corners*
0 Add a 4 corners polygon primitive as box body*
4,1,4,$2,$3,$4,$5,$6,$7,$8,$9,$2,$3,0*
0 Add four circle primitives for the rounded corners*
1,1,$1+$1,$2,$3*
1,1,$1+$1,$4,$5*
1,1,$1+$1,$6,$7*
1,1,$1+$1,$8,$9*
0 Add four rect primitives between the rounded corners*
20,1,$1+$1,$2,$3,$4,$5,0*
20,1,$1+$1,$4,$5,$6,$7,0*
20,1,$1+$1,$6,$7,$8,$9,0*
20,1,$1+$1,$8,$9,$2,$3,0*%
G04 Aperture macros list end*
%ADD10O,1.104000X2.204000*%
%ADD11O,1.104000X1.904000*%
%ADD12C,0.600000*%
%ADD13C,1.950000*%
%ADD14C,3.300000*%
%ADD15C,3.000000*%
%ADD16C,3.200000*%
%ADD17R,1.000000X1.000000*%
%ADD18C,1.270000*%
%ADD19C,1.700000*%
%ADD20R,1.700000X1.700000*%
%ADD21O,1.700000X1.700000*%
%ADD22R,1.500000X1.500000*%
%ADD23C,1.500000*%
%ADD24RoundRect,0.250000X0.262500X0.450000X-0.262500X0.450000X-0.262500X-0.450000X0.262500X-0.450000X0*%
%ADD25RoundRect,0.250000X-0.450000X0.262500X-0.450000X-0.262500X0.450000X-0.262500X0.450000X0.262500X0*%
%ADD26RoundRect,0.250000X-0.262500X-0.450000X0.262500X-0.450000X0.262500X0.450000X-0.262500X0.450000X0*%
%ADD27C,0.500000*%
G04 APERTURE END LIST*
D10*
X146425000Y-140130000D03*
X137775000Y-140130000D03*
D11*
X146425000Y-144310000D03*
X137775000Y-144310000D03*
D12*
X144990000Y-140610000D03*
X139210000Y-140610000D03*
D13*
X122400000Y-119520000D03*
X122400000Y-109360000D03*
D14*
X118600000Y-114440000D03*
D13*
X112240000Y-119520000D03*
X112240000Y-109360000D03*
D15*
X162650000Y-140000000D03*
D16*
X114100000Y-87100000D03*
D15*
X167337500Y-112692500D03*
D17*
X126700000Y-122200000D03*
X122700000Y-143700000D03*
D16*
X173850000Y-141600000D03*
D18*
X175910000Y-94900000D03*
X175910000Y-109900000D03*
D19*
X173950000Y-97900000D03*
X173950000Y-100900000D03*
X173950000Y-103900000D03*
X173950000Y-106900000D03*
D15*
X165610000Y-135199000D03*
D20*
X165650000Y-106640000D03*
D21*
X165650000Y-104100000D03*
D16*
X114100000Y-141600000D03*
D15*
X159050000Y-111350000D03*
X127700000Y-127400000D03*
X167350000Y-98200000D03*
D16*
X173850000Y-87100000D03*
D17*
X148600000Y-102600000D03*
D20*
X165610000Y-126259000D03*
D21*
X165610000Y-128799000D03*
D18*
X175960000Y-125999000D03*
X175960000Y-134999000D03*
D19*
X174000000Y-128999000D03*
X174000000Y-131999000D03*
D15*
X121100000Y-95400000D03*
D17*
X145200000Y-116700000D03*
D20*
X149520000Y-142900000D03*
D21*
X152060000Y-142900000D03*
X154600000Y-142900000D03*
D15*
X127900000Y-143200000D03*
D17*
X148100000Y-87450000D03*
D15*
X157600000Y-133900000D03*
D20*
X122600000Y-101660000D03*
D21*
X122600000Y-104200000D03*
D13*
X122400000Y-135080000D03*
X122400000Y-124920000D03*
D14*
X118600000Y-130000000D03*
D13*
X112240000Y-135080000D03*
X112240000Y-124920000D03*
D18*
X111990000Y-104900000D03*
X111990000Y-95900000D03*
D19*
X113950000Y-101900000D03*
X113950000Y-98900000D03*
D17*
X132000000Y-121600000D03*
D22*
X159700000Y-116600000D03*
D23*
X162240000Y-116600000D03*
X167320000Y-116600000D03*
X172400000Y-116600000D03*
D24*
X148200000Y-127200000D03*
X146375000Y-127200000D03*
D25*
X137850000Y-132375000D03*
X137850000Y-134200000D03*
D26*
X153587500Y-127900000D03*
X155412500Y-127900000D03*
X153375000Y-122100000D03*
X155200000Y-122100000D03*
D24*
X138812500Y-129800000D03*
X136987500Y-129800000D03*
D26*
X157587496Y-127900000D03*
X159412496Y-127900000D03*
X136987500Y-126600000D03*
X138812500Y-126600000D03*
X130787500Y-125100000D03*
X132612500Y-125100000D03*
D27*
X142649496Y-134900000D03*
X140850000Y-138350000D03*
X145450000Y-141550000D03*
X140850000Y-141100000D03*
X148720000Y-138850000D03*
X138900000Y-139540000D03*
X145300000Y-139540000D03*
X156100000Y-109600000D03*
X149550000Y-127150000D03*
X145400000Y-133400000D03*
X132580000Y-115000000D03*
X141500000Y-99310000D03*
X125900000Y-116900000D03*
X137025000Y-124400000D03*
X143600000Y-110900000D03*
X149550000Y-133800000D03*
X156100000Y-110700000D03*
X141500000Y-103410000D03*
X149550000Y-129950000D03*
X125900000Y-119200000D03*
X149575000Y-132400000D03*
X154900000Y-123600000D03*
X137775000Y-135750000D03*
X137775000Y-136850000D03*
X143600000Y-109800000D03*
X156100000Y-108500000D03*
X125900000Y-120300000D03*
X125900000Y-117900000D03*
X125950000Y-114490000D03*
X144700000Y-106500000D03*
X146875000Y-135750000D03*
X144700000Y-107600000D03*
X149575000Y-126227630D03*
X145600000Y-131900000D03*
X131675000Y-143000000D03*
X156100000Y-107400000D03*
X150300000Y-110500000D03*
X135856250Y-114993750D03*
X128475000Y-136900000D03*
X146875000Y-136850000D03*
X132200000Y-116850000D03*
X142824685Y-131307700D03*
X125950000Y-115590000D03*
X149575000Y-129100000D03*
X141500000Y-102310000D03*
X131675000Y-141700000D03*
X141500000Y-100410000D03*
X149575000Y-134700000D03*
X149575000Y-131300000D03*
X146625000Y-134200000D03*
X146625000Y-129600000D03*
X144200000Y-126775000D03*
X132687499Y-127500000D03*
X137712500Y-119300000D03*
X138800000Y-112800000D03*
X137712500Y-117200000D03*
X138800000Y-119300000D03*
X133800000Y-118012500D03*
X137750000Y-112800000D03*
X133800000Y-119400000D03*
X138800000Y-117200000D03*
X152400000Y-126600000D03*
X143850000Y-138250000D03*
X142800000Y-135950000D03*
X132612500Y-125100000D03*
X159412496Y-127900000D03*
X136982500Y-129800000D03*
X151300000Y-130900000D03*
X138700000Y-131150000D03*
X142262500Y-127037500D03*
X142125000Y-125900000D03*
X153375000Y-122100000D03*
X156250000Y-126550000D03*
X151350000Y-108550000D03*
X150300000Y-111300000D03*
M02*
