%TF.GenerationSoftware,KiCad,Pcbnew,8.0.5*%
%TF.CreationDate,2024-10-14T19:38:52-05:00*%
%TF.ProjectId,USBCPowerPCB,55534243-506f-4776-9572-5043422e6b69,rev?*%
%TF.SameCoordinates,Original*%
%TF.FileFunction,Drillmap*%
%TF.FilePolarity,Positive*%
%FSLAX45Y45*%
G04 Gerber Fmt 4.5, Leading zero omitted, Abs format (unit mm)*
G04 Created by KiCad (PCBNEW 8.0.5) date 2024-10-14 19:38:52*
%MOMM*%
%LPD*%
G01*
G04 APERTURE LIST*
%ADD10C,0.100000*%
%ADD11C,0.200000*%
%ADD12C,0.102000*%
%ADD13C,0.130000*%
%ADD14C,0.134600*%
%ADD15C,0.220000*%
G04 APERTURE END LIST*
D10*
X11410000Y-14560031D02*
G75*
G02*
X11010000Y-14155000I0J400031D01*
G01*
X17785031Y-14160000D02*
G75*
G02*
X17380000Y-14560000I-400031J0D01*
G01*
X11410000Y-8310000D02*
X17385000Y-8309969D01*
X11010000Y-8710000D02*
G75*
G02*
X11410000Y-8310000I400000J0D01*
G01*
X17385000Y-8309969D02*
G75*
G02*
X17785000Y-8715000I0J-400031D01*
G01*
X17390000Y-14560000D02*
X11405000Y-14560000D01*
X17785000Y-8715000D02*
X17785000Y-14160000D01*
X11010000Y-8710000D02*
X11010000Y-14160000D01*
D11*
D10*
X12575000Y-11675000D02*
X12605000Y-11705000D01*
X12605000Y-11675000D02*
X12575000Y-11705000D01*
X12575000Y-11775000D02*
X12605000Y-11805000D01*
X12605000Y-11775000D02*
X12575000Y-11805000D01*
X12575000Y-11905000D02*
X12605000Y-11935000D01*
X12605000Y-11905000D02*
X12575000Y-11935000D01*
X12575000Y-12015000D02*
X12605000Y-12045000D01*
X12605000Y-12015000D02*
X12575000Y-12045000D01*
X12580000Y-11434000D02*
X12610000Y-11464000D01*
X12610000Y-11434000D02*
X12580000Y-11464000D01*
X12580000Y-11544000D02*
X12610000Y-11574000D01*
X12610000Y-11544000D02*
X12580000Y-11574000D01*
X12832500Y-13675000D02*
X12862500Y-13705000D01*
X12862500Y-13675000D02*
X12832500Y-13705000D01*
X13152500Y-14155000D02*
X13182500Y-14185000D01*
X13182500Y-14155000D02*
X13152500Y-14185000D01*
X13152500Y-14285000D02*
X13182500Y-14315000D01*
X13182500Y-14285000D02*
X13152500Y-14315000D01*
X13205000Y-11670000D02*
X13235000Y-11700000D01*
X13235000Y-11670000D02*
X13205000Y-11700000D01*
X13243000Y-11485000D02*
X13273000Y-11515000D01*
X13273000Y-11485000D02*
X13243000Y-11515000D01*
X13246250Y-12495000D02*
X13276250Y-12525000D01*
X13276250Y-12495000D02*
X13246250Y-12525000D01*
X13253750Y-12735000D02*
X13283750Y-12765000D01*
X13283750Y-12735000D02*
X13253750Y-12765000D01*
X13365000Y-11786250D02*
X13395000Y-11816250D01*
X13395000Y-11786250D02*
X13365000Y-11816250D01*
X13365000Y-11925000D02*
X13395000Y-11955000D01*
X13395000Y-11925000D02*
X13365000Y-11955000D01*
X13570625Y-11484375D02*
X13600625Y-11514375D01*
X13600625Y-11484375D02*
X13570625Y-11514375D01*
X13683250Y-12965000D02*
X13713250Y-12995000D01*
X13713250Y-12965000D02*
X13683250Y-12995000D01*
X13687500Y-12425000D02*
X13717500Y-12455000D01*
X13717500Y-12425000D02*
X13687500Y-12455000D01*
X13756250Y-11705000D02*
X13786250Y-11735000D01*
X13786250Y-11705000D02*
X13756250Y-11735000D01*
X13756250Y-11915000D02*
X13786250Y-11945000D01*
X13786250Y-11915000D02*
X13756250Y-11945000D01*
X13760000Y-11265000D02*
X13790000Y-11295000D01*
X13790000Y-11265000D02*
X13760000Y-11295000D01*
X13762500Y-13560000D02*
X13792500Y-13590000D01*
X13792500Y-13560000D02*
X13762500Y-13590000D01*
X13762500Y-13670000D02*
X13792500Y-13700000D01*
X13792500Y-13670000D02*
X13762500Y-13700000D01*
X13855000Y-13100000D02*
X13885000Y-13130000D01*
X13885000Y-13100000D02*
X13855000Y-13130000D01*
X13865000Y-11265000D02*
X13895000Y-11295000D01*
X13895000Y-11265000D02*
X13865000Y-11295000D01*
X13865000Y-11705000D02*
X13895000Y-11735000D01*
X13895000Y-11705000D02*
X13865000Y-11735000D01*
X13865000Y-11915000D02*
X13895000Y-11945000D01*
X13895000Y-11915000D02*
X13865000Y-11945000D01*
X13905000Y-13855000D02*
X13935000Y-13885000D01*
X13935000Y-13855000D02*
X13905000Y-13885000D01*
X13985000Y-13855000D02*
X14015000Y-13885000D01*
X14015000Y-13855000D02*
X13985000Y-13885000D01*
X14135000Y-9916000D02*
X14165000Y-9946000D01*
X14165000Y-9916000D02*
X14135000Y-9946000D01*
X14135000Y-10026000D02*
X14165000Y-10056000D01*
X14165000Y-10026000D02*
X14135000Y-10056000D01*
X14135000Y-10216000D02*
X14165000Y-10246000D01*
X14165000Y-10216000D02*
X14135000Y-10246000D01*
X14135000Y-10326000D02*
X14165000Y-10356000D01*
X14165000Y-10326000D02*
X14135000Y-10356000D01*
X14160500Y-13875000D02*
X14190500Y-13905000D01*
X14190500Y-13875000D02*
X14160500Y-13905000D01*
X14175000Y-13705000D02*
X14205000Y-13735000D01*
X14205000Y-13705000D02*
X14175000Y-13735000D01*
X14184962Y-13595000D02*
X14214962Y-13625000D01*
X14214962Y-13595000D02*
X14184962Y-13625000D01*
X14197500Y-12575000D02*
X14227500Y-12605000D01*
X14227500Y-12575000D02*
X14197500Y-12605000D01*
X14211250Y-12688750D02*
X14241250Y-12718750D01*
X14241250Y-12688750D02*
X14211250Y-12718750D01*
X14260500Y-13875000D02*
X14290500Y-13905000D01*
X14290500Y-13875000D02*
X14260500Y-13905000D01*
X14267468Y-13115770D02*
X14297468Y-13145770D01*
X14297468Y-13115770D02*
X14267468Y-13145770D01*
X14345000Y-10965000D02*
X14375000Y-10995000D01*
X14375000Y-10965000D02*
X14345000Y-10995000D01*
X14345000Y-11075000D02*
X14375000Y-11105000D01*
X14375000Y-11075000D02*
X14345000Y-11105000D01*
X14405000Y-12662500D02*
X14435000Y-12692500D01*
X14435000Y-12662500D02*
X14405000Y-12692500D01*
X14435000Y-13855000D02*
X14465000Y-13885000D01*
X14465000Y-13855000D02*
X14435000Y-13885000D01*
X14455000Y-10635000D02*
X14485000Y-10665000D01*
X14485000Y-10635000D02*
X14455000Y-10665000D01*
X14455000Y-10745000D02*
X14485000Y-10775000D01*
X14485000Y-10745000D02*
X14455000Y-10775000D01*
X14515000Y-13825000D02*
X14545000Y-13855000D01*
X14545000Y-13825000D02*
X14515000Y-13855000D01*
X14525000Y-13325000D02*
X14555000Y-13355000D01*
X14555000Y-13325000D02*
X14525000Y-13355000D01*
X14545000Y-13175000D02*
X14575000Y-13205000D01*
X14575000Y-13175000D02*
X14545000Y-13205000D01*
X14647500Y-12945000D02*
X14677500Y-12975000D01*
X14677500Y-12945000D02*
X14647500Y-12975000D01*
X14647500Y-13405000D02*
X14677500Y-13435000D01*
X14677500Y-13405000D02*
X14647500Y-13435000D01*
X14672500Y-13560000D02*
X14702500Y-13590000D01*
X14702500Y-13560000D02*
X14672500Y-13590000D01*
X14672500Y-13670000D02*
X14702500Y-13700000D01*
X14702500Y-13670000D02*
X14672500Y-13700000D01*
X14940000Y-12700000D02*
X14970000Y-12730000D01*
X14970000Y-12700000D02*
X14940000Y-12730000D01*
X14940000Y-12980000D02*
X14970000Y-13010000D01*
X14970000Y-12980000D02*
X14940000Y-13010000D01*
X14940000Y-13365000D02*
X14970000Y-13395000D01*
X14970000Y-13365000D02*
X14940000Y-13395000D01*
X14942500Y-12607763D02*
X14972500Y-12637763D01*
X14972500Y-12607763D02*
X14942500Y-12637763D01*
X14942500Y-12895000D02*
X14972500Y-12925000D01*
X14972500Y-12895000D02*
X14942500Y-12925000D01*
X14942500Y-13115000D02*
X14972500Y-13145000D01*
X14972500Y-13115000D02*
X14942500Y-13145000D01*
X14942500Y-13225000D02*
X14972500Y-13255000D01*
X14972500Y-13225000D02*
X14942500Y-13255000D01*
X14942500Y-13455000D02*
X14972500Y-13485000D01*
X14972500Y-13455000D02*
X14942500Y-13485000D01*
X15015000Y-11035000D02*
X15045000Y-11065000D01*
X15045000Y-11035000D02*
X15015000Y-11065000D01*
X15015000Y-11115000D02*
X15045000Y-11145000D01*
X15045000Y-11115000D02*
X15015000Y-11145000D01*
X15107000Y-13965000D02*
X15137000Y-13995000D01*
X15137000Y-13965000D02*
X15107000Y-13995000D01*
X15115000Y-13075000D02*
X15145000Y-13105000D01*
X15145000Y-13075000D02*
X15115000Y-13105000D01*
X15120000Y-10840000D02*
X15150000Y-10870000D01*
X15150000Y-10840000D02*
X15120000Y-10870000D01*
X15187000Y-13965000D02*
X15217000Y-13995000D01*
X15217000Y-13965000D02*
X15187000Y-13995000D01*
X15225000Y-12645000D02*
X15255000Y-12675000D01*
X15255000Y-12645000D02*
X15225000Y-12675000D01*
X15322500Y-12195000D02*
X15352500Y-12225000D01*
X15352500Y-12195000D02*
X15322500Y-12225000D01*
X15475000Y-12345000D02*
X15505000Y-12375000D01*
X15505000Y-12345000D02*
X15475000Y-12375000D01*
X15595000Y-10725000D02*
X15625000Y-10755000D01*
X15625000Y-10725000D02*
X15595000Y-10755000D01*
X15595000Y-10835000D02*
X15625000Y-10865000D01*
X15625000Y-10835000D02*
X15595000Y-10865000D01*
X15595000Y-10945000D02*
X15625000Y-10975000D01*
X15625000Y-10945000D02*
X15595000Y-10975000D01*
X15595000Y-11055000D02*
X15625000Y-11085000D01*
X15625000Y-11055000D02*
X15595000Y-11085000D01*
X15610000Y-12640000D02*
X15640000Y-12670000D01*
X15640000Y-12640000D02*
X15610000Y-12670000D01*
X15926250Y-12775000D02*
X15956250Y-12805000D01*
X15956250Y-12775000D02*
X15926250Y-12805000D01*
X12295000Y-14370000D02*
G75*
G02*
X12245000Y-14370000I-25000J0D01*
G01*
X12245000Y-14370000D02*
G75*
G02*
X12295000Y-14370000I25000J0D01*
G01*
X12695000Y-12220000D02*
G75*
G02*
X12645000Y-12220000I-25000J0D01*
G01*
X12645000Y-12220000D02*
G75*
G02*
X12695000Y-12220000I25000J0D01*
G01*
X13225000Y-12160000D02*
G75*
G02*
X13175000Y-12160000I-25000J0D01*
G01*
X13175000Y-12160000D02*
G75*
G02*
X13225000Y-12160000I25000J0D01*
G01*
X14545000Y-11670000D02*
G75*
G02*
X14495000Y-11670000I-25000J0D01*
G01*
X14495000Y-11670000D02*
G75*
G02*
X14545000Y-11670000I25000J0D01*
G01*
X14835000Y-8745000D02*
G75*
G02*
X14785000Y-8745000I-25000J0D01*
G01*
X14785000Y-8745000D02*
G75*
G02*
X14835000Y-8745000I25000J0D01*
G01*
X14885000Y-10260000D02*
G75*
G02*
X14835000Y-10260000I-25000J0D01*
G01*
X14835000Y-10260000D02*
G75*
G02*
X14885000Y-10260000I25000J0D01*
G01*
X12260000Y-10116000D02*
X12260000Y-10216000D01*
X12210000Y-10166000D02*
X12310000Y-10166000D01*
X12260000Y-10370000D02*
X12260000Y-10470000D01*
X12210000Y-10420000D02*
X12310000Y-10420000D01*
X15242000Y-14240000D02*
X15242000Y-14340000D01*
X15192000Y-14290000D02*
X15292000Y-14290000D01*
X15496000Y-14240000D02*
X15496000Y-14340000D01*
X15446000Y-14290000D02*
X15546000Y-14290000D01*
X15750000Y-14240000D02*
X15750000Y-14340000D01*
X15700000Y-14290000D02*
X15800000Y-14290000D01*
X15970000Y-11610000D02*
X15970000Y-11710000D01*
X15920000Y-11660000D02*
X16020000Y-11660000D01*
X16224000Y-11610000D02*
X16224000Y-11710000D01*
X16174000Y-11660000D02*
X16274000Y-11660000D01*
X16561000Y-12575900D02*
X16561000Y-12675900D01*
X16511000Y-12625900D02*
X16611000Y-12625900D01*
X16561000Y-12829900D02*
X16561000Y-12929900D01*
X16511000Y-12879900D02*
X16611000Y-12879900D01*
X16565000Y-10360000D02*
X16565000Y-10460000D01*
X16515000Y-10410000D02*
X16615000Y-10410000D01*
X16565000Y-10614000D02*
X16565000Y-10714000D01*
X16515000Y-10664000D02*
X16615000Y-10664000D01*
X16732000Y-11610000D02*
X16732000Y-11710000D01*
X16682000Y-11660000D02*
X16782000Y-11660000D01*
X17240000Y-11610000D02*
X17240000Y-11710000D01*
X17190000Y-11660000D02*
X17290000Y-11660000D01*
D12*
X11431063Y-9926063D02*
X11431063Y-9853937D01*
X11358937Y-9853937D01*
X11358937Y-9926063D01*
X11431063Y-9926063D01*
X11431063Y-10226063D02*
X11431063Y-10153937D01*
X11358937Y-10153937D01*
X11358937Y-10226063D01*
X11431063Y-10226063D01*
X17431063Y-9826063D02*
X17431063Y-9753937D01*
X17358937Y-9753937D01*
X17358937Y-9826063D01*
X17431063Y-9826063D01*
X17431063Y-10126063D02*
X17431063Y-10053937D01*
X17358937Y-10053937D01*
X17358937Y-10126063D01*
X17431063Y-10126063D01*
X17431063Y-10426063D02*
X17431063Y-10353937D01*
X17358937Y-10353937D01*
X17358937Y-10426063D01*
X17431063Y-10426063D01*
X17431063Y-10726063D02*
X17431063Y-10653937D01*
X17358937Y-10653937D01*
X17358937Y-10726063D01*
X17431063Y-10726063D01*
X17436063Y-12935963D02*
X17436063Y-12863837D01*
X17363937Y-12863837D01*
X17363937Y-12935963D01*
X17436063Y-12935963D01*
X17436063Y-13235963D02*
X17436063Y-13163837D01*
X17363937Y-13163837D01*
X17363937Y-13235963D01*
X17436063Y-13235963D01*
D13*
X11224000Y-11001000D02*
X11289000Y-10936000D01*
X11224000Y-10871000D01*
X11159000Y-10936000D01*
X11224000Y-11001000D01*
X11224000Y-12017000D02*
X11289000Y-11952000D01*
X11224000Y-11887000D01*
X11159000Y-11952000D01*
X11224000Y-12017000D01*
X11224000Y-12557000D02*
X11289000Y-12492000D01*
X11224000Y-12427000D01*
X11159000Y-12492000D01*
X11224000Y-12557000D01*
X11224000Y-13573000D02*
X11289000Y-13508000D01*
X11224000Y-13443000D01*
X11159000Y-13508000D01*
X11224000Y-13573000D01*
X12240000Y-11001000D02*
X12305000Y-10936000D01*
X12240000Y-10871000D01*
X12175000Y-10936000D01*
X12240000Y-11001000D01*
X12240000Y-12017000D02*
X12305000Y-11952000D01*
X12240000Y-11887000D01*
X12175000Y-11952000D01*
X12240000Y-12017000D01*
X12240000Y-12557000D02*
X12305000Y-12492000D01*
X12240000Y-12427000D01*
X12175000Y-12492000D01*
X12240000Y-12557000D01*
X12240000Y-13573000D02*
X12305000Y-13508000D01*
X12240000Y-13443000D01*
X12175000Y-13508000D01*
X12240000Y-13573000D01*
D14*
X13726200Y-13952700D02*
X13860800Y-14087300D01*
X13860800Y-13952700D02*
X13726200Y-14087300D01*
X13860800Y-14020000D02*
G75*
G02*
X13726200Y-14020000I-67300J0D01*
G01*
X13726200Y-14020000D02*
G75*
G02*
X13860800Y-14020000I67300J0D01*
G01*
X13726200Y-14332700D02*
X13860800Y-14467300D01*
X13860800Y-14332700D02*
X13726200Y-14467300D01*
X13860800Y-14400000D02*
G75*
G02*
X13726200Y-14400000I-67300J0D01*
G01*
X13726200Y-14400000D02*
G75*
G02*
X13860800Y-14400000I67300J0D01*
G01*
X14590200Y-13952700D02*
X14724800Y-14087300D01*
X14724800Y-13952700D02*
X14590200Y-14087300D01*
X14724800Y-14020000D02*
G75*
G02*
X14590200Y-14020000I-67300J0D01*
G01*
X14590200Y-14020000D02*
G75*
G02*
X14724800Y-14020000I67300J0D01*
G01*
X14590200Y-14332700D02*
X14724800Y-14467300D01*
X14724800Y-14332700D02*
X14590200Y-14467300D01*
X14724800Y-14400000D02*
G75*
G02*
X14590200Y-14400000I-67300J0D01*
G01*
X14590200Y-14400000D02*
G75*
G02*
X14724800Y-14400000I67300J0D01*
G01*
D11*
X12010000Y-9440000D02*
X12210000Y-9640000D01*
X12210000Y-9440000D02*
X12010000Y-9640000D01*
X12110000Y-9440000D02*
X12110000Y-9640000D01*
X12010000Y-9540000D02*
X12210000Y-9540000D01*
X12670000Y-12640000D02*
X12870000Y-12840000D01*
X12870000Y-12640000D02*
X12670000Y-12840000D01*
X12770000Y-12640000D02*
X12770000Y-12840000D01*
X12670000Y-12740000D02*
X12870000Y-12740000D01*
X12690000Y-14220000D02*
X12890000Y-14420000D01*
X12890000Y-14220000D02*
X12690000Y-14420000D01*
X12790000Y-14220000D02*
X12790000Y-14420000D01*
X12690000Y-14320000D02*
X12890000Y-14320000D01*
X15660000Y-13290000D02*
X15860000Y-13490000D01*
X15860000Y-13290000D02*
X15660000Y-13490000D01*
X15760000Y-13290000D02*
X15760000Y-13490000D01*
X15660000Y-13390000D02*
X15860000Y-13390000D01*
X15805000Y-11035000D02*
X16005000Y-11235000D01*
X16005000Y-11035000D02*
X15805000Y-11235000D01*
X15905000Y-11035000D02*
X15905000Y-11235000D01*
X15805000Y-11135000D02*
X16005000Y-11135000D01*
X16165000Y-13900000D02*
X16365000Y-14100000D01*
X16365000Y-13900000D02*
X16165000Y-14100000D01*
X16265000Y-13900000D02*
X16265000Y-14100000D01*
X16165000Y-14000000D02*
X16365000Y-14000000D01*
X16461000Y-13419900D02*
X16661000Y-13619900D01*
X16661000Y-13419900D02*
X16461000Y-13619900D01*
X16561000Y-13419900D02*
X16561000Y-13619900D01*
X16461000Y-13519900D02*
X16661000Y-13519900D01*
X16633750Y-11169250D02*
X16833750Y-11369250D01*
X16833750Y-11169250D02*
X16633750Y-11369250D01*
X16733750Y-11169250D02*
X16733750Y-11369250D01*
X16633750Y-11269250D02*
X16833750Y-11269250D01*
X16635000Y-9720000D02*
X16835000Y-9920000D01*
X16835000Y-9720000D02*
X16635000Y-9920000D01*
X16735000Y-9720000D02*
X16735000Y-9920000D01*
X16635000Y-9820000D02*
X16835000Y-9820000D01*
D15*
X11750000Y-11334000D02*
X11970000Y-11554000D01*
X11970000Y-11334000D02*
X11750000Y-11554000D01*
X11937782Y-11521782D02*
X11937782Y-11366217D01*
X11782217Y-11366217D01*
X11782217Y-11521782D01*
X11937782Y-11521782D01*
X11750000Y-12890000D02*
X11970000Y-13110000D01*
X11970000Y-12890000D02*
X11750000Y-13110000D01*
X11937782Y-13077782D02*
X11937782Y-12922217D01*
X11782217Y-12922217D01*
X11782217Y-13077782D01*
X11937782Y-13077782D01*
D11*
X11265746Y-14876515D02*
X11265746Y-14676515D01*
X11265746Y-14676515D02*
X11313365Y-14676515D01*
X11313365Y-14676515D02*
X11341936Y-14686039D01*
X11341936Y-14686039D02*
X11360984Y-14705086D01*
X11360984Y-14705086D02*
X11370508Y-14724134D01*
X11370508Y-14724134D02*
X11380031Y-14762229D01*
X11380031Y-14762229D02*
X11380031Y-14790801D01*
X11380031Y-14790801D02*
X11370508Y-14828896D01*
X11370508Y-14828896D02*
X11360984Y-14847944D01*
X11360984Y-14847944D02*
X11341936Y-14866991D01*
X11341936Y-14866991D02*
X11313365Y-14876515D01*
X11313365Y-14876515D02*
X11265746Y-14876515D01*
X11465746Y-14876515D02*
X11465746Y-14743182D01*
X11465746Y-14781277D02*
X11475269Y-14762229D01*
X11475269Y-14762229D02*
X11484793Y-14752705D01*
X11484793Y-14752705D02*
X11503841Y-14743182D01*
X11503841Y-14743182D02*
X11522889Y-14743182D01*
X11589555Y-14876515D02*
X11589555Y-14743182D01*
X11589555Y-14676515D02*
X11580031Y-14686039D01*
X11580031Y-14686039D02*
X11589555Y-14695563D01*
X11589555Y-14695563D02*
X11599079Y-14686039D01*
X11599079Y-14686039D02*
X11589555Y-14676515D01*
X11589555Y-14676515D02*
X11589555Y-14695563D01*
X11713365Y-14876515D02*
X11694317Y-14866991D01*
X11694317Y-14866991D02*
X11684793Y-14847944D01*
X11684793Y-14847944D02*
X11684793Y-14676515D01*
X11818127Y-14876515D02*
X11799079Y-14866991D01*
X11799079Y-14866991D02*
X11789555Y-14847944D01*
X11789555Y-14847944D02*
X11789555Y-14676515D01*
X12046698Y-14876515D02*
X12046698Y-14676515D01*
X12046698Y-14676515D02*
X12113365Y-14819372D01*
X12113365Y-14819372D02*
X12180031Y-14676515D01*
X12180031Y-14676515D02*
X12180031Y-14876515D01*
X12360984Y-14876515D02*
X12360984Y-14771753D01*
X12360984Y-14771753D02*
X12351460Y-14752705D01*
X12351460Y-14752705D02*
X12332412Y-14743182D01*
X12332412Y-14743182D02*
X12294317Y-14743182D01*
X12294317Y-14743182D02*
X12275269Y-14752705D01*
X12360984Y-14866991D02*
X12341936Y-14876515D01*
X12341936Y-14876515D02*
X12294317Y-14876515D01*
X12294317Y-14876515D02*
X12275269Y-14866991D01*
X12275269Y-14866991D02*
X12265746Y-14847944D01*
X12265746Y-14847944D02*
X12265746Y-14828896D01*
X12265746Y-14828896D02*
X12275269Y-14809848D01*
X12275269Y-14809848D02*
X12294317Y-14800325D01*
X12294317Y-14800325D02*
X12341936Y-14800325D01*
X12341936Y-14800325D02*
X12360984Y-14790801D01*
X12456222Y-14743182D02*
X12456222Y-14943182D01*
X12456222Y-14752705D02*
X12475269Y-14743182D01*
X12475269Y-14743182D02*
X12513365Y-14743182D01*
X12513365Y-14743182D02*
X12532412Y-14752705D01*
X12532412Y-14752705D02*
X12541936Y-14762229D01*
X12541936Y-14762229D02*
X12551460Y-14781277D01*
X12551460Y-14781277D02*
X12551460Y-14838420D01*
X12551460Y-14838420D02*
X12541936Y-14857467D01*
X12541936Y-14857467D02*
X12532412Y-14866991D01*
X12532412Y-14866991D02*
X12513365Y-14876515D01*
X12513365Y-14876515D02*
X12475269Y-14876515D01*
X12475269Y-14876515D02*
X12456222Y-14866991D01*
X12637174Y-14857467D02*
X12646698Y-14866991D01*
X12646698Y-14866991D02*
X12637174Y-14876515D01*
X12637174Y-14876515D02*
X12627650Y-14866991D01*
X12627650Y-14866991D02*
X12637174Y-14857467D01*
X12637174Y-14857467D02*
X12637174Y-14876515D01*
X12637174Y-14752705D02*
X12646698Y-14762229D01*
X12646698Y-14762229D02*
X12637174Y-14771753D01*
X12637174Y-14771753D02*
X12627650Y-14762229D01*
X12627650Y-14762229D02*
X12637174Y-14752705D01*
X12637174Y-14752705D02*
X12637174Y-14771753D01*
D10*
X10974969Y-15190031D02*
X11004969Y-15220031D01*
X11004969Y-15190031D02*
X10974969Y-15220031D01*
D11*
X11303841Y-15096515D02*
X11322889Y-15096515D01*
X11322889Y-15096515D02*
X11341936Y-15106039D01*
X11341936Y-15106039D02*
X11351460Y-15115563D01*
X11351460Y-15115563D02*
X11360984Y-15134610D01*
X11360984Y-15134610D02*
X11370508Y-15172705D01*
X11370508Y-15172705D02*
X11370508Y-15220325D01*
X11370508Y-15220325D02*
X11360984Y-15258420D01*
X11360984Y-15258420D02*
X11351460Y-15277467D01*
X11351460Y-15277467D02*
X11341936Y-15286991D01*
X11341936Y-15286991D02*
X11322889Y-15296515D01*
X11322889Y-15296515D02*
X11303841Y-15296515D01*
X11303841Y-15296515D02*
X11284793Y-15286991D01*
X11284793Y-15286991D02*
X11275269Y-15277467D01*
X11275269Y-15277467D02*
X11265746Y-15258420D01*
X11265746Y-15258420D02*
X11256222Y-15220325D01*
X11256222Y-15220325D02*
X11256222Y-15172705D01*
X11256222Y-15172705D02*
X11265746Y-15134610D01*
X11265746Y-15134610D02*
X11275269Y-15115563D01*
X11275269Y-15115563D02*
X11284793Y-15106039D01*
X11284793Y-15106039D02*
X11303841Y-15096515D01*
X11456222Y-15277467D02*
X11465746Y-15286991D01*
X11465746Y-15286991D02*
X11456222Y-15296515D01*
X11456222Y-15296515D02*
X11446698Y-15286991D01*
X11446698Y-15286991D02*
X11456222Y-15277467D01*
X11456222Y-15277467D02*
X11456222Y-15296515D01*
X11532412Y-15096515D02*
X11656222Y-15096515D01*
X11656222Y-15096515D02*
X11589555Y-15172705D01*
X11589555Y-15172705D02*
X11618127Y-15172705D01*
X11618127Y-15172705D02*
X11637174Y-15182229D01*
X11637174Y-15182229D02*
X11646698Y-15191753D01*
X11646698Y-15191753D02*
X11656222Y-15210801D01*
X11656222Y-15210801D02*
X11656222Y-15258420D01*
X11656222Y-15258420D02*
X11646698Y-15277467D01*
X11646698Y-15277467D02*
X11637174Y-15286991D01*
X11637174Y-15286991D02*
X11618127Y-15296515D01*
X11618127Y-15296515D02*
X11560984Y-15296515D01*
X11560984Y-15296515D02*
X11541936Y-15286991D01*
X11541936Y-15286991D02*
X11532412Y-15277467D01*
X11780031Y-15096515D02*
X11799079Y-15096515D01*
X11799079Y-15096515D02*
X11818127Y-15106039D01*
X11818127Y-15106039D02*
X11827650Y-15115563D01*
X11827650Y-15115563D02*
X11837174Y-15134610D01*
X11837174Y-15134610D02*
X11846698Y-15172705D01*
X11846698Y-15172705D02*
X11846698Y-15220325D01*
X11846698Y-15220325D02*
X11837174Y-15258420D01*
X11837174Y-15258420D02*
X11827650Y-15277467D01*
X11827650Y-15277467D02*
X11818127Y-15286991D01*
X11818127Y-15286991D02*
X11799079Y-15296515D01*
X11799079Y-15296515D02*
X11780031Y-15296515D01*
X11780031Y-15296515D02*
X11760984Y-15286991D01*
X11760984Y-15286991D02*
X11751460Y-15277467D01*
X11751460Y-15277467D02*
X11741936Y-15258420D01*
X11741936Y-15258420D02*
X11732412Y-15220325D01*
X11732412Y-15220325D02*
X11732412Y-15172705D01*
X11732412Y-15172705D02*
X11741936Y-15134610D01*
X11741936Y-15134610D02*
X11751460Y-15115563D01*
X11751460Y-15115563D02*
X11760984Y-15106039D01*
X11760984Y-15106039D02*
X11780031Y-15096515D01*
X11970508Y-15096515D02*
X11989555Y-15096515D01*
X11989555Y-15096515D02*
X12008603Y-15106039D01*
X12008603Y-15106039D02*
X12018127Y-15115563D01*
X12018127Y-15115563D02*
X12027650Y-15134610D01*
X12027650Y-15134610D02*
X12037174Y-15172705D01*
X12037174Y-15172705D02*
X12037174Y-15220325D01*
X12037174Y-15220325D02*
X12027650Y-15258420D01*
X12027650Y-15258420D02*
X12018127Y-15277467D01*
X12018127Y-15277467D02*
X12008603Y-15286991D01*
X12008603Y-15286991D02*
X11989555Y-15296515D01*
X11989555Y-15296515D02*
X11970508Y-15296515D01*
X11970508Y-15296515D02*
X11951460Y-15286991D01*
X11951460Y-15286991D02*
X11941936Y-15277467D01*
X11941936Y-15277467D02*
X11932412Y-15258420D01*
X11932412Y-15258420D02*
X11922889Y-15220325D01*
X11922889Y-15220325D02*
X11922889Y-15172705D01*
X11922889Y-15172705D02*
X11932412Y-15134610D01*
X11932412Y-15134610D02*
X11941936Y-15115563D01*
X11941936Y-15115563D02*
X11951460Y-15106039D01*
X11951460Y-15106039D02*
X11970508Y-15096515D01*
X12122889Y-15296515D02*
X12122889Y-15163182D01*
X12122889Y-15182229D02*
X12132412Y-15172705D01*
X12132412Y-15172705D02*
X12151460Y-15163182D01*
X12151460Y-15163182D02*
X12180031Y-15163182D01*
X12180031Y-15163182D02*
X12199079Y-15172705D01*
X12199079Y-15172705D02*
X12208603Y-15191753D01*
X12208603Y-15191753D02*
X12208603Y-15296515D01*
X12208603Y-15191753D02*
X12218127Y-15172705D01*
X12218127Y-15172705D02*
X12237174Y-15163182D01*
X12237174Y-15163182D02*
X12265746Y-15163182D01*
X12265746Y-15163182D02*
X12284793Y-15172705D01*
X12284793Y-15172705D02*
X12294317Y-15191753D01*
X12294317Y-15191753D02*
X12294317Y-15296515D01*
X12389555Y-15296515D02*
X12389555Y-15163182D01*
X12389555Y-15182229D02*
X12399079Y-15172705D01*
X12399079Y-15172705D02*
X12418127Y-15163182D01*
X12418127Y-15163182D02*
X12446698Y-15163182D01*
X12446698Y-15163182D02*
X12465746Y-15172705D01*
X12465746Y-15172705D02*
X12475270Y-15191753D01*
X12475270Y-15191753D02*
X12475270Y-15296515D01*
X12475270Y-15191753D02*
X12484793Y-15172705D01*
X12484793Y-15172705D02*
X12503841Y-15163182D01*
X12503841Y-15163182D02*
X12532412Y-15163182D01*
X12532412Y-15163182D02*
X12551460Y-15172705D01*
X12551460Y-15172705D02*
X12560984Y-15191753D01*
X12560984Y-15191753D02*
X12560984Y-15296515D01*
X12951460Y-15086991D02*
X12780032Y-15344134D01*
X13208603Y-15096515D02*
X13227651Y-15096515D01*
X13227651Y-15096515D02*
X13246698Y-15106039D01*
X13246698Y-15106039D02*
X13256222Y-15115563D01*
X13256222Y-15115563D02*
X13265746Y-15134610D01*
X13265746Y-15134610D02*
X13275270Y-15172705D01*
X13275270Y-15172705D02*
X13275270Y-15220325D01*
X13275270Y-15220325D02*
X13265746Y-15258420D01*
X13265746Y-15258420D02*
X13256222Y-15277467D01*
X13256222Y-15277467D02*
X13246698Y-15286991D01*
X13246698Y-15286991D02*
X13227651Y-15296515D01*
X13227651Y-15296515D02*
X13208603Y-15296515D01*
X13208603Y-15296515D02*
X13189555Y-15286991D01*
X13189555Y-15286991D02*
X13180032Y-15277467D01*
X13180032Y-15277467D02*
X13170508Y-15258420D01*
X13170508Y-15258420D02*
X13160984Y-15220325D01*
X13160984Y-15220325D02*
X13160984Y-15172705D01*
X13160984Y-15172705D02*
X13170508Y-15134610D01*
X13170508Y-15134610D02*
X13180032Y-15115563D01*
X13180032Y-15115563D02*
X13189555Y-15106039D01*
X13189555Y-15106039D02*
X13208603Y-15096515D01*
X13360984Y-15277467D02*
X13370508Y-15286991D01*
X13370508Y-15286991D02*
X13360984Y-15296515D01*
X13360984Y-15296515D02*
X13351460Y-15286991D01*
X13351460Y-15286991D02*
X13360984Y-15277467D01*
X13360984Y-15277467D02*
X13360984Y-15296515D01*
X13494317Y-15096515D02*
X13513365Y-15096515D01*
X13513365Y-15096515D02*
X13532413Y-15106039D01*
X13532413Y-15106039D02*
X13541936Y-15115563D01*
X13541936Y-15115563D02*
X13551460Y-15134610D01*
X13551460Y-15134610D02*
X13560984Y-15172705D01*
X13560984Y-15172705D02*
X13560984Y-15220325D01*
X13560984Y-15220325D02*
X13551460Y-15258420D01*
X13551460Y-15258420D02*
X13541936Y-15277467D01*
X13541936Y-15277467D02*
X13532413Y-15286991D01*
X13532413Y-15286991D02*
X13513365Y-15296515D01*
X13513365Y-15296515D02*
X13494317Y-15296515D01*
X13494317Y-15296515D02*
X13475270Y-15286991D01*
X13475270Y-15286991D02*
X13465746Y-15277467D01*
X13465746Y-15277467D02*
X13456222Y-15258420D01*
X13456222Y-15258420D02*
X13446698Y-15220325D01*
X13446698Y-15220325D02*
X13446698Y-15172705D01*
X13446698Y-15172705D02*
X13456222Y-15134610D01*
X13456222Y-15134610D02*
X13465746Y-15115563D01*
X13465746Y-15115563D02*
X13475270Y-15106039D01*
X13475270Y-15106039D02*
X13494317Y-15096515D01*
X13751460Y-15296515D02*
X13637174Y-15296515D01*
X13694317Y-15296515D02*
X13694317Y-15096515D01*
X13694317Y-15096515D02*
X13675270Y-15125086D01*
X13675270Y-15125086D02*
X13656222Y-15144134D01*
X13656222Y-15144134D02*
X13637174Y-15153658D01*
X13941936Y-15296515D02*
X13827651Y-15296515D01*
X13884793Y-15296515D02*
X13884793Y-15096515D01*
X13884793Y-15096515D02*
X13865746Y-15125086D01*
X13865746Y-15125086D02*
X13846698Y-15144134D01*
X13846698Y-15144134D02*
X13827651Y-15153658D01*
X14056222Y-15182229D02*
X14037174Y-15172705D01*
X14037174Y-15172705D02*
X14027651Y-15163182D01*
X14027651Y-15163182D02*
X14018127Y-15144134D01*
X14018127Y-15144134D02*
X14018127Y-15134610D01*
X14018127Y-15134610D02*
X14027651Y-15115563D01*
X14027651Y-15115563D02*
X14037174Y-15106039D01*
X14037174Y-15106039D02*
X14056222Y-15096515D01*
X14056222Y-15096515D02*
X14094317Y-15096515D01*
X14094317Y-15096515D02*
X14113365Y-15106039D01*
X14113365Y-15106039D02*
X14122889Y-15115563D01*
X14122889Y-15115563D02*
X14132413Y-15134610D01*
X14132413Y-15134610D02*
X14132413Y-15144134D01*
X14132413Y-15144134D02*
X14122889Y-15163182D01*
X14122889Y-15163182D02*
X14113365Y-15172705D01*
X14113365Y-15172705D02*
X14094317Y-15182229D01*
X14094317Y-15182229D02*
X14056222Y-15182229D01*
X14056222Y-15182229D02*
X14037174Y-15191753D01*
X14037174Y-15191753D02*
X14027651Y-15201277D01*
X14027651Y-15201277D02*
X14018127Y-15220325D01*
X14018127Y-15220325D02*
X14018127Y-15258420D01*
X14018127Y-15258420D02*
X14027651Y-15277467D01*
X14027651Y-15277467D02*
X14037174Y-15286991D01*
X14037174Y-15286991D02*
X14056222Y-15296515D01*
X14056222Y-15296515D02*
X14094317Y-15296515D01*
X14094317Y-15296515D02*
X14113365Y-15286991D01*
X14113365Y-15286991D02*
X14122889Y-15277467D01*
X14122889Y-15277467D02*
X14132413Y-15258420D01*
X14132413Y-15258420D02*
X14132413Y-15220325D01*
X14132413Y-15220325D02*
X14122889Y-15201277D01*
X14122889Y-15201277D02*
X14113365Y-15191753D01*
X14113365Y-15191753D02*
X14094317Y-15182229D01*
X14208603Y-15096515D02*
X14208603Y-15134610D01*
X14284794Y-15096515D02*
X14284794Y-15134610D01*
X14580032Y-15372705D02*
X14570508Y-15363182D01*
X14570508Y-15363182D02*
X14551460Y-15334610D01*
X14551460Y-15334610D02*
X14541936Y-15315563D01*
X14541936Y-15315563D02*
X14532413Y-15286991D01*
X14532413Y-15286991D02*
X14522889Y-15239372D01*
X14522889Y-15239372D02*
X14522889Y-15201277D01*
X14522889Y-15201277D02*
X14532413Y-15153658D01*
X14532413Y-15153658D02*
X14541936Y-15125086D01*
X14541936Y-15125086D02*
X14551460Y-15106039D01*
X14551460Y-15106039D02*
X14570508Y-15077467D01*
X14570508Y-15077467D02*
X14580032Y-15067944D01*
X14637175Y-15096515D02*
X14770508Y-15096515D01*
X14770508Y-15096515D02*
X14684794Y-15296515D01*
X14932413Y-15096515D02*
X14894317Y-15096515D01*
X14894317Y-15096515D02*
X14875270Y-15106039D01*
X14875270Y-15106039D02*
X14865746Y-15115563D01*
X14865746Y-15115563D02*
X14846698Y-15144134D01*
X14846698Y-15144134D02*
X14837175Y-15182229D01*
X14837175Y-15182229D02*
X14837175Y-15258420D01*
X14837175Y-15258420D02*
X14846698Y-15277467D01*
X14846698Y-15277467D02*
X14856222Y-15286991D01*
X14856222Y-15286991D02*
X14875270Y-15296515D01*
X14875270Y-15296515D02*
X14913365Y-15296515D01*
X14913365Y-15296515D02*
X14932413Y-15286991D01*
X14932413Y-15286991D02*
X14941936Y-15277467D01*
X14941936Y-15277467D02*
X14951460Y-15258420D01*
X14951460Y-15258420D02*
X14951460Y-15210801D01*
X14951460Y-15210801D02*
X14941936Y-15191753D01*
X14941936Y-15191753D02*
X14932413Y-15182229D01*
X14932413Y-15182229D02*
X14913365Y-15172705D01*
X14913365Y-15172705D02*
X14875270Y-15172705D01*
X14875270Y-15172705D02*
X14856222Y-15182229D01*
X14856222Y-15182229D02*
X14846698Y-15191753D01*
X14846698Y-15191753D02*
X14837175Y-15210801D01*
X15189556Y-15296515D02*
X15189556Y-15096515D01*
X15275270Y-15296515D02*
X15275270Y-15191753D01*
X15275270Y-15191753D02*
X15265746Y-15172705D01*
X15265746Y-15172705D02*
X15246698Y-15163182D01*
X15246698Y-15163182D02*
X15218127Y-15163182D01*
X15218127Y-15163182D02*
X15199079Y-15172705D01*
X15199079Y-15172705D02*
X15189556Y-15182229D01*
X15399079Y-15296515D02*
X15380032Y-15286991D01*
X15380032Y-15286991D02*
X15370508Y-15277467D01*
X15370508Y-15277467D02*
X15360984Y-15258420D01*
X15360984Y-15258420D02*
X15360984Y-15201277D01*
X15360984Y-15201277D02*
X15370508Y-15182229D01*
X15370508Y-15182229D02*
X15380032Y-15172705D01*
X15380032Y-15172705D02*
X15399079Y-15163182D01*
X15399079Y-15163182D02*
X15427651Y-15163182D01*
X15427651Y-15163182D02*
X15446698Y-15172705D01*
X15446698Y-15172705D02*
X15456222Y-15182229D01*
X15456222Y-15182229D02*
X15465746Y-15201277D01*
X15465746Y-15201277D02*
X15465746Y-15258420D01*
X15465746Y-15258420D02*
X15456222Y-15277467D01*
X15456222Y-15277467D02*
X15446698Y-15286991D01*
X15446698Y-15286991D02*
X15427651Y-15296515D01*
X15427651Y-15296515D02*
X15399079Y-15296515D01*
X15580032Y-15296515D02*
X15560984Y-15286991D01*
X15560984Y-15286991D02*
X15551460Y-15267944D01*
X15551460Y-15267944D02*
X15551460Y-15096515D01*
X15732413Y-15286991D02*
X15713365Y-15296515D01*
X15713365Y-15296515D02*
X15675270Y-15296515D01*
X15675270Y-15296515D02*
X15656222Y-15286991D01*
X15656222Y-15286991D02*
X15646698Y-15267944D01*
X15646698Y-15267944D02*
X15646698Y-15191753D01*
X15646698Y-15191753D02*
X15656222Y-15172705D01*
X15656222Y-15172705D02*
X15675270Y-15163182D01*
X15675270Y-15163182D02*
X15713365Y-15163182D01*
X15713365Y-15163182D02*
X15732413Y-15172705D01*
X15732413Y-15172705D02*
X15741937Y-15191753D01*
X15741937Y-15191753D02*
X15741937Y-15210801D01*
X15741937Y-15210801D02*
X15646698Y-15229848D01*
X15818127Y-15286991D02*
X15837175Y-15296515D01*
X15837175Y-15296515D02*
X15875270Y-15296515D01*
X15875270Y-15296515D02*
X15894318Y-15286991D01*
X15894318Y-15286991D02*
X15903841Y-15267944D01*
X15903841Y-15267944D02*
X15903841Y-15258420D01*
X15903841Y-15258420D02*
X15894318Y-15239372D01*
X15894318Y-15239372D02*
X15875270Y-15229848D01*
X15875270Y-15229848D02*
X15846698Y-15229848D01*
X15846698Y-15229848D02*
X15827651Y-15220325D01*
X15827651Y-15220325D02*
X15818127Y-15201277D01*
X15818127Y-15201277D02*
X15818127Y-15191753D01*
X15818127Y-15191753D02*
X15827651Y-15172705D01*
X15827651Y-15172705D02*
X15846698Y-15163182D01*
X15846698Y-15163182D02*
X15875270Y-15163182D01*
X15875270Y-15163182D02*
X15894318Y-15172705D01*
X15970508Y-15372705D02*
X15980032Y-15363182D01*
X15980032Y-15363182D02*
X15999079Y-15334610D01*
X15999079Y-15334610D02*
X16008603Y-15315563D01*
X16008603Y-15315563D02*
X16018127Y-15286991D01*
X16018127Y-15286991D02*
X16027651Y-15239372D01*
X16027651Y-15239372D02*
X16027651Y-15201277D01*
X16027651Y-15201277D02*
X16018127Y-15153658D01*
X16018127Y-15153658D02*
X16008603Y-15125086D01*
X16008603Y-15125086D02*
X15999079Y-15106039D01*
X15999079Y-15106039D02*
X15980032Y-15077467D01*
X15980032Y-15077467D02*
X15970508Y-15067944D01*
D10*
X11004969Y-15469031D02*
G75*
G02*
X10954969Y-15469031I-25000J0D01*
G01*
X10954969Y-15469031D02*
G75*
G02*
X11004969Y-15469031I25000J0D01*
G01*
D11*
X11303841Y-15360515D02*
X11322889Y-15360515D01*
X11322889Y-15360515D02*
X11341936Y-15370039D01*
X11341936Y-15370039D02*
X11351460Y-15379563D01*
X11351460Y-15379563D02*
X11360984Y-15398610D01*
X11360984Y-15398610D02*
X11370508Y-15436705D01*
X11370508Y-15436705D02*
X11370508Y-15484325D01*
X11370508Y-15484325D02*
X11360984Y-15522420D01*
X11360984Y-15522420D02*
X11351460Y-15541467D01*
X11351460Y-15541467D02*
X11341936Y-15550991D01*
X11341936Y-15550991D02*
X11322889Y-15560515D01*
X11322889Y-15560515D02*
X11303841Y-15560515D01*
X11303841Y-15560515D02*
X11284793Y-15550991D01*
X11284793Y-15550991D02*
X11275269Y-15541467D01*
X11275269Y-15541467D02*
X11265746Y-15522420D01*
X11265746Y-15522420D02*
X11256222Y-15484325D01*
X11256222Y-15484325D02*
X11256222Y-15436705D01*
X11256222Y-15436705D02*
X11265746Y-15398610D01*
X11265746Y-15398610D02*
X11275269Y-15379563D01*
X11275269Y-15379563D02*
X11284793Y-15370039D01*
X11284793Y-15370039D02*
X11303841Y-15360515D01*
X11456222Y-15541467D02*
X11465746Y-15550991D01*
X11465746Y-15550991D02*
X11456222Y-15560515D01*
X11456222Y-15560515D02*
X11446698Y-15550991D01*
X11446698Y-15550991D02*
X11456222Y-15541467D01*
X11456222Y-15541467D02*
X11456222Y-15560515D01*
X11646698Y-15360515D02*
X11551460Y-15360515D01*
X11551460Y-15360515D02*
X11541936Y-15455753D01*
X11541936Y-15455753D02*
X11551460Y-15446229D01*
X11551460Y-15446229D02*
X11570508Y-15436705D01*
X11570508Y-15436705D02*
X11618127Y-15436705D01*
X11618127Y-15436705D02*
X11637174Y-15446229D01*
X11637174Y-15446229D02*
X11646698Y-15455753D01*
X11646698Y-15455753D02*
X11656222Y-15474801D01*
X11656222Y-15474801D02*
X11656222Y-15522420D01*
X11656222Y-15522420D02*
X11646698Y-15541467D01*
X11646698Y-15541467D02*
X11637174Y-15550991D01*
X11637174Y-15550991D02*
X11618127Y-15560515D01*
X11618127Y-15560515D02*
X11570508Y-15560515D01*
X11570508Y-15560515D02*
X11551460Y-15550991D01*
X11551460Y-15550991D02*
X11541936Y-15541467D01*
X11780031Y-15360515D02*
X11799079Y-15360515D01*
X11799079Y-15360515D02*
X11818127Y-15370039D01*
X11818127Y-15370039D02*
X11827650Y-15379563D01*
X11827650Y-15379563D02*
X11837174Y-15398610D01*
X11837174Y-15398610D02*
X11846698Y-15436705D01*
X11846698Y-15436705D02*
X11846698Y-15484325D01*
X11846698Y-15484325D02*
X11837174Y-15522420D01*
X11837174Y-15522420D02*
X11827650Y-15541467D01*
X11827650Y-15541467D02*
X11818127Y-15550991D01*
X11818127Y-15550991D02*
X11799079Y-15560515D01*
X11799079Y-15560515D02*
X11780031Y-15560515D01*
X11780031Y-15560515D02*
X11760984Y-15550991D01*
X11760984Y-15550991D02*
X11751460Y-15541467D01*
X11751460Y-15541467D02*
X11741936Y-15522420D01*
X11741936Y-15522420D02*
X11732412Y-15484325D01*
X11732412Y-15484325D02*
X11732412Y-15436705D01*
X11732412Y-15436705D02*
X11741936Y-15398610D01*
X11741936Y-15398610D02*
X11751460Y-15379563D01*
X11751460Y-15379563D02*
X11760984Y-15370039D01*
X11760984Y-15370039D02*
X11780031Y-15360515D01*
X11970508Y-15360515D02*
X11989555Y-15360515D01*
X11989555Y-15360515D02*
X12008603Y-15370039D01*
X12008603Y-15370039D02*
X12018127Y-15379563D01*
X12018127Y-15379563D02*
X12027650Y-15398610D01*
X12027650Y-15398610D02*
X12037174Y-15436705D01*
X12037174Y-15436705D02*
X12037174Y-15484325D01*
X12037174Y-15484325D02*
X12027650Y-15522420D01*
X12027650Y-15522420D02*
X12018127Y-15541467D01*
X12018127Y-15541467D02*
X12008603Y-15550991D01*
X12008603Y-15550991D02*
X11989555Y-15560515D01*
X11989555Y-15560515D02*
X11970508Y-15560515D01*
X11970508Y-15560515D02*
X11951460Y-15550991D01*
X11951460Y-15550991D02*
X11941936Y-15541467D01*
X11941936Y-15541467D02*
X11932412Y-15522420D01*
X11932412Y-15522420D02*
X11922889Y-15484325D01*
X11922889Y-15484325D02*
X11922889Y-15436705D01*
X11922889Y-15436705D02*
X11932412Y-15398610D01*
X11932412Y-15398610D02*
X11941936Y-15379563D01*
X11941936Y-15379563D02*
X11951460Y-15370039D01*
X11951460Y-15370039D02*
X11970508Y-15360515D01*
X12122889Y-15560515D02*
X12122889Y-15427182D01*
X12122889Y-15446229D02*
X12132412Y-15436705D01*
X12132412Y-15436705D02*
X12151460Y-15427182D01*
X12151460Y-15427182D02*
X12180031Y-15427182D01*
X12180031Y-15427182D02*
X12199079Y-15436705D01*
X12199079Y-15436705D02*
X12208603Y-15455753D01*
X12208603Y-15455753D02*
X12208603Y-15560515D01*
X12208603Y-15455753D02*
X12218127Y-15436705D01*
X12218127Y-15436705D02*
X12237174Y-15427182D01*
X12237174Y-15427182D02*
X12265746Y-15427182D01*
X12265746Y-15427182D02*
X12284793Y-15436705D01*
X12284793Y-15436705D02*
X12294317Y-15455753D01*
X12294317Y-15455753D02*
X12294317Y-15560515D01*
X12389555Y-15560515D02*
X12389555Y-15427182D01*
X12389555Y-15446229D02*
X12399079Y-15436705D01*
X12399079Y-15436705D02*
X12418127Y-15427182D01*
X12418127Y-15427182D02*
X12446698Y-15427182D01*
X12446698Y-15427182D02*
X12465746Y-15436705D01*
X12465746Y-15436705D02*
X12475270Y-15455753D01*
X12475270Y-15455753D02*
X12475270Y-15560515D01*
X12475270Y-15455753D02*
X12484793Y-15436705D01*
X12484793Y-15436705D02*
X12503841Y-15427182D01*
X12503841Y-15427182D02*
X12532412Y-15427182D01*
X12532412Y-15427182D02*
X12551460Y-15436705D01*
X12551460Y-15436705D02*
X12560984Y-15455753D01*
X12560984Y-15455753D02*
X12560984Y-15560515D01*
X12951460Y-15350991D02*
X12780032Y-15608134D01*
X13208603Y-15360515D02*
X13227651Y-15360515D01*
X13227651Y-15360515D02*
X13246698Y-15370039D01*
X13246698Y-15370039D02*
X13256222Y-15379563D01*
X13256222Y-15379563D02*
X13265746Y-15398610D01*
X13265746Y-15398610D02*
X13275270Y-15436705D01*
X13275270Y-15436705D02*
X13275270Y-15484325D01*
X13275270Y-15484325D02*
X13265746Y-15522420D01*
X13265746Y-15522420D02*
X13256222Y-15541467D01*
X13256222Y-15541467D02*
X13246698Y-15550991D01*
X13246698Y-15550991D02*
X13227651Y-15560515D01*
X13227651Y-15560515D02*
X13208603Y-15560515D01*
X13208603Y-15560515D02*
X13189555Y-15550991D01*
X13189555Y-15550991D02*
X13180032Y-15541467D01*
X13180032Y-15541467D02*
X13170508Y-15522420D01*
X13170508Y-15522420D02*
X13160984Y-15484325D01*
X13160984Y-15484325D02*
X13160984Y-15436705D01*
X13160984Y-15436705D02*
X13170508Y-15398610D01*
X13170508Y-15398610D02*
X13180032Y-15379563D01*
X13180032Y-15379563D02*
X13189555Y-15370039D01*
X13189555Y-15370039D02*
X13208603Y-15360515D01*
X13360984Y-15541467D02*
X13370508Y-15550991D01*
X13370508Y-15550991D02*
X13360984Y-15560515D01*
X13360984Y-15560515D02*
X13351460Y-15550991D01*
X13351460Y-15550991D02*
X13360984Y-15541467D01*
X13360984Y-15541467D02*
X13360984Y-15560515D01*
X13494317Y-15360515D02*
X13513365Y-15360515D01*
X13513365Y-15360515D02*
X13532413Y-15370039D01*
X13532413Y-15370039D02*
X13541936Y-15379563D01*
X13541936Y-15379563D02*
X13551460Y-15398610D01*
X13551460Y-15398610D02*
X13560984Y-15436705D01*
X13560984Y-15436705D02*
X13560984Y-15484325D01*
X13560984Y-15484325D02*
X13551460Y-15522420D01*
X13551460Y-15522420D02*
X13541936Y-15541467D01*
X13541936Y-15541467D02*
X13532413Y-15550991D01*
X13532413Y-15550991D02*
X13513365Y-15560515D01*
X13513365Y-15560515D02*
X13494317Y-15560515D01*
X13494317Y-15560515D02*
X13475270Y-15550991D01*
X13475270Y-15550991D02*
X13465746Y-15541467D01*
X13465746Y-15541467D02*
X13456222Y-15522420D01*
X13456222Y-15522420D02*
X13446698Y-15484325D01*
X13446698Y-15484325D02*
X13446698Y-15436705D01*
X13446698Y-15436705D02*
X13456222Y-15398610D01*
X13456222Y-15398610D02*
X13465746Y-15379563D01*
X13465746Y-15379563D02*
X13475270Y-15370039D01*
X13475270Y-15370039D02*
X13494317Y-15360515D01*
X13751460Y-15560515D02*
X13637174Y-15560515D01*
X13694317Y-15560515D02*
X13694317Y-15360515D01*
X13694317Y-15360515D02*
X13675270Y-15389086D01*
X13675270Y-15389086D02*
X13656222Y-15408134D01*
X13656222Y-15408134D02*
X13637174Y-15417658D01*
X13846698Y-15560515D02*
X13884793Y-15560515D01*
X13884793Y-15560515D02*
X13903841Y-15550991D01*
X13903841Y-15550991D02*
X13913365Y-15541467D01*
X13913365Y-15541467D02*
X13932413Y-15512896D01*
X13932413Y-15512896D02*
X13941936Y-15474801D01*
X13941936Y-15474801D02*
X13941936Y-15398610D01*
X13941936Y-15398610D02*
X13932413Y-15379563D01*
X13932413Y-15379563D02*
X13922889Y-15370039D01*
X13922889Y-15370039D02*
X13903841Y-15360515D01*
X13903841Y-15360515D02*
X13865746Y-15360515D01*
X13865746Y-15360515D02*
X13846698Y-15370039D01*
X13846698Y-15370039D02*
X13837174Y-15379563D01*
X13837174Y-15379563D02*
X13827651Y-15398610D01*
X13827651Y-15398610D02*
X13827651Y-15446229D01*
X13827651Y-15446229D02*
X13837174Y-15465277D01*
X13837174Y-15465277D02*
X13846698Y-15474801D01*
X13846698Y-15474801D02*
X13865746Y-15484325D01*
X13865746Y-15484325D02*
X13903841Y-15484325D01*
X13903841Y-15484325D02*
X13922889Y-15474801D01*
X13922889Y-15474801D02*
X13932413Y-15465277D01*
X13932413Y-15465277D02*
X13941936Y-15446229D01*
X14008603Y-15360515D02*
X14141936Y-15360515D01*
X14141936Y-15360515D02*
X14056222Y-15560515D01*
X14208603Y-15360515D02*
X14208603Y-15398610D01*
X14284794Y-15360515D02*
X14284794Y-15398610D01*
X14580032Y-15636705D02*
X14570508Y-15627182D01*
X14570508Y-15627182D02*
X14551460Y-15598610D01*
X14551460Y-15598610D02*
X14541936Y-15579563D01*
X14541936Y-15579563D02*
X14532413Y-15550991D01*
X14532413Y-15550991D02*
X14522889Y-15503372D01*
X14522889Y-15503372D02*
X14522889Y-15465277D01*
X14522889Y-15465277D02*
X14532413Y-15417658D01*
X14532413Y-15417658D02*
X14541936Y-15389086D01*
X14541936Y-15389086D02*
X14551460Y-15370039D01*
X14551460Y-15370039D02*
X14570508Y-15341467D01*
X14570508Y-15341467D02*
X14580032Y-15331944D01*
X14741936Y-15360515D02*
X14703841Y-15360515D01*
X14703841Y-15360515D02*
X14684794Y-15370039D01*
X14684794Y-15370039D02*
X14675270Y-15379563D01*
X14675270Y-15379563D02*
X14656222Y-15408134D01*
X14656222Y-15408134D02*
X14646698Y-15446229D01*
X14646698Y-15446229D02*
X14646698Y-15522420D01*
X14646698Y-15522420D02*
X14656222Y-15541467D01*
X14656222Y-15541467D02*
X14665746Y-15550991D01*
X14665746Y-15550991D02*
X14684794Y-15560515D01*
X14684794Y-15560515D02*
X14722889Y-15560515D01*
X14722889Y-15560515D02*
X14741936Y-15550991D01*
X14741936Y-15550991D02*
X14751460Y-15541467D01*
X14751460Y-15541467D02*
X14760984Y-15522420D01*
X14760984Y-15522420D02*
X14760984Y-15474801D01*
X14760984Y-15474801D02*
X14751460Y-15455753D01*
X14751460Y-15455753D02*
X14741936Y-15446229D01*
X14741936Y-15446229D02*
X14722889Y-15436705D01*
X14722889Y-15436705D02*
X14684794Y-15436705D01*
X14684794Y-15436705D02*
X14665746Y-15446229D01*
X14665746Y-15446229D02*
X14656222Y-15455753D01*
X14656222Y-15455753D02*
X14646698Y-15474801D01*
X14999079Y-15560515D02*
X14999079Y-15360515D01*
X15084794Y-15560515D02*
X15084794Y-15455753D01*
X15084794Y-15455753D02*
X15075270Y-15436705D01*
X15075270Y-15436705D02*
X15056222Y-15427182D01*
X15056222Y-15427182D02*
X15027651Y-15427182D01*
X15027651Y-15427182D02*
X15008603Y-15436705D01*
X15008603Y-15436705D02*
X14999079Y-15446229D01*
X15208603Y-15560515D02*
X15189556Y-15550991D01*
X15189556Y-15550991D02*
X15180032Y-15541467D01*
X15180032Y-15541467D02*
X15170508Y-15522420D01*
X15170508Y-15522420D02*
X15170508Y-15465277D01*
X15170508Y-15465277D02*
X15180032Y-15446229D01*
X15180032Y-15446229D02*
X15189556Y-15436705D01*
X15189556Y-15436705D02*
X15208603Y-15427182D01*
X15208603Y-15427182D02*
X15237175Y-15427182D01*
X15237175Y-15427182D02*
X15256222Y-15436705D01*
X15256222Y-15436705D02*
X15265746Y-15446229D01*
X15265746Y-15446229D02*
X15275270Y-15465277D01*
X15275270Y-15465277D02*
X15275270Y-15522420D01*
X15275270Y-15522420D02*
X15265746Y-15541467D01*
X15265746Y-15541467D02*
X15256222Y-15550991D01*
X15256222Y-15550991D02*
X15237175Y-15560515D01*
X15237175Y-15560515D02*
X15208603Y-15560515D01*
X15389556Y-15560515D02*
X15370508Y-15550991D01*
X15370508Y-15550991D02*
X15360984Y-15531944D01*
X15360984Y-15531944D02*
X15360984Y-15360515D01*
X15541937Y-15550991D02*
X15522889Y-15560515D01*
X15522889Y-15560515D02*
X15484794Y-15560515D01*
X15484794Y-15560515D02*
X15465746Y-15550991D01*
X15465746Y-15550991D02*
X15456222Y-15531944D01*
X15456222Y-15531944D02*
X15456222Y-15455753D01*
X15456222Y-15455753D02*
X15465746Y-15436705D01*
X15465746Y-15436705D02*
X15484794Y-15427182D01*
X15484794Y-15427182D02*
X15522889Y-15427182D01*
X15522889Y-15427182D02*
X15541937Y-15436705D01*
X15541937Y-15436705D02*
X15551460Y-15455753D01*
X15551460Y-15455753D02*
X15551460Y-15474801D01*
X15551460Y-15474801D02*
X15456222Y-15493848D01*
X15627651Y-15550991D02*
X15646698Y-15560515D01*
X15646698Y-15560515D02*
X15684794Y-15560515D01*
X15684794Y-15560515D02*
X15703841Y-15550991D01*
X15703841Y-15550991D02*
X15713365Y-15531944D01*
X15713365Y-15531944D02*
X15713365Y-15522420D01*
X15713365Y-15522420D02*
X15703841Y-15503372D01*
X15703841Y-15503372D02*
X15684794Y-15493848D01*
X15684794Y-15493848D02*
X15656222Y-15493848D01*
X15656222Y-15493848D02*
X15637175Y-15484325D01*
X15637175Y-15484325D02*
X15627651Y-15465277D01*
X15627651Y-15465277D02*
X15627651Y-15455753D01*
X15627651Y-15455753D02*
X15637175Y-15436705D01*
X15637175Y-15436705D02*
X15656222Y-15427182D01*
X15656222Y-15427182D02*
X15684794Y-15427182D01*
X15684794Y-15427182D02*
X15703841Y-15436705D01*
X15780032Y-15636705D02*
X15789556Y-15627182D01*
X15789556Y-15627182D02*
X15808603Y-15598610D01*
X15808603Y-15598610D02*
X15818127Y-15579563D01*
X15818127Y-15579563D02*
X15827651Y-15550991D01*
X15827651Y-15550991D02*
X15837175Y-15503372D01*
X15837175Y-15503372D02*
X15837175Y-15465277D01*
X15837175Y-15465277D02*
X15827651Y-15417658D01*
X15827651Y-15417658D02*
X15818127Y-15389086D01*
X15818127Y-15389086D02*
X15808603Y-15370039D01*
X15808603Y-15370039D02*
X15789556Y-15341467D01*
X15789556Y-15341467D02*
X15780032Y-15331944D01*
D10*
X10954969Y-15683031D02*
X10954969Y-15783031D01*
X10904969Y-15733031D02*
X11004969Y-15733031D01*
D11*
X11370508Y-15824515D02*
X11256222Y-15824515D01*
X11313365Y-15824515D02*
X11313365Y-15624515D01*
X11313365Y-15624515D02*
X11294317Y-15653086D01*
X11294317Y-15653086D02*
X11275269Y-15672134D01*
X11275269Y-15672134D02*
X11256222Y-15681658D01*
X11456222Y-15805467D02*
X11465746Y-15814991D01*
X11465746Y-15814991D02*
X11456222Y-15824515D01*
X11456222Y-15824515D02*
X11446698Y-15814991D01*
X11446698Y-15814991D02*
X11456222Y-15805467D01*
X11456222Y-15805467D02*
X11456222Y-15824515D01*
X11589555Y-15624515D02*
X11608603Y-15624515D01*
X11608603Y-15624515D02*
X11627650Y-15634039D01*
X11627650Y-15634039D02*
X11637174Y-15643563D01*
X11637174Y-15643563D02*
X11646698Y-15662610D01*
X11646698Y-15662610D02*
X11656222Y-15700705D01*
X11656222Y-15700705D02*
X11656222Y-15748325D01*
X11656222Y-15748325D02*
X11646698Y-15786420D01*
X11646698Y-15786420D02*
X11637174Y-15805467D01*
X11637174Y-15805467D02*
X11627650Y-15814991D01*
X11627650Y-15814991D02*
X11608603Y-15824515D01*
X11608603Y-15824515D02*
X11589555Y-15824515D01*
X11589555Y-15824515D02*
X11570508Y-15814991D01*
X11570508Y-15814991D02*
X11560984Y-15805467D01*
X11560984Y-15805467D02*
X11551460Y-15786420D01*
X11551460Y-15786420D02*
X11541936Y-15748325D01*
X11541936Y-15748325D02*
X11541936Y-15700705D01*
X11541936Y-15700705D02*
X11551460Y-15662610D01*
X11551460Y-15662610D02*
X11560984Y-15643563D01*
X11560984Y-15643563D02*
X11570508Y-15634039D01*
X11570508Y-15634039D02*
X11589555Y-15624515D01*
X11780031Y-15624515D02*
X11799079Y-15624515D01*
X11799079Y-15624515D02*
X11818127Y-15634039D01*
X11818127Y-15634039D02*
X11827650Y-15643563D01*
X11827650Y-15643563D02*
X11837174Y-15662610D01*
X11837174Y-15662610D02*
X11846698Y-15700705D01*
X11846698Y-15700705D02*
X11846698Y-15748325D01*
X11846698Y-15748325D02*
X11837174Y-15786420D01*
X11837174Y-15786420D02*
X11827650Y-15805467D01*
X11827650Y-15805467D02*
X11818127Y-15814991D01*
X11818127Y-15814991D02*
X11799079Y-15824515D01*
X11799079Y-15824515D02*
X11780031Y-15824515D01*
X11780031Y-15824515D02*
X11760984Y-15814991D01*
X11760984Y-15814991D02*
X11751460Y-15805467D01*
X11751460Y-15805467D02*
X11741936Y-15786420D01*
X11741936Y-15786420D02*
X11732412Y-15748325D01*
X11732412Y-15748325D02*
X11732412Y-15700705D01*
X11732412Y-15700705D02*
X11741936Y-15662610D01*
X11741936Y-15662610D02*
X11751460Y-15643563D01*
X11751460Y-15643563D02*
X11760984Y-15634039D01*
X11760984Y-15634039D02*
X11780031Y-15624515D01*
X11970508Y-15624515D02*
X11989555Y-15624515D01*
X11989555Y-15624515D02*
X12008603Y-15634039D01*
X12008603Y-15634039D02*
X12018127Y-15643563D01*
X12018127Y-15643563D02*
X12027650Y-15662610D01*
X12027650Y-15662610D02*
X12037174Y-15700705D01*
X12037174Y-15700705D02*
X12037174Y-15748325D01*
X12037174Y-15748325D02*
X12027650Y-15786420D01*
X12027650Y-15786420D02*
X12018127Y-15805467D01*
X12018127Y-15805467D02*
X12008603Y-15814991D01*
X12008603Y-15814991D02*
X11989555Y-15824515D01*
X11989555Y-15824515D02*
X11970508Y-15824515D01*
X11970508Y-15824515D02*
X11951460Y-15814991D01*
X11951460Y-15814991D02*
X11941936Y-15805467D01*
X11941936Y-15805467D02*
X11932412Y-15786420D01*
X11932412Y-15786420D02*
X11922889Y-15748325D01*
X11922889Y-15748325D02*
X11922889Y-15700705D01*
X11922889Y-15700705D02*
X11932412Y-15662610D01*
X11932412Y-15662610D02*
X11941936Y-15643563D01*
X11941936Y-15643563D02*
X11951460Y-15634039D01*
X11951460Y-15634039D02*
X11970508Y-15624515D01*
X12122889Y-15824515D02*
X12122889Y-15691182D01*
X12122889Y-15710229D02*
X12132412Y-15700705D01*
X12132412Y-15700705D02*
X12151460Y-15691182D01*
X12151460Y-15691182D02*
X12180031Y-15691182D01*
X12180031Y-15691182D02*
X12199079Y-15700705D01*
X12199079Y-15700705D02*
X12208603Y-15719753D01*
X12208603Y-15719753D02*
X12208603Y-15824515D01*
X12208603Y-15719753D02*
X12218127Y-15700705D01*
X12218127Y-15700705D02*
X12237174Y-15691182D01*
X12237174Y-15691182D02*
X12265746Y-15691182D01*
X12265746Y-15691182D02*
X12284793Y-15700705D01*
X12284793Y-15700705D02*
X12294317Y-15719753D01*
X12294317Y-15719753D02*
X12294317Y-15824515D01*
X12389555Y-15824515D02*
X12389555Y-15691182D01*
X12389555Y-15710229D02*
X12399079Y-15700705D01*
X12399079Y-15700705D02*
X12418127Y-15691182D01*
X12418127Y-15691182D02*
X12446698Y-15691182D01*
X12446698Y-15691182D02*
X12465746Y-15700705D01*
X12465746Y-15700705D02*
X12475270Y-15719753D01*
X12475270Y-15719753D02*
X12475270Y-15824515D01*
X12475270Y-15719753D02*
X12484793Y-15700705D01*
X12484793Y-15700705D02*
X12503841Y-15691182D01*
X12503841Y-15691182D02*
X12532412Y-15691182D01*
X12532412Y-15691182D02*
X12551460Y-15700705D01*
X12551460Y-15700705D02*
X12560984Y-15719753D01*
X12560984Y-15719753D02*
X12560984Y-15824515D01*
X12951460Y-15614991D02*
X12780032Y-15872134D01*
X13208603Y-15624515D02*
X13227651Y-15624515D01*
X13227651Y-15624515D02*
X13246698Y-15634039D01*
X13246698Y-15634039D02*
X13256222Y-15643563D01*
X13256222Y-15643563D02*
X13265746Y-15662610D01*
X13265746Y-15662610D02*
X13275270Y-15700705D01*
X13275270Y-15700705D02*
X13275270Y-15748325D01*
X13275270Y-15748325D02*
X13265746Y-15786420D01*
X13265746Y-15786420D02*
X13256222Y-15805467D01*
X13256222Y-15805467D02*
X13246698Y-15814991D01*
X13246698Y-15814991D02*
X13227651Y-15824515D01*
X13227651Y-15824515D02*
X13208603Y-15824515D01*
X13208603Y-15824515D02*
X13189555Y-15814991D01*
X13189555Y-15814991D02*
X13180032Y-15805467D01*
X13180032Y-15805467D02*
X13170508Y-15786420D01*
X13170508Y-15786420D02*
X13160984Y-15748325D01*
X13160984Y-15748325D02*
X13160984Y-15700705D01*
X13160984Y-15700705D02*
X13170508Y-15662610D01*
X13170508Y-15662610D02*
X13180032Y-15643563D01*
X13180032Y-15643563D02*
X13189555Y-15634039D01*
X13189555Y-15634039D02*
X13208603Y-15624515D01*
X13360984Y-15805467D02*
X13370508Y-15814991D01*
X13370508Y-15814991D02*
X13360984Y-15824515D01*
X13360984Y-15824515D02*
X13351460Y-15814991D01*
X13351460Y-15814991D02*
X13360984Y-15805467D01*
X13360984Y-15805467D02*
X13360984Y-15824515D01*
X13494317Y-15624515D02*
X13513365Y-15624515D01*
X13513365Y-15624515D02*
X13532413Y-15634039D01*
X13532413Y-15634039D02*
X13541936Y-15643563D01*
X13541936Y-15643563D02*
X13551460Y-15662610D01*
X13551460Y-15662610D02*
X13560984Y-15700705D01*
X13560984Y-15700705D02*
X13560984Y-15748325D01*
X13560984Y-15748325D02*
X13551460Y-15786420D01*
X13551460Y-15786420D02*
X13541936Y-15805467D01*
X13541936Y-15805467D02*
X13532413Y-15814991D01*
X13532413Y-15814991D02*
X13513365Y-15824515D01*
X13513365Y-15824515D02*
X13494317Y-15824515D01*
X13494317Y-15824515D02*
X13475270Y-15814991D01*
X13475270Y-15814991D02*
X13465746Y-15805467D01*
X13465746Y-15805467D02*
X13456222Y-15786420D01*
X13456222Y-15786420D02*
X13446698Y-15748325D01*
X13446698Y-15748325D02*
X13446698Y-15700705D01*
X13446698Y-15700705D02*
X13456222Y-15662610D01*
X13456222Y-15662610D02*
X13465746Y-15643563D01*
X13465746Y-15643563D02*
X13475270Y-15634039D01*
X13475270Y-15634039D02*
X13494317Y-15624515D01*
X13627651Y-15624515D02*
X13751460Y-15624515D01*
X13751460Y-15624515D02*
X13684793Y-15700705D01*
X13684793Y-15700705D02*
X13713365Y-15700705D01*
X13713365Y-15700705D02*
X13732413Y-15710229D01*
X13732413Y-15710229D02*
X13741936Y-15719753D01*
X13741936Y-15719753D02*
X13751460Y-15738801D01*
X13751460Y-15738801D02*
X13751460Y-15786420D01*
X13751460Y-15786420D02*
X13741936Y-15805467D01*
X13741936Y-15805467D02*
X13732413Y-15814991D01*
X13732413Y-15814991D02*
X13713365Y-15824515D01*
X13713365Y-15824515D02*
X13656222Y-15824515D01*
X13656222Y-15824515D02*
X13637174Y-15814991D01*
X13637174Y-15814991D02*
X13627651Y-15805467D01*
X13846698Y-15824515D02*
X13884793Y-15824515D01*
X13884793Y-15824515D02*
X13903841Y-15814991D01*
X13903841Y-15814991D02*
X13913365Y-15805467D01*
X13913365Y-15805467D02*
X13932413Y-15776896D01*
X13932413Y-15776896D02*
X13941936Y-15738801D01*
X13941936Y-15738801D02*
X13941936Y-15662610D01*
X13941936Y-15662610D02*
X13932413Y-15643563D01*
X13932413Y-15643563D02*
X13922889Y-15634039D01*
X13922889Y-15634039D02*
X13903841Y-15624515D01*
X13903841Y-15624515D02*
X13865746Y-15624515D01*
X13865746Y-15624515D02*
X13846698Y-15634039D01*
X13846698Y-15634039D02*
X13837174Y-15643563D01*
X13837174Y-15643563D02*
X13827651Y-15662610D01*
X13827651Y-15662610D02*
X13827651Y-15710229D01*
X13827651Y-15710229D02*
X13837174Y-15729277D01*
X13837174Y-15729277D02*
X13846698Y-15738801D01*
X13846698Y-15738801D02*
X13865746Y-15748325D01*
X13865746Y-15748325D02*
X13903841Y-15748325D01*
X13903841Y-15748325D02*
X13922889Y-15738801D01*
X13922889Y-15738801D02*
X13932413Y-15729277D01*
X13932413Y-15729277D02*
X13941936Y-15710229D01*
X14113365Y-15691182D02*
X14113365Y-15824515D01*
X14065746Y-15614991D02*
X14018127Y-15757848D01*
X14018127Y-15757848D02*
X14141936Y-15757848D01*
X14208603Y-15624515D02*
X14208603Y-15662610D01*
X14284794Y-15624515D02*
X14284794Y-15662610D01*
X14580032Y-15900705D02*
X14570508Y-15891182D01*
X14570508Y-15891182D02*
X14551460Y-15862610D01*
X14551460Y-15862610D02*
X14541936Y-15843563D01*
X14541936Y-15843563D02*
X14532413Y-15814991D01*
X14532413Y-15814991D02*
X14522889Y-15767372D01*
X14522889Y-15767372D02*
X14522889Y-15729277D01*
X14522889Y-15729277D02*
X14532413Y-15681658D01*
X14532413Y-15681658D02*
X14541936Y-15653086D01*
X14541936Y-15653086D02*
X14551460Y-15634039D01*
X14551460Y-15634039D02*
X14570508Y-15605467D01*
X14570508Y-15605467D02*
X14580032Y-15595944D01*
X14760984Y-15824515D02*
X14646698Y-15824515D01*
X14703841Y-15824515D02*
X14703841Y-15624515D01*
X14703841Y-15624515D02*
X14684794Y-15653086D01*
X14684794Y-15653086D02*
X14665746Y-15672134D01*
X14665746Y-15672134D02*
X14646698Y-15681658D01*
X14827651Y-15624515D02*
X14951460Y-15624515D01*
X14951460Y-15624515D02*
X14884794Y-15700705D01*
X14884794Y-15700705D02*
X14913365Y-15700705D01*
X14913365Y-15700705D02*
X14932413Y-15710229D01*
X14932413Y-15710229D02*
X14941936Y-15719753D01*
X14941936Y-15719753D02*
X14951460Y-15738801D01*
X14951460Y-15738801D02*
X14951460Y-15786420D01*
X14951460Y-15786420D02*
X14941936Y-15805467D01*
X14941936Y-15805467D02*
X14932413Y-15814991D01*
X14932413Y-15814991D02*
X14913365Y-15824515D01*
X14913365Y-15824515D02*
X14856222Y-15824515D01*
X14856222Y-15824515D02*
X14837175Y-15814991D01*
X14837175Y-15814991D02*
X14827651Y-15805467D01*
X15189556Y-15824515D02*
X15189556Y-15624515D01*
X15275270Y-15824515D02*
X15275270Y-15719753D01*
X15275270Y-15719753D02*
X15265746Y-15700705D01*
X15265746Y-15700705D02*
X15246698Y-15691182D01*
X15246698Y-15691182D02*
X15218127Y-15691182D01*
X15218127Y-15691182D02*
X15199079Y-15700705D01*
X15199079Y-15700705D02*
X15189556Y-15710229D01*
X15399079Y-15824515D02*
X15380032Y-15814991D01*
X15380032Y-15814991D02*
X15370508Y-15805467D01*
X15370508Y-15805467D02*
X15360984Y-15786420D01*
X15360984Y-15786420D02*
X15360984Y-15729277D01*
X15360984Y-15729277D02*
X15370508Y-15710229D01*
X15370508Y-15710229D02*
X15380032Y-15700705D01*
X15380032Y-15700705D02*
X15399079Y-15691182D01*
X15399079Y-15691182D02*
X15427651Y-15691182D01*
X15427651Y-15691182D02*
X15446698Y-15700705D01*
X15446698Y-15700705D02*
X15456222Y-15710229D01*
X15456222Y-15710229D02*
X15465746Y-15729277D01*
X15465746Y-15729277D02*
X15465746Y-15786420D01*
X15465746Y-15786420D02*
X15456222Y-15805467D01*
X15456222Y-15805467D02*
X15446698Y-15814991D01*
X15446698Y-15814991D02*
X15427651Y-15824515D01*
X15427651Y-15824515D02*
X15399079Y-15824515D01*
X15580032Y-15824515D02*
X15560984Y-15814991D01*
X15560984Y-15814991D02*
X15551460Y-15795944D01*
X15551460Y-15795944D02*
X15551460Y-15624515D01*
X15732413Y-15814991D02*
X15713365Y-15824515D01*
X15713365Y-15824515D02*
X15675270Y-15824515D01*
X15675270Y-15824515D02*
X15656222Y-15814991D01*
X15656222Y-15814991D02*
X15646698Y-15795944D01*
X15646698Y-15795944D02*
X15646698Y-15719753D01*
X15646698Y-15719753D02*
X15656222Y-15700705D01*
X15656222Y-15700705D02*
X15675270Y-15691182D01*
X15675270Y-15691182D02*
X15713365Y-15691182D01*
X15713365Y-15691182D02*
X15732413Y-15700705D01*
X15732413Y-15700705D02*
X15741937Y-15719753D01*
X15741937Y-15719753D02*
X15741937Y-15738801D01*
X15741937Y-15738801D02*
X15646698Y-15757848D01*
X15818127Y-15814991D02*
X15837175Y-15824515D01*
X15837175Y-15824515D02*
X15875270Y-15824515D01*
X15875270Y-15824515D02*
X15894318Y-15814991D01*
X15894318Y-15814991D02*
X15903841Y-15795944D01*
X15903841Y-15795944D02*
X15903841Y-15786420D01*
X15903841Y-15786420D02*
X15894318Y-15767372D01*
X15894318Y-15767372D02*
X15875270Y-15757848D01*
X15875270Y-15757848D02*
X15846698Y-15757848D01*
X15846698Y-15757848D02*
X15827651Y-15748325D01*
X15827651Y-15748325D02*
X15818127Y-15729277D01*
X15818127Y-15729277D02*
X15818127Y-15719753D01*
X15818127Y-15719753D02*
X15827651Y-15700705D01*
X15827651Y-15700705D02*
X15846698Y-15691182D01*
X15846698Y-15691182D02*
X15875270Y-15691182D01*
X15875270Y-15691182D02*
X15894318Y-15700705D01*
X15970508Y-15900705D02*
X15980032Y-15891182D01*
X15980032Y-15891182D02*
X15999079Y-15862610D01*
X15999079Y-15862610D02*
X16008603Y-15843563D01*
X16008603Y-15843563D02*
X16018127Y-15814991D01*
X16018127Y-15814991D02*
X16027651Y-15767372D01*
X16027651Y-15767372D02*
X16027651Y-15729277D01*
X16027651Y-15729277D02*
X16018127Y-15681658D01*
X16018127Y-15681658D02*
X16008603Y-15653086D01*
X16008603Y-15653086D02*
X15999079Y-15634039D01*
X15999079Y-15634039D02*
X15980032Y-15605467D01*
X15980032Y-15605467D02*
X15970508Y-15595944D01*
D12*
X10990032Y-16033094D02*
X10990032Y-15960968D01*
X10917906Y-15960968D01*
X10917906Y-16033094D01*
X10990032Y-16033094D01*
D11*
X11370508Y-16088515D02*
X11256222Y-16088515D01*
X11313365Y-16088515D02*
X11313365Y-15888515D01*
X11313365Y-15888515D02*
X11294317Y-15917086D01*
X11294317Y-15917086D02*
X11275269Y-15936134D01*
X11275269Y-15936134D02*
X11256222Y-15945658D01*
X11456222Y-16069467D02*
X11465746Y-16078991D01*
X11465746Y-16078991D02*
X11456222Y-16088515D01*
X11456222Y-16088515D02*
X11446698Y-16078991D01*
X11446698Y-16078991D02*
X11456222Y-16069467D01*
X11456222Y-16069467D02*
X11456222Y-16088515D01*
X11589555Y-15888515D02*
X11608603Y-15888515D01*
X11608603Y-15888515D02*
X11627650Y-15898039D01*
X11627650Y-15898039D02*
X11637174Y-15907563D01*
X11637174Y-15907563D02*
X11646698Y-15926610D01*
X11646698Y-15926610D02*
X11656222Y-15964705D01*
X11656222Y-15964705D02*
X11656222Y-16012325D01*
X11656222Y-16012325D02*
X11646698Y-16050420D01*
X11646698Y-16050420D02*
X11637174Y-16069467D01*
X11637174Y-16069467D02*
X11627650Y-16078991D01*
X11627650Y-16078991D02*
X11608603Y-16088515D01*
X11608603Y-16088515D02*
X11589555Y-16088515D01*
X11589555Y-16088515D02*
X11570508Y-16078991D01*
X11570508Y-16078991D02*
X11560984Y-16069467D01*
X11560984Y-16069467D02*
X11551460Y-16050420D01*
X11551460Y-16050420D02*
X11541936Y-16012325D01*
X11541936Y-16012325D02*
X11541936Y-15964705D01*
X11541936Y-15964705D02*
X11551460Y-15926610D01*
X11551460Y-15926610D02*
X11560984Y-15907563D01*
X11560984Y-15907563D02*
X11570508Y-15898039D01*
X11570508Y-15898039D02*
X11589555Y-15888515D01*
X11732412Y-15907563D02*
X11741936Y-15898039D01*
X11741936Y-15898039D02*
X11760984Y-15888515D01*
X11760984Y-15888515D02*
X11808603Y-15888515D01*
X11808603Y-15888515D02*
X11827650Y-15898039D01*
X11827650Y-15898039D02*
X11837174Y-15907563D01*
X11837174Y-15907563D02*
X11846698Y-15926610D01*
X11846698Y-15926610D02*
X11846698Y-15945658D01*
X11846698Y-15945658D02*
X11837174Y-15974229D01*
X11837174Y-15974229D02*
X11722889Y-16088515D01*
X11722889Y-16088515D02*
X11846698Y-16088515D01*
X11970508Y-15888515D02*
X11989555Y-15888515D01*
X11989555Y-15888515D02*
X12008603Y-15898039D01*
X12008603Y-15898039D02*
X12018127Y-15907563D01*
X12018127Y-15907563D02*
X12027650Y-15926610D01*
X12027650Y-15926610D02*
X12037174Y-15964705D01*
X12037174Y-15964705D02*
X12037174Y-16012325D01*
X12037174Y-16012325D02*
X12027650Y-16050420D01*
X12027650Y-16050420D02*
X12018127Y-16069467D01*
X12018127Y-16069467D02*
X12008603Y-16078991D01*
X12008603Y-16078991D02*
X11989555Y-16088515D01*
X11989555Y-16088515D02*
X11970508Y-16088515D01*
X11970508Y-16088515D02*
X11951460Y-16078991D01*
X11951460Y-16078991D02*
X11941936Y-16069467D01*
X11941936Y-16069467D02*
X11932412Y-16050420D01*
X11932412Y-16050420D02*
X11922889Y-16012325D01*
X11922889Y-16012325D02*
X11922889Y-15964705D01*
X11922889Y-15964705D02*
X11932412Y-15926610D01*
X11932412Y-15926610D02*
X11941936Y-15907563D01*
X11941936Y-15907563D02*
X11951460Y-15898039D01*
X11951460Y-15898039D02*
X11970508Y-15888515D01*
X12122889Y-16088515D02*
X12122889Y-15955182D01*
X12122889Y-15974229D02*
X12132412Y-15964705D01*
X12132412Y-15964705D02*
X12151460Y-15955182D01*
X12151460Y-15955182D02*
X12180031Y-15955182D01*
X12180031Y-15955182D02*
X12199079Y-15964705D01*
X12199079Y-15964705D02*
X12208603Y-15983753D01*
X12208603Y-15983753D02*
X12208603Y-16088515D01*
X12208603Y-15983753D02*
X12218127Y-15964705D01*
X12218127Y-15964705D02*
X12237174Y-15955182D01*
X12237174Y-15955182D02*
X12265746Y-15955182D01*
X12265746Y-15955182D02*
X12284793Y-15964705D01*
X12284793Y-15964705D02*
X12294317Y-15983753D01*
X12294317Y-15983753D02*
X12294317Y-16088515D01*
X12389555Y-16088515D02*
X12389555Y-15955182D01*
X12389555Y-15974229D02*
X12399079Y-15964705D01*
X12399079Y-15964705D02*
X12418127Y-15955182D01*
X12418127Y-15955182D02*
X12446698Y-15955182D01*
X12446698Y-15955182D02*
X12465746Y-15964705D01*
X12465746Y-15964705D02*
X12475270Y-15983753D01*
X12475270Y-15983753D02*
X12475270Y-16088515D01*
X12475270Y-15983753D02*
X12484793Y-15964705D01*
X12484793Y-15964705D02*
X12503841Y-15955182D01*
X12503841Y-15955182D02*
X12532412Y-15955182D01*
X12532412Y-15955182D02*
X12551460Y-15964705D01*
X12551460Y-15964705D02*
X12560984Y-15983753D01*
X12560984Y-15983753D02*
X12560984Y-16088515D01*
X12951460Y-15878991D02*
X12780032Y-16136134D01*
X13208603Y-15888515D02*
X13227651Y-15888515D01*
X13227651Y-15888515D02*
X13246698Y-15898039D01*
X13246698Y-15898039D02*
X13256222Y-15907563D01*
X13256222Y-15907563D02*
X13265746Y-15926610D01*
X13265746Y-15926610D02*
X13275270Y-15964705D01*
X13275270Y-15964705D02*
X13275270Y-16012325D01*
X13275270Y-16012325D02*
X13265746Y-16050420D01*
X13265746Y-16050420D02*
X13256222Y-16069467D01*
X13256222Y-16069467D02*
X13246698Y-16078991D01*
X13246698Y-16078991D02*
X13227651Y-16088515D01*
X13227651Y-16088515D02*
X13208603Y-16088515D01*
X13208603Y-16088515D02*
X13189555Y-16078991D01*
X13189555Y-16078991D02*
X13180032Y-16069467D01*
X13180032Y-16069467D02*
X13170508Y-16050420D01*
X13170508Y-16050420D02*
X13160984Y-16012325D01*
X13160984Y-16012325D02*
X13160984Y-15964705D01*
X13160984Y-15964705D02*
X13170508Y-15926610D01*
X13170508Y-15926610D02*
X13180032Y-15907563D01*
X13180032Y-15907563D02*
X13189555Y-15898039D01*
X13189555Y-15898039D02*
X13208603Y-15888515D01*
X13360984Y-16069467D02*
X13370508Y-16078991D01*
X13370508Y-16078991D02*
X13360984Y-16088515D01*
X13360984Y-16088515D02*
X13351460Y-16078991D01*
X13351460Y-16078991D02*
X13360984Y-16069467D01*
X13360984Y-16069467D02*
X13360984Y-16088515D01*
X13494317Y-15888515D02*
X13513365Y-15888515D01*
X13513365Y-15888515D02*
X13532413Y-15898039D01*
X13532413Y-15898039D02*
X13541936Y-15907563D01*
X13541936Y-15907563D02*
X13551460Y-15926610D01*
X13551460Y-15926610D02*
X13560984Y-15964705D01*
X13560984Y-15964705D02*
X13560984Y-16012325D01*
X13560984Y-16012325D02*
X13551460Y-16050420D01*
X13551460Y-16050420D02*
X13541936Y-16069467D01*
X13541936Y-16069467D02*
X13532413Y-16078991D01*
X13532413Y-16078991D02*
X13513365Y-16088515D01*
X13513365Y-16088515D02*
X13494317Y-16088515D01*
X13494317Y-16088515D02*
X13475270Y-16078991D01*
X13475270Y-16078991D02*
X13465746Y-16069467D01*
X13465746Y-16069467D02*
X13456222Y-16050420D01*
X13456222Y-16050420D02*
X13446698Y-16012325D01*
X13446698Y-16012325D02*
X13446698Y-15964705D01*
X13446698Y-15964705D02*
X13456222Y-15926610D01*
X13456222Y-15926610D02*
X13465746Y-15907563D01*
X13465746Y-15907563D02*
X13475270Y-15898039D01*
X13475270Y-15898039D02*
X13494317Y-15888515D01*
X13732413Y-15955182D02*
X13732413Y-16088515D01*
X13684793Y-15878991D02*
X13637174Y-16021848D01*
X13637174Y-16021848D02*
X13760984Y-16021848D01*
X13875270Y-15888515D02*
X13894317Y-15888515D01*
X13894317Y-15888515D02*
X13913365Y-15898039D01*
X13913365Y-15898039D02*
X13922889Y-15907563D01*
X13922889Y-15907563D02*
X13932413Y-15926610D01*
X13932413Y-15926610D02*
X13941936Y-15964705D01*
X13941936Y-15964705D02*
X13941936Y-16012325D01*
X13941936Y-16012325D02*
X13932413Y-16050420D01*
X13932413Y-16050420D02*
X13922889Y-16069467D01*
X13922889Y-16069467D02*
X13913365Y-16078991D01*
X13913365Y-16078991D02*
X13894317Y-16088515D01*
X13894317Y-16088515D02*
X13875270Y-16088515D01*
X13875270Y-16088515D02*
X13856222Y-16078991D01*
X13856222Y-16078991D02*
X13846698Y-16069467D01*
X13846698Y-16069467D02*
X13837174Y-16050420D01*
X13837174Y-16050420D02*
X13827651Y-16012325D01*
X13827651Y-16012325D02*
X13827651Y-15964705D01*
X13827651Y-15964705D02*
X13837174Y-15926610D01*
X13837174Y-15926610D02*
X13846698Y-15907563D01*
X13846698Y-15907563D02*
X13856222Y-15898039D01*
X13856222Y-15898039D02*
X13875270Y-15888515D01*
X14018127Y-15907563D02*
X14027651Y-15898039D01*
X14027651Y-15898039D02*
X14046698Y-15888515D01*
X14046698Y-15888515D02*
X14094317Y-15888515D01*
X14094317Y-15888515D02*
X14113365Y-15898039D01*
X14113365Y-15898039D02*
X14122889Y-15907563D01*
X14122889Y-15907563D02*
X14132413Y-15926610D01*
X14132413Y-15926610D02*
X14132413Y-15945658D01*
X14132413Y-15945658D02*
X14122889Y-15974229D01*
X14122889Y-15974229D02*
X14008603Y-16088515D01*
X14008603Y-16088515D02*
X14132413Y-16088515D01*
X14208603Y-15888515D02*
X14208603Y-15926610D01*
X14284794Y-15888515D02*
X14284794Y-15926610D01*
X14580032Y-16164705D02*
X14570508Y-16155182D01*
X14570508Y-16155182D02*
X14551460Y-16126610D01*
X14551460Y-16126610D02*
X14541936Y-16107563D01*
X14541936Y-16107563D02*
X14532413Y-16078991D01*
X14532413Y-16078991D02*
X14522889Y-16031372D01*
X14522889Y-16031372D02*
X14522889Y-15993277D01*
X14522889Y-15993277D02*
X14532413Y-15945658D01*
X14532413Y-15945658D02*
X14541936Y-15917086D01*
X14541936Y-15917086D02*
X14551460Y-15898039D01*
X14551460Y-15898039D02*
X14570508Y-15869467D01*
X14570508Y-15869467D02*
X14580032Y-15859944D01*
X14684794Y-15974229D02*
X14665746Y-15964705D01*
X14665746Y-15964705D02*
X14656222Y-15955182D01*
X14656222Y-15955182D02*
X14646698Y-15936134D01*
X14646698Y-15936134D02*
X14646698Y-15926610D01*
X14646698Y-15926610D02*
X14656222Y-15907563D01*
X14656222Y-15907563D02*
X14665746Y-15898039D01*
X14665746Y-15898039D02*
X14684794Y-15888515D01*
X14684794Y-15888515D02*
X14722889Y-15888515D01*
X14722889Y-15888515D02*
X14741936Y-15898039D01*
X14741936Y-15898039D02*
X14751460Y-15907563D01*
X14751460Y-15907563D02*
X14760984Y-15926610D01*
X14760984Y-15926610D02*
X14760984Y-15936134D01*
X14760984Y-15936134D02*
X14751460Y-15955182D01*
X14751460Y-15955182D02*
X14741936Y-15964705D01*
X14741936Y-15964705D02*
X14722889Y-15974229D01*
X14722889Y-15974229D02*
X14684794Y-15974229D01*
X14684794Y-15974229D02*
X14665746Y-15983753D01*
X14665746Y-15983753D02*
X14656222Y-15993277D01*
X14656222Y-15993277D02*
X14646698Y-16012325D01*
X14646698Y-16012325D02*
X14646698Y-16050420D01*
X14646698Y-16050420D02*
X14656222Y-16069467D01*
X14656222Y-16069467D02*
X14665746Y-16078991D01*
X14665746Y-16078991D02*
X14684794Y-16088515D01*
X14684794Y-16088515D02*
X14722889Y-16088515D01*
X14722889Y-16088515D02*
X14741936Y-16078991D01*
X14741936Y-16078991D02*
X14751460Y-16069467D01*
X14751460Y-16069467D02*
X14760984Y-16050420D01*
X14760984Y-16050420D02*
X14760984Y-16012325D01*
X14760984Y-16012325D02*
X14751460Y-15993277D01*
X14751460Y-15993277D02*
X14741936Y-15983753D01*
X14741936Y-15983753D02*
X14722889Y-15974229D01*
X14999079Y-16088515D02*
X14999079Y-15888515D01*
X15084794Y-16088515D02*
X15084794Y-15983753D01*
X15084794Y-15983753D02*
X15075270Y-15964705D01*
X15075270Y-15964705D02*
X15056222Y-15955182D01*
X15056222Y-15955182D02*
X15027651Y-15955182D01*
X15027651Y-15955182D02*
X15008603Y-15964705D01*
X15008603Y-15964705D02*
X14999079Y-15974229D01*
X15208603Y-16088515D02*
X15189556Y-16078991D01*
X15189556Y-16078991D02*
X15180032Y-16069467D01*
X15180032Y-16069467D02*
X15170508Y-16050420D01*
X15170508Y-16050420D02*
X15170508Y-15993277D01*
X15170508Y-15993277D02*
X15180032Y-15974229D01*
X15180032Y-15974229D02*
X15189556Y-15964705D01*
X15189556Y-15964705D02*
X15208603Y-15955182D01*
X15208603Y-15955182D02*
X15237175Y-15955182D01*
X15237175Y-15955182D02*
X15256222Y-15964705D01*
X15256222Y-15964705D02*
X15265746Y-15974229D01*
X15265746Y-15974229D02*
X15275270Y-15993277D01*
X15275270Y-15993277D02*
X15275270Y-16050420D01*
X15275270Y-16050420D02*
X15265746Y-16069467D01*
X15265746Y-16069467D02*
X15256222Y-16078991D01*
X15256222Y-16078991D02*
X15237175Y-16088515D01*
X15237175Y-16088515D02*
X15208603Y-16088515D01*
X15389556Y-16088515D02*
X15370508Y-16078991D01*
X15370508Y-16078991D02*
X15360984Y-16059944D01*
X15360984Y-16059944D02*
X15360984Y-15888515D01*
X15541937Y-16078991D02*
X15522889Y-16088515D01*
X15522889Y-16088515D02*
X15484794Y-16088515D01*
X15484794Y-16088515D02*
X15465746Y-16078991D01*
X15465746Y-16078991D02*
X15456222Y-16059944D01*
X15456222Y-16059944D02*
X15456222Y-15983753D01*
X15456222Y-15983753D02*
X15465746Y-15964705D01*
X15465746Y-15964705D02*
X15484794Y-15955182D01*
X15484794Y-15955182D02*
X15522889Y-15955182D01*
X15522889Y-15955182D02*
X15541937Y-15964705D01*
X15541937Y-15964705D02*
X15551460Y-15983753D01*
X15551460Y-15983753D02*
X15551460Y-16002801D01*
X15551460Y-16002801D02*
X15456222Y-16021848D01*
X15627651Y-16078991D02*
X15646698Y-16088515D01*
X15646698Y-16088515D02*
X15684794Y-16088515D01*
X15684794Y-16088515D02*
X15703841Y-16078991D01*
X15703841Y-16078991D02*
X15713365Y-16059944D01*
X15713365Y-16059944D02*
X15713365Y-16050420D01*
X15713365Y-16050420D02*
X15703841Y-16031372D01*
X15703841Y-16031372D02*
X15684794Y-16021848D01*
X15684794Y-16021848D02*
X15656222Y-16021848D01*
X15656222Y-16021848D02*
X15637175Y-16012325D01*
X15637175Y-16012325D02*
X15627651Y-15993277D01*
X15627651Y-15993277D02*
X15627651Y-15983753D01*
X15627651Y-15983753D02*
X15637175Y-15964705D01*
X15637175Y-15964705D02*
X15656222Y-15955182D01*
X15656222Y-15955182D02*
X15684794Y-15955182D01*
X15684794Y-15955182D02*
X15703841Y-15964705D01*
X15780032Y-16164705D02*
X15789556Y-16155182D01*
X15789556Y-16155182D02*
X15808603Y-16126610D01*
X15808603Y-16126610D02*
X15818127Y-16107563D01*
X15818127Y-16107563D02*
X15827651Y-16078991D01*
X15827651Y-16078991D02*
X15837175Y-16031372D01*
X15837175Y-16031372D02*
X15837175Y-15993277D01*
X15837175Y-15993277D02*
X15827651Y-15945658D01*
X15827651Y-15945658D02*
X15818127Y-15917086D01*
X15818127Y-15917086D02*
X15808603Y-15898039D01*
X15808603Y-15898039D02*
X15789556Y-15869467D01*
X15789556Y-15869467D02*
X15780032Y-15859944D01*
D13*
X10939969Y-16326031D02*
X11004969Y-16261031D01*
X10939969Y-16196031D01*
X10874969Y-16261031D01*
X10939969Y-16326031D01*
D11*
X11370508Y-16352515D02*
X11256222Y-16352515D01*
X11313365Y-16352515D02*
X11313365Y-16152515D01*
X11313365Y-16152515D02*
X11294317Y-16181086D01*
X11294317Y-16181086D02*
X11275269Y-16200134D01*
X11275269Y-16200134D02*
X11256222Y-16209658D01*
X11456222Y-16333467D02*
X11465746Y-16342991D01*
X11465746Y-16342991D02*
X11456222Y-16352515D01*
X11456222Y-16352515D02*
X11446698Y-16342991D01*
X11446698Y-16342991D02*
X11456222Y-16333467D01*
X11456222Y-16333467D02*
X11456222Y-16352515D01*
X11532412Y-16152515D02*
X11656222Y-16152515D01*
X11656222Y-16152515D02*
X11589555Y-16228705D01*
X11589555Y-16228705D02*
X11618127Y-16228705D01*
X11618127Y-16228705D02*
X11637174Y-16238229D01*
X11637174Y-16238229D02*
X11646698Y-16247753D01*
X11646698Y-16247753D02*
X11656222Y-16266801D01*
X11656222Y-16266801D02*
X11656222Y-16314420D01*
X11656222Y-16314420D02*
X11646698Y-16333467D01*
X11646698Y-16333467D02*
X11637174Y-16342991D01*
X11637174Y-16342991D02*
X11618127Y-16352515D01*
X11618127Y-16352515D02*
X11560984Y-16352515D01*
X11560984Y-16352515D02*
X11541936Y-16342991D01*
X11541936Y-16342991D02*
X11532412Y-16333467D01*
X11780031Y-16152515D02*
X11799079Y-16152515D01*
X11799079Y-16152515D02*
X11818127Y-16162039D01*
X11818127Y-16162039D02*
X11827650Y-16171563D01*
X11827650Y-16171563D02*
X11837174Y-16190610D01*
X11837174Y-16190610D02*
X11846698Y-16228705D01*
X11846698Y-16228705D02*
X11846698Y-16276325D01*
X11846698Y-16276325D02*
X11837174Y-16314420D01*
X11837174Y-16314420D02*
X11827650Y-16333467D01*
X11827650Y-16333467D02*
X11818127Y-16342991D01*
X11818127Y-16342991D02*
X11799079Y-16352515D01*
X11799079Y-16352515D02*
X11780031Y-16352515D01*
X11780031Y-16352515D02*
X11760984Y-16342991D01*
X11760984Y-16342991D02*
X11751460Y-16333467D01*
X11751460Y-16333467D02*
X11741936Y-16314420D01*
X11741936Y-16314420D02*
X11732412Y-16276325D01*
X11732412Y-16276325D02*
X11732412Y-16228705D01*
X11732412Y-16228705D02*
X11741936Y-16190610D01*
X11741936Y-16190610D02*
X11751460Y-16171563D01*
X11751460Y-16171563D02*
X11760984Y-16162039D01*
X11760984Y-16162039D02*
X11780031Y-16152515D01*
X11970508Y-16152515D02*
X11989555Y-16152515D01*
X11989555Y-16152515D02*
X12008603Y-16162039D01*
X12008603Y-16162039D02*
X12018127Y-16171563D01*
X12018127Y-16171563D02*
X12027650Y-16190610D01*
X12027650Y-16190610D02*
X12037174Y-16228705D01*
X12037174Y-16228705D02*
X12037174Y-16276325D01*
X12037174Y-16276325D02*
X12027650Y-16314420D01*
X12027650Y-16314420D02*
X12018127Y-16333467D01*
X12018127Y-16333467D02*
X12008603Y-16342991D01*
X12008603Y-16342991D02*
X11989555Y-16352515D01*
X11989555Y-16352515D02*
X11970508Y-16352515D01*
X11970508Y-16352515D02*
X11951460Y-16342991D01*
X11951460Y-16342991D02*
X11941936Y-16333467D01*
X11941936Y-16333467D02*
X11932412Y-16314420D01*
X11932412Y-16314420D02*
X11922889Y-16276325D01*
X11922889Y-16276325D02*
X11922889Y-16228705D01*
X11922889Y-16228705D02*
X11932412Y-16190610D01*
X11932412Y-16190610D02*
X11941936Y-16171563D01*
X11941936Y-16171563D02*
X11951460Y-16162039D01*
X11951460Y-16162039D02*
X11970508Y-16152515D01*
X12122889Y-16352515D02*
X12122889Y-16219182D01*
X12122889Y-16238229D02*
X12132412Y-16228705D01*
X12132412Y-16228705D02*
X12151460Y-16219182D01*
X12151460Y-16219182D02*
X12180031Y-16219182D01*
X12180031Y-16219182D02*
X12199079Y-16228705D01*
X12199079Y-16228705D02*
X12208603Y-16247753D01*
X12208603Y-16247753D02*
X12208603Y-16352515D01*
X12208603Y-16247753D02*
X12218127Y-16228705D01*
X12218127Y-16228705D02*
X12237174Y-16219182D01*
X12237174Y-16219182D02*
X12265746Y-16219182D01*
X12265746Y-16219182D02*
X12284793Y-16228705D01*
X12284793Y-16228705D02*
X12294317Y-16247753D01*
X12294317Y-16247753D02*
X12294317Y-16352515D01*
X12389555Y-16352515D02*
X12389555Y-16219182D01*
X12389555Y-16238229D02*
X12399079Y-16228705D01*
X12399079Y-16228705D02*
X12418127Y-16219182D01*
X12418127Y-16219182D02*
X12446698Y-16219182D01*
X12446698Y-16219182D02*
X12465746Y-16228705D01*
X12465746Y-16228705D02*
X12475270Y-16247753D01*
X12475270Y-16247753D02*
X12475270Y-16352515D01*
X12475270Y-16247753D02*
X12484793Y-16228705D01*
X12484793Y-16228705D02*
X12503841Y-16219182D01*
X12503841Y-16219182D02*
X12532412Y-16219182D01*
X12532412Y-16219182D02*
X12551460Y-16228705D01*
X12551460Y-16228705D02*
X12560984Y-16247753D01*
X12560984Y-16247753D02*
X12560984Y-16352515D01*
X12951460Y-16142991D02*
X12780032Y-16400134D01*
X13208603Y-16152515D02*
X13227651Y-16152515D01*
X13227651Y-16152515D02*
X13246698Y-16162039D01*
X13246698Y-16162039D02*
X13256222Y-16171563D01*
X13256222Y-16171563D02*
X13265746Y-16190610D01*
X13265746Y-16190610D02*
X13275270Y-16228705D01*
X13275270Y-16228705D02*
X13275270Y-16276325D01*
X13275270Y-16276325D02*
X13265746Y-16314420D01*
X13265746Y-16314420D02*
X13256222Y-16333467D01*
X13256222Y-16333467D02*
X13246698Y-16342991D01*
X13246698Y-16342991D02*
X13227651Y-16352515D01*
X13227651Y-16352515D02*
X13208603Y-16352515D01*
X13208603Y-16352515D02*
X13189555Y-16342991D01*
X13189555Y-16342991D02*
X13180032Y-16333467D01*
X13180032Y-16333467D02*
X13170508Y-16314420D01*
X13170508Y-16314420D02*
X13160984Y-16276325D01*
X13160984Y-16276325D02*
X13160984Y-16228705D01*
X13160984Y-16228705D02*
X13170508Y-16190610D01*
X13170508Y-16190610D02*
X13180032Y-16171563D01*
X13180032Y-16171563D02*
X13189555Y-16162039D01*
X13189555Y-16162039D02*
X13208603Y-16152515D01*
X13360984Y-16333467D02*
X13370508Y-16342991D01*
X13370508Y-16342991D02*
X13360984Y-16352515D01*
X13360984Y-16352515D02*
X13351460Y-16342991D01*
X13351460Y-16342991D02*
X13360984Y-16333467D01*
X13360984Y-16333467D02*
X13360984Y-16352515D01*
X13494317Y-16152515D02*
X13513365Y-16152515D01*
X13513365Y-16152515D02*
X13532413Y-16162039D01*
X13532413Y-16162039D02*
X13541936Y-16171563D01*
X13541936Y-16171563D02*
X13551460Y-16190610D01*
X13551460Y-16190610D02*
X13560984Y-16228705D01*
X13560984Y-16228705D02*
X13560984Y-16276325D01*
X13560984Y-16276325D02*
X13551460Y-16314420D01*
X13551460Y-16314420D02*
X13541936Y-16333467D01*
X13541936Y-16333467D02*
X13532413Y-16342991D01*
X13532413Y-16342991D02*
X13513365Y-16352515D01*
X13513365Y-16352515D02*
X13494317Y-16352515D01*
X13494317Y-16352515D02*
X13475270Y-16342991D01*
X13475270Y-16342991D02*
X13465746Y-16333467D01*
X13465746Y-16333467D02*
X13456222Y-16314420D01*
X13456222Y-16314420D02*
X13446698Y-16276325D01*
X13446698Y-16276325D02*
X13446698Y-16228705D01*
X13446698Y-16228705D02*
X13456222Y-16190610D01*
X13456222Y-16190610D02*
X13465746Y-16171563D01*
X13465746Y-16171563D02*
X13475270Y-16162039D01*
X13475270Y-16162039D02*
X13494317Y-16152515D01*
X13741936Y-16152515D02*
X13646698Y-16152515D01*
X13646698Y-16152515D02*
X13637174Y-16247753D01*
X13637174Y-16247753D02*
X13646698Y-16238229D01*
X13646698Y-16238229D02*
X13665746Y-16228705D01*
X13665746Y-16228705D02*
X13713365Y-16228705D01*
X13713365Y-16228705D02*
X13732413Y-16238229D01*
X13732413Y-16238229D02*
X13741936Y-16247753D01*
X13741936Y-16247753D02*
X13751460Y-16266801D01*
X13751460Y-16266801D02*
X13751460Y-16314420D01*
X13751460Y-16314420D02*
X13741936Y-16333467D01*
X13741936Y-16333467D02*
X13732413Y-16342991D01*
X13732413Y-16342991D02*
X13713365Y-16352515D01*
X13713365Y-16352515D02*
X13665746Y-16352515D01*
X13665746Y-16352515D02*
X13646698Y-16342991D01*
X13646698Y-16342991D02*
X13637174Y-16333467D01*
X13941936Y-16352515D02*
X13827651Y-16352515D01*
X13884793Y-16352515D02*
X13884793Y-16152515D01*
X13884793Y-16152515D02*
X13865746Y-16181086D01*
X13865746Y-16181086D02*
X13846698Y-16200134D01*
X13846698Y-16200134D02*
X13827651Y-16209658D01*
X14018127Y-16171563D02*
X14027651Y-16162039D01*
X14027651Y-16162039D02*
X14046698Y-16152515D01*
X14046698Y-16152515D02*
X14094317Y-16152515D01*
X14094317Y-16152515D02*
X14113365Y-16162039D01*
X14113365Y-16162039D02*
X14122889Y-16171563D01*
X14122889Y-16171563D02*
X14132413Y-16190610D01*
X14132413Y-16190610D02*
X14132413Y-16209658D01*
X14132413Y-16209658D02*
X14122889Y-16238229D01*
X14122889Y-16238229D02*
X14008603Y-16352515D01*
X14008603Y-16352515D02*
X14132413Y-16352515D01*
X14208603Y-16152515D02*
X14208603Y-16190610D01*
X14284794Y-16152515D02*
X14284794Y-16190610D01*
X14580032Y-16428705D02*
X14570508Y-16419182D01*
X14570508Y-16419182D02*
X14551460Y-16390610D01*
X14551460Y-16390610D02*
X14541936Y-16371563D01*
X14541936Y-16371563D02*
X14532413Y-16342991D01*
X14532413Y-16342991D02*
X14522889Y-16295372D01*
X14522889Y-16295372D02*
X14522889Y-16257277D01*
X14522889Y-16257277D02*
X14532413Y-16209658D01*
X14532413Y-16209658D02*
X14541936Y-16181086D01*
X14541936Y-16181086D02*
X14551460Y-16162039D01*
X14551460Y-16162039D02*
X14570508Y-16133467D01*
X14570508Y-16133467D02*
X14580032Y-16123944D01*
X14684794Y-16238229D02*
X14665746Y-16228705D01*
X14665746Y-16228705D02*
X14656222Y-16219182D01*
X14656222Y-16219182D02*
X14646698Y-16200134D01*
X14646698Y-16200134D02*
X14646698Y-16190610D01*
X14646698Y-16190610D02*
X14656222Y-16171563D01*
X14656222Y-16171563D02*
X14665746Y-16162039D01*
X14665746Y-16162039D02*
X14684794Y-16152515D01*
X14684794Y-16152515D02*
X14722889Y-16152515D01*
X14722889Y-16152515D02*
X14741936Y-16162039D01*
X14741936Y-16162039D02*
X14751460Y-16171563D01*
X14751460Y-16171563D02*
X14760984Y-16190610D01*
X14760984Y-16190610D02*
X14760984Y-16200134D01*
X14760984Y-16200134D02*
X14751460Y-16219182D01*
X14751460Y-16219182D02*
X14741936Y-16228705D01*
X14741936Y-16228705D02*
X14722889Y-16238229D01*
X14722889Y-16238229D02*
X14684794Y-16238229D01*
X14684794Y-16238229D02*
X14665746Y-16247753D01*
X14665746Y-16247753D02*
X14656222Y-16257277D01*
X14656222Y-16257277D02*
X14646698Y-16276325D01*
X14646698Y-16276325D02*
X14646698Y-16314420D01*
X14646698Y-16314420D02*
X14656222Y-16333467D01*
X14656222Y-16333467D02*
X14665746Y-16342991D01*
X14665746Y-16342991D02*
X14684794Y-16352515D01*
X14684794Y-16352515D02*
X14722889Y-16352515D01*
X14722889Y-16352515D02*
X14741936Y-16342991D01*
X14741936Y-16342991D02*
X14751460Y-16333467D01*
X14751460Y-16333467D02*
X14760984Y-16314420D01*
X14760984Y-16314420D02*
X14760984Y-16276325D01*
X14760984Y-16276325D02*
X14751460Y-16257277D01*
X14751460Y-16257277D02*
X14741936Y-16247753D01*
X14741936Y-16247753D02*
X14722889Y-16238229D01*
X14999079Y-16352515D02*
X14999079Y-16152515D01*
X15084794Y-16352515D02*
X15084794Y-16247753D01*
X15084794Y-16247753D02*
X15075270Y-16228705D01*
X15075270Y-16228705D02*
X15056222Y-16219182D01*
X15056222Y-16219182D02*
X15027651Y-16219182D01*
X15027651Y-16219182D02*
X15008603Y-16228705D01*
X15008603Y-16228705D02*
X14999079Y-16238229D01*
X15208603Y-16352515D02*
X15189556Y-16342991D01*
X15189556Y-16342991D02*
X15180032Y-16333467D01*
X15180032Y-16333467D02*
X15170508Y-16314420D01*
X15170508Y-16314420D02*
X15170508Y-16257277D01*
X15170508Y-16257277D02*
X15180032Y-16238229D01*
X15180032Y-16238229D02*
X15189556Y-16228705D01*
X15189556Y-16228705D02*
X15208603Y-16219182D01*
X15208603Y-16219182D02*
X15237175Y-16219182D01*
X15237175Y-16219182D02*
X15256222Y-16228705D01*
X15256222Y-16228705D02*
X15265746Y-16238229D01*
X15265746Y-16238229D02*
X15275270Y-16257277D01*
X15275270Y-16257277D02*
X15275270Y-16314420D01*
X15275270Y-16314420D02*
X15265746Y-16333467D01*
X15265746Y-16333467D02*
X15256222Y-16342991D01*
X15256222Y-16342991D02*
X15237175Y-16352515D01*
X15237175Y-16352515D02*
X15208603Y-16352515D01*
X15389556Y-16352515D02*
X15370508Y-16342991D01*
X15370508Y-16342991D02*
X15360984Y-16323944D01*
X15360984Y-16323944D02*
X15360984Y-16152515D01*
X15541937Y-16342991D02*
X15522889Y-16352515D01*
X15522889Y-16352515D02*
X15484794Y-16352515D01*
X15484794Y-16352515D02*
X15465746Y-16342991D01*
X15465746Y-16342991D02*
X15456222Y-16323944D01*
X15456222Y-16323944D02*
X15456222Y-16247753D01*
X15456222Y-16247753D02*
X15465746Y-16228705D01*
X15465746Y-16228705D02*
X15484794Y-16219182D01*
X15484794Y-16219182D02*
X15522889Y-16219182D01*
X15522889Y-16219182D02*
X15541937Y-16228705D01*
X15541937Y-16228705D02*
X15551460Y-16247753D01*
X15551460Y-16247753D02*
X15551460Y-16266801D01*
X15551460Y-16266801D02*
X15456222Y-16285848D01*
X15627651Y-16342991D02*
X15646698Y-16352515D01*
X15646698Y-16352515D02*
X15684794Y-16352515D01*
X15684794Y-16352515D02*
X15703841Y-16342991D01*
X15703841Y-16342991D02*
X15713365Y-16323944D01*
X15713365Y-16323944D02*
X15713365Y-16314420D01*
X15713365Y-16314420D02*
X15703841Y-16295372D01*
X15703841Y-16295372D02*
X15684794Y-16285848D01*
X15684794Y-16285848D02*
X15656222Y-16285848D01*
X15656222Y-16285848D02*
X15637175Y-16276325D01*
X15637175Y-16276325D02*
X15627651Y-16257277D01*
X15627651Y-16257277D02*
X15627651Y-16247753D01*
X15627651Y-16247753D02*
X15637175Y-16228705D01*
X15637175Y-16228705D02*
X15656222Y-16219182D01*
X15656222Y-16219182D02*
X15684794Y-16219182D01*
X15684794Y-16219182D02*
X15703841Y-16228705D01*
X15780032Y-16428705D02*
X15789556Y-16419182D01*
X15789556Y-16419182D02*
X15808603Y-16390610D01*
X15808603Y-16390610D02*
X15818127Y-16371563D01*
X15818127Y-16371563D02*
X15827651Y-16342991D01*
X15827651Y-16342991D02*
X15837175Y-16295372D01*
X15837175Y-16295372D02*
X15837175Y-16257277D01*
X15837175Y-16257277D02*
X15827651Y-16209658D01*
X15827651Y-16209658D02*
X15818127Y-16181086D01*
X15818127Y-16181086D02*
X15808603Y-16162039D01*
X15808603Y-16162039D02*
X15789556Y-16133467D01*
X15789556Y-16133467D02*
X15780032Y-16123944D01*
D14*
X10870369Y-16457731D02*
X11004969Y-16592331D01*
X11004969Y-16457731D02*
X10870369Y-16592331D01*
X11004969Y-16525031D02*
G75*
G02*
X10870369Y-16525031I-67300J0D01*
G01*
X10870369Y-16525031D02*
G75*
G02*
X11004969Y-16525031I67300J0D01*
G01*
D11*
X11370508Y-16616515D02*
X11256222Y-16616515D01*
X11313365Y-16616515D02*
X11313365Y-16416515D01*
X11313365Y-16416515D02*
X11294317Y-16445086D01*
X11294317Y-16445086D02*
X11275269Y-16464134D01*
X11275269Y-16464134D02*
X11256222Y-16473658D01*
X11456222Y-16597467D02*
X11465746Y-16606991D01*
X11465746Y-16606991D02*
X11456222Y-16616515D01*
X11456222Y-16616515D02*
X11446698Y-16606991D01*
X11446698Y-16606991D02*
X11456222Y-16597467D01*
X11456222Y-16597467D02*
X11456222Y-16616515D01*
X11532412Y-16416515D02*
X11656222Y-16416515D01*
X11656222Y-16416515D02*
X11589555Y-16492705D01*
X11589555Y-16492705D02*
X11618127Y-16492705D01*
X11618127Y-16492705D02*
X11637174Y-16502229D01*
X11637174Y-16502229D02*
X11646698Y-16511753D01*
X11646698Y-16511753D02*
X11656222Y-16530801D01*
X11656222Y-16530801D02*
X11656222Y-16578420D01*
X11656222Y-16578420D02*
X11646698Y-16597467D01*
X11646698Y-16597467D02*
X11637174Y-16606991D01*
X11637174Y-16606991D02*
X11618127Y-16616515D01*
X11618127Y-16616515D02*
X11560984Y-16616515D01*
X11560984Y-16616515D02*
X11541936Y-16606991D01*
X11541936Y-16606991D02*
X11532412Y-16597467D01*
X11827650Y-16483182D02*
X11827650Y-16616515D01*
X11780031Y-16406991D02*
X11732412Y-16549848D01*
X11732412Y-16549848D02*
X11856222Y-16549848D01*
X12018127Y-16416515D02*
X11980031Y-16416515D01*
X11980031Y-16416515D02*
X11960984Y-16426039D01*
X11960984Y-16426039D02*
X11951460Y-16435563D01*
X11951460Y-16435563D02*
X11932412Y-16464134D01*
X11932412Y-16464134D02*
X11922889Y-16502229D01*
X11922889Y-16502229D02*
X11922889Y-16578420D01*
X11922889Y-16578420D02*
X11932412Y-16597467D01*
X11932412Y-16597467D02*
X11941936Y-16606991D01*
X11941936Y-16606991D02*
X11960984Y-16616515D01*
X11960984Y-16616515D02*
X11999079Y-16616515D01*
X11999079Y-16616515D02*
X12018127Y-16606991D01*
X12018127Y-16606991D02*
X12027650Y-16597467D01*
X12027650Y-16597467D02*
X12037174Y-16578420D01*
X12037174Y-16578420D02*
X12037174Y-16530801D01*
X12037174Y-16530801D02*
X12027650Y-16511753D01*
X12027650Y-16511753D02*
X12018127Y-16502229D01*
X12018127Y-16502229D02*
X11999079Y-16492705D01*
X11999079Y-16492705D02*
X11960984Y-16492705D01*
X11960984Y-16492705D02*
X11941936Y-16502229D01*
X11941936Y-16502229D02*
X11932412Y-16511753D01*
X11932412Y-16511753D02*
X11922889Y-16530801D01*
X12122889Y-16616515D02*
X12122889Y-16483182D01*
X12122889Y-16502229D02*
X12132412Y-16492705D01*
X12132412Y-16492705D02*
X12151460Y-16483182D01*
X12151460Y-16483182D02*
X12180031Y-16483182D01*
X12180031Y-16483182D02*
X12199079Y-16492705D01*
X12199079Y-16492705D02*
X12208603Y-16511753D01*
X12208603Y-16511753D02*
X12208603Y-16616515D01*
X12208603Y-16511753D02*
X12218127Y-16492705D01*
X12218127Y-16492705D02*
X12237174Y-16483182D01*
X12237174Y-16483182D02*
X12265746Y-16483182D01*
X12265746Y-16483182D02*
X12284793Y-16492705D01*
X12284793Y-16492705D02*
X12294317Y-16511753D01*
X12294317Y-16511753D02*
X12294317Y-16616515D01*
X12389555Y-16616515D02*
X12389555Y-16483182D01*
X12389555Y-16502229D02*
X12399079Y-16492705D01*
X12399079Y-16492705D02*
X12418127Y-16483182D01*
X12418127Y-16483182D02*
X12446698Y-16483182D01*
X12446698Y-16483182D02*
X12465746Y-16492705D01*
X12465746Y-16492705D02*
X12475270Y-16511753D01*
X12475270Y-16511753D02*
X12475270Y-16616515D01*
X12475270Y-16511753D02*
X12484793Y-16492705D01*
X12484793Y-16492705D02*
X12503841Y-16483182D01*
X12503841Y-16483182D02*
X12532412Y-16483182D01*
X12532412Y-16483182D02*
X12551460Y-16492705D01*
X12551460Y-16492705D02*
X12560984Y-16511753D01*
X12560984Y-16511753D02*
X12560984Y-16616515D01*
X12951460Y-16406991D02*
X12780032Y-16664134D01*
X13208603Y-16416515D02*
X13227651Y-16416515D01*
X13227651Y-16416515D02*
X13246698Y-16426039D01*
X13246698Y-16426039D02*
X13256222Y-16435563D01*
X13256222Y-16435563D02*
X13265746Y-16454610D01*
X13265746Y-16454610D02*
X13275270Y-16492705D01*
X13275270Y-16492705D02*
X13275270Y-16540325D01*
X13275270Y-16540325D02*
X13265746Y-16578420D01*
X13265746Y-16578420D02*
X13256222Y-16597467D01*
X13256222Y-16597467D02*
X13246698Y-16606991D01*
X13246698Y-16606991D02*
X13227651Y-16616515D01*
X13227651Y-16616515D02*
X13208603Y-16616515D01*
X13208603Y-16616515D02*
X13189555Y-16606991D01*
X13189555Y-16606991D02*
X13180032Y-16597467D01*
X13180032Y-16597467D02*
X13170508Y-16578420D01*
X13170508Y-16578420D02*
X13160984Y-16540325D01*
X13160984Y-16540325D02*
X13160984Y-16492705D01*
X13160984Y-16492705D02*
X13170508Y-16454610D01*
X13170508Y-16454610D02*
X13180032Y-16435563D01*
X13180032Y-16435563D02*
X13189555Y-16426039D01*
X13189555Y-16426039D02*
X13208603Y-16416515D01*
X13360984Y-16597467D02*
X13370508Y-16606991D01*
X13370508Y-16606991D02*
X13360984Y-16616515D01*
X13360984Y-16616515D02*
X13351460Y-16606991D01*
X13351460Y-16606991D02*
X13360984Y-16597467D01*
X13360984Y-16597467D02*
X13360984Y-16616515D01*
X13494317Y-16416515D02*
X13513365Y-16416515D01*
X13513365Y-16416515D02*
X13532413Y-16426039D01*
X13532413Y-16426039D02*
X13541936Y-16435563D01*
X13541936Y-16435563D02*
X13551460Y-16454610D01*
X13551460Y-16454610D02*
X13560984Y-16492705D01*
X13560984Y-16492705D02*
X13560984Y-16540325D01*
X13560984Y-16540325D02*
X13551460Y-16578420D01*
X13551460Y-16578420D02*
X13541936Y-16597467D01*
X13541936Y-16597467D02*
X13532413Y-16606991D01*
X13532413Y-16606991D02*
X13513365Y-16616515D01*
X13513365Y-16616515D02*
X13494317Y-16616515D01*
X13494317Y-16616515D02*
X13475270Y-16606991D01*
X13475270Y-16606991D02*
X13465746Y-16597467D01*
X13465746Y-16597467D02*
X13456222Y-16578420D01*
X13456222Y-16578420D02*
X13446698Y-16540325D01*
X13446698Y-16540325D02*
X13446698Y-16492705D01*
X13446698Y-16492705D02*
X13456222Y-16454610D01*
X13456222Y-16454610D02*
X13465746Y-16435563D01*
X13465746Y-16435563D02*
X13475270Y-16426039D01*
X13475270Y-16426039D02*
X13494317Y-16416515D01*
X13741936Y-16416515D02*
X13646698Y-16416515D01*
X13646698Y-16416515D02*
X13637174Y-16511753D01*
X13637174Y-16511753D02*
X13646698Y-16502229D01*
X13646698Y-16502229D02*
X13665746Y-16492705D01*
X13665746Y-16492705D02*
X13713365Y-16492705D01*
X13713365Y-16492705D02*
X13732413Y-16502229D01*
X13732413Y-16502229D02*
X13741936Y-16511753D01*
X13741936Y-16511753D02*
X13751460Y-16530801D01*
X13751460Y-16530801D02*
X13751460Y-16578420D01*
X13751460Y-16578420D02*
X13741936Y-16597467D01*
X13741936Y-16597467D02*
X13732413Y-16606991D01*
X13732413Y-16606991D02*
X13713365Y-16616515D01*
X13713365Y-16616515D02*
X13665746Y-16616515D01*
X13665746Y-16616515D02*
X13646698Y-16606991D01*
X13646698Y-16606991D02*
X13637174Y-16597467D01*
X13818127Y-16416515D02*
X13941936Y-16416515D01*
X13941936Y-16416515D02*
X13875270Y-16492705D01*
X13875270Y-16492705D02*
X13903841Y-16492705D01*
X13903841Y-16492705D02*
X13922889Y-16502229D01*
X13922889Y-16502229D02*
X13932413Y-16511753D01*
X13932413Y-16511753D02*
X13941936Y-16530801D01*
X13941936Y-16530801D02*
X13941936Y-16578420D01*
X13941936Y-16578420D02*
X13932413Y-16597467D01*
X13932413Y-16597467D02*
X13922889Y-16606991D01*
X13922889Y-16606991D02*
X13903841Y-16616515D01*
X13903841Y-16616515D02*
X13846698Y-16616515D01*
X13846698Y-16616515D02*
X13827651Y-16606991D01*
X13827651Y-16606991D02*
X13818127Y-16597467D01*
X14065746Y-16416515D02*
X14084794Y-16416515D01*
X14084794Y-16416515D02*
X14103841Y-16426039D01*
X14103841Y-16426039D02*
X14113365Y-16435563D01*
X14113365Y-16435563D02*
X14122889Y-16454610D01*
X14122889Y-16454610D02*
X14132413Y-16492705D01*
X14132413Y-16492705D02*
X14132413Y-16540325D01*
X14132413Y-16540325D02*
X14122889Y-16578420D01*
X14122889Y-16578420D02*
X14113365Y-16597467D01*
X14113365Y-16597467D02*
X14103841Y-16606991D01*
X14103841Y-16606991D02*
X14084794Y-16616515D01*
X14084794Y-16616515D02*
X14065746Y-16616515D01*
X14065746Y-16616515D02*
X14046698Y-16606991D01*
X14046698Y-16606991D02*
X14037174Y-16597467D01*
X14037174Y-16597467D02*
X14027651Y-16578420D01*
X14027651Y-16578420D02*
X14018127Y-16540325D01*
X14018127Y-16540325D02*
X14018127Y-16492705D01*
X14018127Y-16492705D02*
X14027651Y-16454610D01*
X14027651Y-16454610D02*
X14037174Y-16435563D01*
X14037174Y-16435563D02*
X14046698Y-16426039D01*
X14046698Y-16426039D02*
X14065746Y-16416515D01*
X14208603Y-16416515D02*
X14208603Y-16454610D01*
X14284794Y-16416515D02*
X14284794Y-16454610D01*
X14580032Y-16692705D02*
X14570508Y-16683182D01*
X14570508Y-16683182D02*
X14551460Y-16654610D01*
X14551460Y-16654610D02*
X14541936Y-16635563D01*
X14541936Y-16635563D02*
X14532413Y-16606991D01*
X14532413Y-16606991D02*
X14522889Y-16559372D01*
X14522889Y-16559372D02*
X14522889Y-16521277D01*
X14522889Y-16521277D02*
X14532413Y-16473658D01*
X14532413Y-16473658D02*
X14541936Y-16445086D01*
X14541936Y-16445086D02*
X14551460Y-16426039D01*
X14551460Y-16426039D02*
X14570508Y-16397467D01*
X14570508Y-16397467D02*
X14580032Y-16387944D01*
X14741936Y-16483182D02*
X14741936Y-16616515D01*
X14694317Y-16406991D02*
X14646698Y-16549848D01*
X14646698Y-16549848D02*
X14770508Y-16549848D01*
X14999079Y-16616515D02*
X14999079Y-16416515D01*
X15084794Y-16616515D02*
X15084794Y-16511753D01*
X15084794Y-16511753D02*
X15075270Y-16492705D01*
X15075270Y-16492705D02*
X15056222Y-16483182D01*
X15056222Y-16483182D02*
X15027651Y-16483182D01*
X15027651Y-16483182D02*
X15008603Y-16492705D01*
X15008603Y-16492705D02*
X14999079Y-16502229D01*
X15208603Y-16616515D02*
X15189556Y-16606991D01*
X15189556Y-16606991D02*
X15180032Y-16597467D01*
X15180032Y-16597467D02*
X15170508Y-16578420D01*
X15170508Y-16578420D02*
X15170508Y-16521277D01*
X15170508Y-16521277D02*
X15180032Y-16502229D01*
X15180032Y-16502229D02*
X15189556Y-16492705D01*
X15189556Y-16492705D02*
X15208603Y-16483182D01*
X15208603Y-16483182D02*
X15237175Y-16483182D01*
X15237175Y-16483182D02*
X15256222Y-16492705D01*
X15256222Y-16492705D02*
X15265746Y-16502229D01*
X15265746Y-16502229D02*
X15275270Y-16521277D01*
X15275270Y-16521277D02*
X15275270Y-16578420D01*
X15275270Y-16578420D02*
X15265746Y-16597467D01*
X15265746Y-16597467D02*
X15256222Y-16606991D01*
X15256222Y-16606991D02*
X15237175Y-16616515D01*
X15237175Y-16616515D02*
X15208603Y-16616515D01*
X15389556Y-16616515D02*
X15370508Y-16606991D01*
X15370508Y-16606991D02*
X15360984Y-16587944D01*
X15360984Y-16587944D02*
X15360984Y-16416515D01*
X15541937Y-16606991D02*
X15522889Y-16616515D01*
X15522889Y-16616515D02*
X15484794Y-16616515D01*
X15484794Y-16616515D02*
X15465746Y-16606991D01*
X15465746Y-16606991D02*
X15456222Y-16587944D01*
X15456222Y-16587944D02*
X15456222Y-16511753D01*
X15456222Y-16511753D02*
X15465746Y-16492705D01*
X15465746Y-16492705D02*
X15484794Y-16483182D01*
X15484794Y-16483182D02*
X15522889Y-16483182D01*
X15522889Y-16483182D02*
X15541937Y-16492705D01*
X15541937Y-16492705D02*
X15551460Y-16511753D01*
X15551460Y-16511753D02*
X15551460Y-16530801D01*
X15551460Y-16530801D02*
X15456222Y-16549848D01*
X15627651Y-16606991D02*
X15646698Y-16616515D01*
X15646698Y-16616515D02*
X15684794Y-16616515D01*
X15684794Y-16616515D02*
X15703841Y-16606991D01*
X15703841Y-16606991D02*
X15713365Y-16587944D01*
X15713365Y-16587944D02*
X15713365Y-16578420D01*
X15713365Y-16578420D02*
X15703841Y-16559372D01*
X15703841Y-16559372D02*
X15684794Y-16549848D01*
X15684794Y-16549848D02*
X15656222Y-16549848D01*
X15656222Y-16549848D02*
X15637175Y-16540325D01*
X15637175Y-16540325D02*
X15627651Y-16521277D01*
X15627651Y-16521277D02*
X15627651Y-16511753D01*
X15627651Y-16511753D02*
X15637175Y-16492705D01*
X15637175Y-16492705D02*
X15656222Y-16483182D01*
X15656222Y-16483182D02*
X15684794Y-16483182D01*
X15684794Y-16483182D02*
X15703841Y-16492705D01*
X15780032Y-16692705D02*
X15789556Y-16683182D01*
X15789556Y-16683182D02*
X15808603Y-16654610D01*
X15808603Y-16654610D02*
X15818127Y-16635563D01*
X15818127Y-16635563D02*
X15827651Y-16606991D01*
X15827651Y-16606991D02*
X15837175Y-16559372D01*
X15837175Y-16559372D02*
X15837175Y-16521277D01*
X15837175Y-16521277D02*
X15827651Y-16473658D01*
X15827651Y-16473658D02*
X15818127Y-16445086D01*
X15818127Y-16445086D02*
X15808603Y-16426039D01*
X15808603Y-16426039D02*
X15789556Y-16397467D01*
X15789556Y-16397467D02*
X15780032Y-16387944D01*
X10804969Y-16689031D02*
X11004969Y-16889031D01*
X11004969Y-16689031D02*
X10804969Y-16889031D01*
X10904969Y-16689031D02*
X10904969Y-16889031D01*
X10804969Y-16789031D02*
X11004969Y-16789031D01*
X11256222Y-16699563D02*
X11265746Y-16690039D01*
X11265746Y-16690039D02*
X11284793Y-16680515D01*
X11284793Y-16680515D02*
X11332412Y-16680515D01*
X11332412Y-16680515D02*
X11351460Y-16690039D01*
X11351460Y-16690039D02*
X11360984Y-16699563D01*
X11360984Y-16699563D02*
X11370508Y-16718610D01*
X11370508Y-16718610D02*
X11370508Y-16737658D01*
X11370508Y-16737658D02*
X11360984Y-16766229D01*
X11360984Y-16766229D02*
X11246698Y-16880515D01*
X11246698Y-16880515D02*
X11370508Y-16880515D01*
X11456222Y-16861467D02*
X11465746Y-16870991D01*
X11465746Y-16870991D02*
X11456222Y-16880515D01*
X11456222Y-16880515D02*
X11446698Y-16870991D01*
X11446698Y-16870991D02*
X11456222Y-16861467D01*
X11456222Y-16861467D02*
X11456222Y-16880515D01*
X11589555Y-16680515D02*
X11608603Y-16680515D01*
X11608603Y-16680515D02*
X11627650Y-16690039D01*
X11627650Y-16690039D02*
X11637174Y-16699563D01*
X11637174Y-16699563D02*
X11646698Y-16718610D01*
X11646698Y-16718610D02*
X11656222Y-16756705D01*
X11656222Y-16756705D02*
X11656222Y-16804325D01*
X11656222Y-16804325D02*
X11646698Y-16842420D01*
X11646698Y-16842420D02*
X11637174Y-16861467D01*
X11637174Y-16861467D02*
X11627650Y-16870991D01*
X11627650Y-16870991D02*
X11608603Y-16880515D01*
X11608603Y-16880515D02*
X11589555Y-16880515D01*
X11589555Y-16880515D02*
X11570508Y-16870991D01*
X11570508Y-16870991D02*
X11560984Y-16861467D01*
X11560984Y-16861467D02*
X11551460Y-16842420D01*
X11551460Y-16842420D02*
X11541936Y-16804325D01*
X11541936Y-16804325D02*
X11541936Y-16756705D01*
X11541936Y-16756705D02*
X11551460Y-16718610D01*
X11551460Y-16718610D02*
X11560984Y-16699563D01*
X11560984Y-16699563D02*
X11570508Y-16690039D01*
X11570508Y-16690039D02*
X11589555Y-16680515D01*
X11780031Y-16680515D02*
X11799079Y-16680515D01*
X11799079Y-16680515D02*
X11818127Y-16690039D01*
X11818127Y-16690039D02*
X11827650Y-16699563D01*
X11827650Y-16699563D02*
X11837174Y-16718610D01*
X11837174Y-16718610D02*
X11846698Y-16756705D01*
X11846698Y-16756705D02*
X11846698Y-16804325D01*
X11846698Y-16804325D02*
X11837174Y-16842420D01*
X11837174Y-16842420D02*
X11827650Y-16861467D01*
X11827650Y-16861467D02*
X11818127Y-16870991D01*
X11818127Y-16870991D02*
X11799079Y-16880515D01*
X11799079Y-16880515D02*
X11780031Y-16880515D01*
X11780031Y-16880515D02*
X11760984Y-16870991D01*
X11760984Y-16870991D02*
X11751460Y-16861467D01*
X11751460Y-16861467D02*
X11741936Y-16842420D01*
X11741936Y-16842420D02*
X11732412Y-16804325D01*
X11732412Y-16804325D02*
X11732412Y-16756705D01*
X11732412Y-16756705D02*
X11741936Y-16718610D01*
X11741936Y-16718610D02*
X11751460Y-16699563D01*
X11751460Y-16699563D02*
X11760984Y-16690039D01*
X11760984Y-16690039D02*
X11780031Y-16680515D01*
X11970508Y-16680515D02*
X11989555Y-16680515D01*
X11989555Y-16680515D02*
X12008603Y-16690039D01*
X12008603Y-16690039D02*
X12018127Y-16699563D01*
X12018127Y-16699563D02*
X12027650Y-16718610D01*
X12027650Y-16718610D02*
X12037174Y-16756705D01*
X12037174Y-16756705D02*
X12037174Y-16804325D01*
X12037174Y-16804325D02*
X12027650Y-16842420D01*
X12027650Y-16842420D02*
X12018127Y-16861467D01*
X12018127Y-16861467D02*
X12008603Y-16870991D01*
X12008603Y-16870991D02*
X11989555Y-16880515D01*
X11989555Y-16880515D02*
X11970508Y-16880515D01*
X11970508Y-16880515D02*
X11951460Y-16870991D01*
X11951460Y-16870991D02*
X11941936Y-16861467D01*
X11941936Y-16861467D02*
X11932412Y-16842420D01*
X11932412Y-16842420D02*
X11922889Y-16804325D01*
X11922889Y-16804325D02*
X11922889Y-16756705D01*
X11922889Y-16756705D02*
X11932412Y-16718610D01*
X11932412Y-16718610D02*
X11941936Y-16699563D01*
X11941936Y-16699563D02*
X11951460Y-16690039D01*
X11951460Y-16690039D02*
X11970508Y-16680515D01*
X12122889Y-16880515D02*
X12122889Y-16747182D01*
X12122889Y-16766229D02*
X12132412Y-16756705D01*
X12132412Y-16756705D02*
X12151460Y-16747182D01*
X12151460Y-16747182D02*
X12180031Y-16747182D01*
X12180031Y-16747182D02*
X12199079Y-16756705D01*
X12199079Y-16756705D02*
X12208603Y-16775753D01*
X12208603Y-16775753D02*
X12208603Y-16880515D01*
X12208603Y-16775753D02*
X12218127Y-16756705D01*
X12218127Y-16756705D02*
X12237174Y-16747182D01*
X12237174Y-16747182D02*
X12265746Y-16747182D01*
X12265746Y-16747182D02*
X12284793Y-16756705D01*
X12284793Y-16756705D02*
X12294317Y-16775753D01*
X12294317Y-16775753D02*
X12294317Y-16880515D01*
X12389555Y-16880515D02*
X12389555Y-16747182D01*
X12389555Y-16766229D02*
X12399079Y-16756705D01*
X12399079Y-16756705D02*
X12418127Y-16747182D01*
X12418127Y-16747182D02*
X12446698Y-16747182D01*
X12446698Y-16747182D02*
X12465746Y-16756705D01*
X12465746Y-16756705D02*
X12475270Y-16775753D01*
X12475270Y-16775753D02*
X12475270Y-16880515D01*
X12475270Y-16775753D02*
X12484793Y-16756705D01*
X12484793Y-16756705D02*
X12503841Y-16747182D01*
X12503841Y-16747182D02*
X12532412Y-16747182D01*
X12532412Y-16747182D02*
X12551460Y-16756705D01*
X12551460Y-16756705D02*
X12560984Y-16775753D01*
X12560984Y-16775753D02*
X12560984Y-16880515D01*
X12951460Y-16670991D02*
X12780032Y-16928134D01*
X13208603Y-16680515D02*
X13227651Y-16680515D01*
X13227651Y-16680515D02*
X13246698Y-16690039D01*
X13246698Y-16690039D02*
X13256222Y-16699563D01*
X13256222Y-16699563D02*
X13265746Y-16718610D01*
X13265746Y-16718610D02*
X13275270Y-16756705D01*
X13275270Y-16756705D02*
X13275270Y-16804325D01*
X13275270Y-16804325D02*
X13265746Y-16842420D01*
X13265746Y-16842420D02*
X13256222Y-16861467D01*
X13256222Y-16861467D02*
X13246698Y-16870991D01*
X13246698Y-16870991D02*
X13227651Y-16880515D01*
X13227651Y-16880515D02*
X13208603Y-16880515D01*
X13208603Y-16880515D02*
X13189555Y-16870991D01*
X13189555Y-16870991D02*
X13180032Y-16861467D01*
X13180032Y-16861467D02*
X13170508Y-16842420D01*
X13170508Y-16842420D02*
X13160984Y-16804325D01*
X13160984Y-16804325D02*
X13160984Y-16756705D01*
X13160984Y-16756705D02*
X13170508Y-16718610D01*
X13170508Y-16718610D02*
X13180032Y-16699563D01*
X13180032Y-16699563D02*
X13189555Y-16690039D01*
X13189555Y-16690039D02*
X13208603Y-16680515D01*
X13360984Y-16861467D02*
X13370508Y-16870991D01*
X13370508Y-16870991D02*
X13360984Y-16880515D01*
X13360984Y-16880515D02*
X13351460Y-16870991D01*
X13351460Y-16870991D02*
X13360984Y-16861467D01*
X13360984Y-16861467D02*
X13360984Y-16880515D01*
X13494317Y-16680515D02*
X13513365Y-16680515D01*
X13513365Y-16680515D02*
X13532413Y-16690039D01*
X13532413Y-16690039D02*
X13541936Y-16699563D01*
X13541936Y-16699563D02*
X13551460Y-16718610D01*
X13551460Y-16718610D02*
X13560984Y-16756705D01*
X13560984Y-16756705D02*
X13560984Y-16804325D01*
X13560984Y-16804325D02*
X13551460Y-16842420D01*
X13551460Y-16842420D02*
X13541936Y-16861467D01*
X13541936Y-16861467D02*
X13532413Y-16870991D01*
X13532413Y-16870991D02*
X13513365Y-16880515D01*
X13513365Y-16880515D02*
X13494317Y-16880515D01*
X13494317Y-16880515D02*
X13475270Y-16870991D01*
X13475270Y-16870991D02*
X13465746Y-16861467D01*
X13465746Y-16861467D02*
X13456222Y-16842420D01*
X13456222Y-16842420D02*
X13446698Y-16804325D01*
X13446698Y-16804325D02*
X13446698Y-16756705D01*
X13446698Y-16756705D02*
X13456222Y-16718610D01*
X13456222Y-16718610D02*
X13465746Y-16699563D01*
X13465746Y-16699563D02*
X13475270Y-16690039D01*
X13475270Y-16690039D02*
X13494317Y-16680515D01*
X13627651Y-16680515D02*
X13760984Y-16680515D01*
X13760984Y-16680515D02*
X13675270Y-16880515D01*
X13865746Y-16766229D02*
X13846698Y-16756705D01*
X13846698Y-16756705D02*
X13837174Y-16747182D01*
X13837174Y-16747182D02*
X13827651Y-16728134D01*
X13827651Y-16728134D02*
X13827651Y-16718610D01*
X13827651Y-16718610D02*
X13837174Y-16699563D01*
X13837174Y-16699563D02*
X13846698Y-16690039D01*
X13846698Y-16690039D02*
X13865746Y-16680515D01*
X13865746Y-16680515D02*
X13903841Y-16680515D01*
X13903841Y-16680515D02*
X13922889Y-16690039D01*
X13922889Y-16690039D02*
X13932413Y-16699563D01*
X13932413Y-16699563D02*
X13941936Y-16718610D01*
X13941936Y-16718610D02*
X13941936Y-16728134D01*
X13941936Y-16728134D02*
X13932413Y-16747182D01*
X13932413Y-16747182D02*
X13922889Y-16756705D01*
X13922889Y-16756705D02*
X13903841Y-16766229D01*
X13903841Y-16766229D02*
X13865746Y-16766229D01*
X13865746Y-16766229D02*
X13846698Y-16775753D01*
X13846698Y-16775753D02*
X13837174Y-16785277D01*
X13837174Y-16785277D02*
X13827651Y-16804325D01*
X13827651Y-16804325D02*
X13827651Y-16842420D01*
X13827651Y-16842420D02*
X13837174Y-16861467D01*
X13837174Y-16861467D02*
X13846698Y-16870991D01*
X13846698Y-16870991D02*
X13865746Y-16880515D01*
X13865746Y-16880515D02*
X13903841Y-16880515D01*
X13903841Y-16880515D02*
X13922889Y-16870991D01*
X13922889Y-16870991D02*
X13932413Y-16861467D01*
X13932413Y-16861467D02*
X13941936Y-16842420D01*
X13941936Y-16842420D02*
X13941936Y-16804325D01*
X13941936Y-16804325D02*
X13932413Y-16785277D01*
X13932413Y-16785277D02*
X13922889Y-16775753D01*
X13922889Y-16775753D02*
X13903841Y-16766229D01*
X14008603Y-16680515D02*
X14141936Y-16680515D01*
X14141936Y-16680515D02*
X14056222Y-16880515D01*
X14208603Y-16680515D02*
X14208603Y-16718610D01*
X14284794Y-16680515D02*
X14284794Y-16718610D01*
X14580032Y-16956706D02*
X14570508Y-16947182D01*
X14570508Y-16947182D02*
X14551460Y-16918610D01*
X14551460Y-16918610D02*
X14541936Y-16899563D01*
X14541936Y-16899563D02*
X14532413Y-16870991D01*
X14532413Y-16870991D02*
X14522889Y-16823372D01*
X14522889Y-16823372D02*
X14522889Y-16785277D01*
X14522889Y-16785277D02*
X14532413Y-16737658D01*
X14532413Y-16737658D02*
X14541936Y-16709086D01*
X14541936Y-16709086D02*
X14551460Y-16690039D01*
X14551460Y-16690039D02*
X14570508Y-16661467D01*
X14570508Y-16661467D02*
X14580032Y-16651944D01*
X14665746Y-16880515D02*
X14703841Y-16880515D01*
X14703841Y-16880515D02*
X14722889Y-16870991D01*
X14722889Y-16870991D02*
X14732413Y-16861467D01*
X14732413Y-16861467D02*
X14751460Y-16832896D01*
X14751460Y-16832896D02*
X14760984Y-16794801D01*
X14760984Y-16794801D02*
X14760984Y-16718610D01*
X14760984Y-16718610D02*
X14751460Y-16699563D01*
X14751460Y-16699563D02*
X14741936Y-16690039D01*
X14741936Y-16690039D02*
X14722889Y-16680515D01*
X14722889Y-16680515D02*
X14684794Y-16680515D01*
X14684794Y-16680515D02*
X14665746Y-16690039D01*
X14665746Y-16690039D02*
X14656222Y-16699563D01*
X14656222Y-16699563D02*
X14646698Y-16718610D01*
X14646698Y-16718610D02*
X14646698Y-16766229D01*
X14646698Y-16766229D02*
X14656222Y-16785277D01*
X14656222Y-16785277D02*
X14665746Y-16794801D01*
X14665746Y-16794801D02*
X14684794Y-16804325D01*
X14684794Y-16804325D02*
X14722889Y-16804325D01*
X14722889Y-16804325D02*
X14741936Y-16794801D01*
X14741936Y-16794801D02*
X14751460Y-16785277D01*
X14751460Y-16785277D02*
X14760984Y-16766229D01*
X14999079Y-16880515D02*
X14999079Y-16680515D01*
X15084794Y-16880515D02*
X15084794Y-16775753D01*
X15084794Y-16775753D02*
X15075270Y-16756705D01*
X15075270Y-16756705D02*
X15056222Y-16747182D01*
X15056222Y-16747182D02*
X15027651Y-16747182D01*
X15027651Y-16747182D02*
X15008603Y-16756705D01*
X15008603Y-16756705D02*
X14999079Y-16766229D01*
X15208603Y-16880515D02*
X15189556Y-16870991D01*
X15189556Y-16870991D02*
X15180032Y-16861467D01*
X15180032Y-16861467D02*
X15170508Y-16842420D01*
X15170508Y-16842420D02*
X15170508Y-16785277D01*
X15170508Y-16785277D02*
X15180032Y-16766229D01*
X15180032Y-16766229D02*
X15189556Y-16756705D01*
X15189556Y-16756705D02*
X15208603Y-16747182D01*
X15208603Y-16747182D02*
X15237175Y-16747182D01*
X15237175Y-16747182D02*
X15256222Y-16756705D01*
X15256222Y-16756705D02*
X15265746Y-16766229D01*
X15265746Y-16766229D02*
X15275270Y-16785277D01*
X15275270Y-16785277D02*
X15275270Y-16842420D01*
X15275270Y-16842420D02*
X15265746Y-16861467D01*
X15265746Y-16861467D02*
X15256222Y-16870991D01*
X15256222Y-16870991D02*
X15237175Y-16880515D01*
X15237175Y-16880515D02*
X15208603Y-16880515D01*
X15389556Y-16880515D02*
X15370508Y-16870991D01*
X15370508Y-16870991D02*
X15360984Y-16851944D01*
X15360984Y-16851944D02*
X15360984Y-16680515D01*
X15541937Y-16870991D02*
X15522889Y-16880515D01*
X15522889Y-16880515D02*
X15484794Y-16880515D01*
X15484794Y-16880515D02*
X15465746Y-16870991D01*
X15465746Y-16870991D02*
X15456222Y-16851944D01*
X15456222Y-16851944D02*
X15456222Y-16775753D01*
X15456222Y-16775753D02*
X15465746Y-16756705D01*
X15465746Y-16756705D02*
X15484794Y-16747182D01*
X15484794Y-16747182D02*
X15522889Y-16747182D01*
X15522889Y-16747182D02*
X15541937Y-16756705D01*
X15541937Y-16756705D02*
X15551460Y-16775753D01*
X15551460Y-16775753D02*
X15551460Y-16794801D01*
X15551460Y-16794801D02*
X15456222Y-16813848D01*
X15627651Y-16870991D02*
X15646698Y-16880515D01*
X15646698Y-16880515D02*
X15684794Y-16880515D01*
X15684794Y-16880515D02*
X15703841Y-16870991D01*
X15703841Y-16870991D02*
X15713365Y-16851944D01*
X15713365Y-16851944D02*
X15713365Y-16842420D01*
X15713365Y-16842420D02*
X15703841Y-16823372D01*
X15703841Y-16823372D02*
X15684794Y-16813848D01*
X15684794Y-16813848D02*
X15656222Y-16813848D01*
X15656222Y-16813848D02*
X15637175Y-16804325D01*
X15637175Y-16804325D02*
X15627651Y-16785277D01*
X15627651Y-16785277D02*
X15627651Y-16775753D01*
X15627651Y-16775753D02*
X15637175Y-16756705D01*
X15637175Y-16756705D02*
X15656222Y-16747182D01*
X15656222Y-16747182D02*
X15684794Y-16747182D01*
X15684794Y-16747182D02*
X15703841Y-16756705D01*
X15780032Y-16956706D02*
X15789556Y-16947182D01*
X15789556Y-16947182D02*
X15808603Y-16918610D01*
X15808603Y-16918610D02*
X15818127Y-16899563D01*
X15818127Y-16899563D02*
X15827651Y-16870991D01*
X15827651Y-16870991D02*
X15837175Y-16823372D01*
X15837175Y-16823372D02*
X15837175Y-16785277D01*
X15837175Y-16785277D02*
X15827651Y-16737658D01*
X15827651Y-16737658D02*
X15818127Y-16709086D01*
X15818127Y-16709086D02*
X15808603Y-16690039D01*
X15808603Y-16690039D02*
X15789556Y-16661467D01*
X15789556Y-16661467D02*
X15780032Y-16651944D01*
X10804969Y-17009031D02*
X11004969Y-17209031D01*
X11004969Y-17009031D02*
X10804969Y-17209031D01*
X10975680Y-17179743D02*
X10975680Y-17038320D01*
X10834258Y-17038320D01*
X10834258Y-17179743D01*
X10975680Y-17179743D01*
X11256222Y-17019563D02*
X11265746Y-17010039D01*
X11265746Y-17010039D02*
X11284793Y-17000515D01*
X11284793Y-17000515D02*
X11332412Y-17000515D01*
X11332412Y-17000515D02*
X11351460Y-17010039D01*
X11351460Y-17010039D02*
X11360984Y-17019563D01*
X11360984Y-17019563D02*
X11370508Y-17038610D01*
X11370508Y-17038610D02*
X11370508Y-17057658D01*
X11370508Y-17057658D02*
X11360984Y-17086229D01*
X11360984Y-17086229D02*
X11246698Y-17200515D01*
X11246698Y-17200515D02*
X11370508Y-17200515D01*
X11456222Y-17181467D02*
X11465746Y-17190991D01*
X11465746Y-17190991D02*
X11456222Y-17200515D01*
X11456222Y-17200515D02*
X11446698Y-17190991D01*
X11446698Y-17190991D02*
X11456222Y-17181467D01*
X11456222Y-17181467D02*
X11456222Y-17200515D01*
X11541936Y-17019563D02*
X11551460Y-17010039D01*
X11551460Y-17010039D02*
X11570508Y-17000515D01*
X11570508Y-17000515D02*
X11618127Y-17000515D01*
X11618127Y-17000515D02*
X11637174Y-17010039D01*
X11637174Y-17010039D02*
X11646698Y-17019563D01*
X11646698Y-17019563D02*
X11656222Y-17038610D01*
X11656222Y-17038610D02*
X11656222Y-17057658D01*
X11656222Y-17057658D02*
X11646698Y-17086229D01*
X11646698Y-17086229D02*
X11532412Y-17200515D01*
X11532412Y-17200515D02*
X11656222Y-17200515D01*
X11780031Y-17000515D02*
X11799079Y-17000515D01*
X11799079Y-17000515D02*
X11818127Y-17010039D01*
X11818127Y-17010039D02*
X11827650Y-17019563D01*
X11827650Y-17019563D02*
X11837174Y-17038610D01*
X11837174Y-17038610D02*
X11846698Y-17076706D01*
X11846698Y-17076706D02*
X11846698Y-17124325D01*
X11846698Y-17124325D02*
X11837174Y-17162420D01*
X11837174Y-17162420D02*
X11827650Y-17181467D01*
X11827650Y-17181467D02*
X11818127Y-17190991D01*
X11818127Y-17190991D02*
X11799079Y-17200515D01*
X11799079Y-17200515D02*
X11780031Y-17200515D01*
X11780031Y-17200515D02*
X11760984Y-17190991D01*
X11760984Y-17190991D02*
X11751460Y-17181467D01*
X11751460Y-17181467D02*
X11741936Y-17162420D01*
X11741936Y-17162420D02*
X11732412Y-17124325D01*
X11732412Y-17124325D02*
X11732412Y-17076706D01*
X11732412Y-17076706D02*
X11741936Y-17038610D01*
X11741936Y-17038610D02*
X11751460Y-17019563D01*
X11751460Y-17019563D02*
X11760984Y-17010039D01*
X11760984Y-17010039D02*
X11780031Y-17000515D01*
X11970508Y-17000515D02*
X11989555Y-17000515D01*
X11989555Y-17000515D02*
X12008603Y-17010039D01*
X12008603Y-17010039D02*
X12018127Y-17019563D01*
X12018127Y-17019563D02*
X12027650Y-17038610D01*
X12027650Y-17038610D02*
X12037174Y-17076706D01*
X12037174Y-17076706D02*
X12037174Y-17124325D01*
X12037174Y-17124325D02*
X12027650Y-17162420D01*
X12027650Y-17162420D02*
X12018127Y-17181467D01*
X12018127Y-17181467D02*
X12008603Y-17190991D01*
X12008603Y-17190991D02*
X11989555Y-17200515D01*
X11989555Y-17200515D02*
X11970508Y-17200515D01*
X11970508Y-17200515D02*
X11951460Y-17190991D01*
X11951460Y-17190991D02*
X11941936Y-17181467D01*
X11941936Y-17181467D02*
X11932412Y-17162420D01*
X11932412Y-17162420D02*
X11922889Y-17124325D01*
X11922889Y-17124325D02*
X11922889Y-17076706D01*
X11922889Y-17076706D02*
X11932412Y-17038610D01*
X11932412Y-17038610D02*
X11941936Y-17019563D01*
X11941936Y-17019563D02*
X11951460Y-17010039D01*
X11951460Y-17010039D02*
X11970508Y-17000515D01*
X12122889Y-17200515D02*
X12122889Y-17067182D01*
X12122889Y-17086229D02*
X12132412Y-17076706D01*
X12132412Y-17076706D02*
X12151460Y-17067182D01*
X12151460Y-17067182D02*
X12180031Y-17067182D01*
X12180031Y-17067182D02*
X12199079Y-17076706D01*
X12199079Y-17076706D02*
X12208603Y-17095753D01*
X12208603Y-17095753D02*
X12208603Y-17200515D01*
X12208603Y-17095753D02*
X12218127Y-17076706D01*
X12218127Y-17076706D02*
X12237174Y-17067182D01*
X12237174Y-17067182D02*
X12265746Y-17067182D01*
X12265746Y-17067182D02*
X12284793Y-17076706D01*
X12284793Y-17076706D02*
X12294317Y-17095753D01*
X12294317Y-17095753D02*
X12294317Y-17200515D01*
X12389555Y-17200515D02*
X12389555Y-17067182D01*
X12389555Y-17086229D02*
X12399079Y-17076706D01*
X12399079Y-17076706D02*
X12418127Y-17067182D01*
X12418127Y-17067182D02*
X12446698Y-17067182D01*
X12446698Y-17067182D02*
X12465746Y-17076706D01*
X12465746Y-17076706D02*
X12475270Y-17095753D01*
X12475270Y-17095753D02*
X12475270Y-17200515D01*
X12475270Y-17095753D02*
X12484793Y-17076706D01*
X12484793Y-17076706D02*
X12503841Y-17067182D01*
X12503841Y-17067182D02*
X12532412Y-17067182D01*
X12532412Y-17067182D02*
X12551460Y-17076706D01*
X12551460Y-17076706D02*
X12560984Y-17095753D01*
X12560984Y-17095753D02*
X12560984Y-17200515D01*
X12951460Y-16990991D02*
X12780032Y-17248134D01*
X13208603Y-17000515D02*
X13227651Y-17000515D01*
X13227651Y-17000515D02*
X13246698Y-17010039D01*
X13246698Y-17010039D02*
X13256222Y-17019563D01*
X13256222Y-17019563D02*
X13265746Y-17038610D01*
X13265746Y-17038610D02*
X13275270Y-17076706D01*
X13275270Y-17076706D02*
X13275270Y-17124325D01*
X13275270Y-17124325D02*
X13265746Y-17162420D01*
X13265746Y-17162420D02*
X13256222Y-17181467D01*
X13256222Y-17181467D02*
X13246698Y-17190991D01*
X13246698Y-17190991D02*
X13227651Y-17200515D01*
X13227651Y-17200515D02*
X13208603Y-17200515D01*
X13208603Y-17200515D02*
X13189555Y-17190991D01*
X13189555Y-17190991D02*
X13180032Y-17181467D01*
X13180032Y-17181467D02*
X13170508Y-17162420D01*
X13170508Y-17162420D02*
X13160984Y-17124325D01*
X13160984Y-17124325D02*
X13160984Y-17076706D01*
X13160984Y-17076706D02*
X13170508Y-17038610D01*
X13170508Y-17038610D02*
X13180032Y-17019563D01*
X13180032Y-17019563D02*
X13189555Y-17010039D01*
X13189555Y-17010039D02*
X13208603Y-17000515D01*
X13360984Y-17181467D02*
X13370508Y-17190991D01*
X13370508Y-17190991D02*
X13360984Y-17200515D01*
X13360984Y-17200515D02*
X13351460Y-17190991D01*
X13351460Y-17190991D02*
X13360984Y-17181467D01*
X13360984Y-17181467D02*
X13360984Y-17200515D01*
X13494317Y-17000515D02*
X13513365Y-17000515D01*
X13513365Y-17000515D02*
X13532413Y-17010039D01*
X13532413Y-17010039D02*
X13541936Y-17019563D01*
X13541936Y-17019563D02*
X13551460Y-17038610D01*
X13551460Y-17038610D02*
X13560984Y-17076706D01*
X13560984Y-17076706D02*
X13560984Y-17124325D01*
X13560984Y-17124325D02*
X13551460Y-17162420D01*
X13551460Y-17162420D02*
X13541936Y-17181467D01*
X13541936Y-17181467D02*
X13532413Y-17190991D01*
X13532413Y-17190991D02*
X13513365Y-17200515D01*
X13513365Y-17200515D02*
X13494317Y-17200515D01*
X13494317Y-17200515D02*
X13475270Y-17190991D01*
X13475270Y-17190991D02*
X13465746Y-17181467D01*
X13465746Y-17181467D02*
X13456222Y-17162420D01*
X13456222Y-17162420D02*
X13446698Y-17124325D01*
X13446698Y-17124325D02*
X13446698Y-17076706D01*
X13446698Y-17076706D02*
X13456222Y-17038610D01*
X13456222Y-17038610D02*
X13465746Y-17019563D01*
X13465746Y-17019563D02*
X13475270Y-17010039D01*
X13475270Y-17010039D02*
X13494317Y-17000515D01*
X13675270Y-17086229D02*
X13656222Y-17076706D01*
X13656222Y-17076706D02*
X13646698Y-17067182D01*
X13646698Y-17067182D02*
X13637174Y-17048134D01*
X13637174Y-17048134D02*
X13637174Y-17038610D01*
X13637174Y-17038610D02*
X13646698Y-17019563D01*
X13646698Y-17019563D02*
X13656222Y-17010039D01*
X13656222Y-17010039D02*
X13675270Y-17000515D01*
X13675270Y-17000515D02*
X13713365Y-17000515D01*
X13713365Y-17000515D02*
X13732413Y-17010039D01*
X13732413Y-17010039D02*
X13741936Y-17019563D01*
X13741936Y-17019563D02*
X13751460Y-17038610D01*
X13751460Y-17038610D02*
X13751460Y-17048134D01*
X13751460Y-17048134D02*
X13741936Y-17067182D01*
X13741936Y-17067182D02*
X13732413Y-17076706D01*
X13732413Y-17076706D02*
X13713365Y-17086229D01*
X13713365Y-17086229D02*
X13675270Y-17086229D01*
X13675270Y-17086229D02*
X13656222Y-17095753D01*
X13656222Y-17095753D02*
X13646698Y-17105277D01*
X13646698Y-17105277D02*
X13637174Y-17124325D01*
X13637174Y-17124325D02*
X13637174Y-17162420D01*
X13637174Y-17162420D02*
X13646698Y-17181467D01*
X13646698Y-17181467D02*
X13656222Y-17190991D01*
X13656222Y-17190991D02*
X13675270Y-17200515D01*
X13675270Y-17200515D02*
X13713365Y-17200515D01*
X13713365Y-17200515D02*
X13732413Y-17190991D01*
X13732413Y-17190991D02*
X13741936Y-17181467D01*
X13741936Y-17181467D02*
X13751460Y-17162420D01*
X13751460Y-17162420D02*
X13751460Y-17124325D01*
X13751460Y-17124325D02*
X13741936Y-17105277D01*
X13741936Y-17105277D02*
X13732413Y-17095753D01*
X13732413Y-17095753D02*
X13713365Y-17086229D01*
X13922889Y-17000515D02*
X13884793Y-17000515D01*
X13884793Y-17000515D02*
X13865746Y-17010039D01*
X13865746Y-17010039D02*
X13856222Y-17019563D01*
X13856222Y-17019563D02*
X13837174Y-17048134D01*
X13837174Y-17048134D02*
X13827651Y-17086229D01*
X13827651Y-17086229D02*
X13827651Y-17162420D01*
X13827651Y-17162420D02*
X13837174Y-17181467D01*
X13837174Y-17181467D02*
X13846698Y-17190991D01*
X13846698Y-17190991D02*
X13865746Y-17200515D01*
X13865746Y-17200515D02*
X13903841Y-17200515D01*
X13903841Y-17200515D02*
X13922889Y-17190991D01*
X13922889Y-17190991D02*
X13932413Y-17181467D01*
X13932413Y-17181467D02*
X13941936Y-17162420D01*
X13941936Y-17162420D02*
X13941936Y-17114801D01*
X13941936Y-17114801D02*
X13932413Y-17095753D01*
X13932413Y-17095753D02*
X13922889Y-17086229D01*
X13922889Y-17086229D02*
X13903841Y-17076706D01*
X13903841Y-17076706D02*
X13865746Y-17076706D01*
X13865746Y-17076706D02*
X13846698Y-17086229D01*
X13846698Y-17086229D02*
X13837174Y-17095753D01*
X13837174Y-17095753D02*
X13827651Y-17114801D01*
X14113365Y-17000515D02*
X14075270Y-17000515D01*
X14075270Y-17000515D02*
X14056222Y-17010039D01*
X14056222Y-17010039D02*
X14046698Y-17019563D01*
X14046698Y-17019563D02*
X14027651Y-17048134D01*
X14027651Y-17048134D02*
X14018127Y-17086229D01*
X14018127Y-17086229D02*
X14018127Y-17162420D01*
X14018127Y-17162420D02*
X14027651Y-17181467D01*
X14027651Y-17181467D02*
X14037174Y-17190991D01*
X14037174Y-17190991D02*
X14056222Y-17200515D01*
X14056222Y-17200515D02*
X14094317Y-17200515D01*
X14094317Y-17200515D02*
X14113365Y-17190991D01*
X14113365Y-17190991D02*
X14122889Y-17181467D01*
X14122889Y-17181467D02*
X14132413Y-17162420D01*
X14132413Y-17162420D02*
X14132413Y-17114801D01*
X14132413Y-17114801D02*
X14122889Y-17095753D01*
X14122889Y-17095753D02*
X14113365Y-17086229D01*
X14113365Y-17086229D02*
X14094317Y-17076706D01*
X14094317Y-17076706D02*
X14056222Y-17076706D01*
X14056222Y-17076706D02*
X14037174Y-17086229D01*
X14037174Y-17086229D02*
X14027651Y-17095753D01*
X14027651Y-17095753D02*
X14018127Y-17114801D01*
X14208603Y-17000515D02*
X14208603Y-17038610D01*
X14284794Y-17000515D02*
X14284794Y-17038610D01*
X14580032Y-17276706D02*
X14570508Y-17267182D01*
X14570508Y-17267182D02*
X14551460Y-17238610D01*
X14551460Y-17238610D02*
X14541936Y-17219563D01*
X14541936Y-17219563D02*
X14532413Y-17190991D01*
X14532413Y-17190991D02*
X14522889Y-17143372D01*
X14522889Y-17143372D02*
X14522889Y-17105277D01*
X14522889Y-17105277D02*
X14532413Y-17057658D01*
X14532413Y-17057658D02*
X14541936Y-17029087D01*
X14541936Y-17029087D02*
X14551460Y-17010039D01*
X14551460Y-17010039D02*
X14570508Y-16981467D01*
X14570508Y-16981467D02*
X14580032Y-16971944D01*
X14646698Y-17019563D02*
X14656222Y-17010039D01*
X14656222Y-17010039D02*
X14675270Y-17000515D01*
X14675270Y-17000515D02*
X14722889Y-17000515D01*
X14722889Y-17000515D02*
X14741936Y-17010039D01*
X14741936Y-17010039D02*
X14751460Y-17019563D01*
X14751460Y-17019563D02*
X14760984Y-17038610D01*
X14760984Y-17038610D02*
X14760984Y-17057658D01*
X14760984Y-17057658D02*
X14751460Y-17086229D01*
X14751460Y-17086229D02*
X14637175Y-17200515D01*
X14637175Y-17200515D02*
X14760984Y-17200515D01*
X14999079Y-17200515D02*
X14999079Y-17000515D01*
X15084794Y-17200515D02*
X15084794Y-17095753D01*
X15084794Y-17095753D02*
X15075270Y-17076706D01*
X15075270Y-17076706D02*
X15056222Y-17067182D01*
X15056222Y-17067182D02*
X15027651Y-17067182D01*
X15027651Y-17067182D02*
X15008603Y-17076706D01*
X15008603Y-17076706D02*
X14999079Y-17086229D01*
X15208603Y-17200515D02*
X15189556Y-17190991D01*
X15189556Y-17190991D02*
X15180032Y-17181467D01*
X15180032Y-17181467D02*
X15170508Y-17162420D01*
X15170508Y-17162420D02*
X15170508Y-17105277D01*
X15170508Y-17105277D02*
X15180032Y-17086229D01*
X15180032Y-17086229D02*
X15189556Y-17076706D01*
X15189556Y-17076706D02*
X15208603Y-17067182D01*
X15208603Y-17067182D02*
X15237175Y-17067182D01*
X15237175Y-17067182D02*
X15256222Y-17076706D01*
X15256222Y-17076706D02*
X15265746Y-17086229D01*
X15265746Y-17086229D02*
X15275270Y-17105277D01*
X15275270Y-17105277D02*
X15275270Y-17162420D01*
X15275270Y-17162420D02*
X15265746Y-17181467D01*
X15265746Y-17181467D02*
X15256222Y-17190991D01*
X15256222Y-17190991D02*
X15237175Y-17200515D01*
X15237175Y-17200515D02*
X15208603Y-17200515D01*
X15389556Y-17200515D02*
X15370508Y-17190991D01*
X15370508Y-17190991D02*
X15360984Y-17171944D01*
X15360984Y-17171944D02*
X15360984Y-17000515D01*
X15541937Y-17190991D02*
X15522889Y-17200515D01*
X15522889Y-17200515D02*
X15484794Y-17200515D01*
X15484794Y-17200515D02*
X15465746Y-17190991D01*
X15465746Y-17190991D02*
X15456222Y-17171944D01*
X15456222Y-17171944D02*
X15456222Y-17095753D01*
X15456222Y-17095753D02*
X15465746Y-17076706D01*
X15465746Y-17076706D02*
X15484794Y-17067182D01*
X15484794Y-17067182D02*
X15522889Y-17067182D01*
X15522889Y-17067182D02*
X15541937Y-17076706D01*
X15541937Y-17076706D02*
X15551460Y-17095753D01*
X15551460Y-17095753D02*
X15551460Y-17114801D01*
X15551460Y-17114801D02*
X15456222Y-17133848D01*
X15627651Y-17190991D02*
X15646698Y-17200515D01*
X15646698Y-17200515D02*
X15684794Y-17200515D01*
X15684794Y-17200515D02*
X15703841Y-17190991D01*
X15703841Y-17190991D02*
X15713365Y-17171944D01*
X15713365Y-17171944D02*
X15713365Y-17162420D01*
X15713365Y-17162420D02*
X15703841Y-17143372D01*
X15703841Y-17143372D02*
X15684794Y-17133848D01*
X15684794Y-17133848D02*
X15656222Y-17133848D01*
X15656222Y-17133848D02*
X15637175Y-17124325D01*
X15637175Y-17124325D02*
X15627651Y-17105277D01*
X15627651Y-17105277D02*
X15627651Y-17095753D01*
X15627651Y-17095753D02*
X15637175Y-17076706D01*
X15637175Y-17076706D02*
X15656222Y-17067182D01*
X15656222Y-17067182D02*
X15684794Y-17067182D01*
X15684794Y-17067182D02*
X15703841Y-17076706D01*
X15780032Y-17276706D02*
X15789556Y-17267182D01*
X15789556Y-17267182D02*
X15808603Y-17238610D01*
X15808603Y-17238610D02*
X15818127Y-17219563D01*
X15818127Y-17219563D02*
X15827651Y-17190991D01*
X15827651Y-17190991D02*
X15837175Y-17143372D01*
X15837175Y-17143372D02*
X15837175Y-17105277D01*
X15837175Y-17105277D02*
X15827651Y-17057658D01*
X15827651Y-17057658D02*
X15818127Y-17029087D01*
X15818127Y-17029087D02*
X15808603Y-17010039D01*
X15808603Y-17010039D02*
X15789556Y-16981467D01*
X15789556Y-16981467D02*
X15780032Y-16971944D01*
M02*
